<?xml version="1.0" encoding="UTF-8" standalone="no"?>
<svg
   width="156.41356"
   zoomAndPan="magnify"
   viewBox="0 0 117.31017 147.33212"
   height="196.44283"
   preserveAspectRatio="xMidYMid meet"
   version="1.0"
   id="svg12263"
   xmlns="http://www.w3.org/2000/svg"
   xmlns:svg="http://www.w3.org/2000/svg">
  <defs
     id="defs12033">
    <filter
       x="0"
       y="0"
       width="1"
       height="1"
       id="17039a41b2">
      <feColorMatrix
         values="0 0 0 0 1 0 0 0 0 1 0 0 0 0 1 0 0 0 1 0"
         color-interpolation-filters="sRGB"
         id="feColorMatrix11998" />
    </filter>
    <mask
       id="8fac9fa52e">
      <g
         filter="url(#17039a41b2)"
         id="g12003">
        <rect
           x="-37.5"
           width="450"
           fill="#000000"
           y="-37.5"
           height="450"
           fill-opacity="0.6"
           id="rect12001" />
      </g>
    </mask>
    <clipPath
       id="53ee357849">
      <path
         d="M 0.601562,1 H 22 V 44.160156 H 0.601562 Z m 0,0"
         clip-rule="nonzero"
         id="path12006" />
    </clipPath>
    <clipPath
       id="cff66111ba">
      <path
         d="m 17,16 h 6.878906 v 9 H 17 Z m 0,0"
         clip-rule="nonzero"
         id="path12009" />
    </clipPath>
    <clipPath
       id="cc78574fae">
      <rect
         x="0"
         width="24"
         y="0"
         height="45"
         id="rect12012" />
    </clipPath>
    <clipPath
       id="8e33e67525">
      <path
         d="m 221,159 h 27.96875 v 26 H 221 Z m 0,0"
         clip-rule="nonzero"
         id="path12015" />
    </clipPath>
    <clipPath
       id="bff8c12e02">
      <path
         d="m 206,175 h 41 v 63.41406 h -41 z m 0,0"
         clip-rule="nonzero"
         id="path12018" />
    </clipPath>
    <clipPath
       id="8653c6c01b">
      <path
         d="m 187,218 h 22 v 20.41406 h -22 z m 0,0"
         clip-rule="nonzero"
         id="path12021" />
    </clipPath>
    <clipPath
       id="0cc67c84d4">
      <path
         d="m 149,200 h 30 v 38.41406 h -30 z m 0,0"
         clip-rule="nonzero"
         id="path12024" />
    </clipPath>
    <clipPath
       id="b08001ccc2">
      <path
         d="m 237,187 h 11.96875 v 19 H 237 Z m 0,0"
         clip-rule="nonzero"
         id="path12027" />
    </clipPath>
    <clipPath
       id="3a20c59db4">
      <path
         d="m 178,221 h 13 v 17.41406 h -13 z m 0,0"
         clip-rule="nonzero"
         id="path12030" />
    </clipPath>
  </defs>
  <g
     id="g12438"
     transform="translate(-131.42278,-90.8125)">
    <path
       fill="#ec1c24"
       d="m 236.16016,182.99219 c -8.84766,2.44922 -13.76954,-3.53907 -13.01954,-6.62891 0.19922,-0.83594 3.4336,-3.16406 4.02344,-3.44531 -0.30859,-0.29688 -0.58984,-0.65625 -0.82422,-1.08594 -0.0195,-0.0469 -0.0508,-0.0977 -0.0742,-0.14844 -0.68359,-1.33984 -0.62109,-2.625 -0.0508,-3.80468 1.65235,-3.37891 7.54297,-5.81641 12.15235,-5.67579 0.0508,0 0.0937,0.008 0.13672,0.008 6.16406,0.16406 8.5,-1.24219 8.5,-1.24219 0,0 0.50781,18.87891 -10.84375,22.02344 z m 0,0"
       fill-opacity="1"
       fill-rule="nonzero"
       id="path12035" />
    <path
       fill="#00b4f1"
       d="m 227.25,172.88281 c -0.0273,0.0117 -0.0547,0.0234 -0.0859,0.043 z m 0,0"
       fill-opacity="1"
       fill-rule="nonzero"
       id="path12037" />
    <path
       fill="#ec1c24"
       d="m 238.50781,162.21094 c -0.0469,0 -0.0898,-0.008 -0.13672,-0.008 -4.60937,-0.13671 -10.49609,2.29688 -12.14843,5.67579 -0.63672,-0.49219 -1.42579,-0.80469 -2.28125,-0.86329 -0.0859,-0.004 -0.17969,-0.004 -0.26563,-0.004 -0.39844,0 -0.78906,0.0547 -1.16016,0.16406 -0.14843,-0.0391 -0.30078,-0.10156 -0.45703,-0.18359 -3.85937,-7.21875 0.52735,-14.40235 6.4336,-15.5625 5.8125,-1.14453 9.1914,-3.71875 9.1914,-3.71875 0,0 2.47266,7.92187 0.82422,14.5 z m 0,0"
       fill-opacity="1"
       fill-rule="nonzero"
       id="path12039" />
    <path
       fill="#ec1c24"
       d="m 227.16406,172.92578 c -0.58984,0.27344 -1.02344,0.9375 -1.22265,1.77344 -0.65235,0.42187 -1.4336,0.66797 -2.26563,0.66797 -1.01562,0 -1.94922,-0.36719 -2.66797,-0.96875 -0.0352,-1.77735 -0.32812,-3.5625 -0.92187,-5.33594 0.44531,-0.74219 1.10937,-1.33594 1.91015,-1.6875 0.16797,-0.0742 0.34375,-0.13672 0.51953,-0.1875 0.51954,0.14844 0.98438,0.0781 1.42579,-0.15625 0.85546,0.0586 1.64453,0.36719 2.28125,0.86328 -0.57813,1.17969 -0.63672,2.47266 0.0508,3.80469 0.0234,0.0508 0.0469,0.0977 0.0742,0.14844 0.22656,0.41796 0.5039,0.78125 0.8164,1.07812 z m 0,0"
       fill-opacity="1"
       fill-rule="nonzero"
       id="path12041" />
    <path
       fill="#ffffff"
       d="m 205.14062,164.97266 c -8.90625,-11.05469 -21.20703,-7.625 -24.55468,-8.79297 -3.35157,-1.16407 -7.32422,-2.07422 -8.85157,-13.89063 -1.52734,-11.82031 -4.79296,-9.91406 -4.79296,-9.91406 -5.73829,0 -4.92579,6.48047 -4.92579,6.48047 v 16.0664 h -7.24609 c 0,0 -2.72656,-0.0977 -5.45312,1.26563 -8.92969,0 -13,3.625 -13.12891,3.74219 0,0.004 0,0.004 0,0.004 -1.39844,3.36328 -10.19922,19.05469 6.07422,31.52344 h 0.004 c 0.0937,0.0703 0.1836,0.14453 0.28125,0.21875 h 0.004 c 0.25781,0.19531 0.52344,0.38281 0.78906,0.57813 17.72657,12.58203 20.01172,13.72656 26.58594,13.72656 6.57813,0 25.44531,-6.57813 37.44922,-17.16016 2.08984,-1.83984 3.85937,-3.5625 5.34375,-5.19922 0.14062,-1.77734 0.15234,-9.05468 -7.57813,-18.64843 z m -47.69531,8.10546 c -0.0742,0 -0.15234,-0.004 -0.23437,-0.004 -4.01172,-0.15625 -10.29688,-4.1875 -11.38672,-8.86328 -1.14453,-4.85938 3.96094,-7.34375 10.38672,-7.34375 6.42187,0 12.39062,2.35156 12.39062,7.24218 -0.008,4.90235 -5.625,8.96875 -11.15625,8.96875 z m 35.63672,10.65235 c -4.5625,0.49219 -6.66406,-6.45313 -12.43359,-6.33203 2.3789,-2.96875 3.80859,-6.58594 4.6289,-9.42578 1.14453,0.33593 7.86328,2.48828 10.45313,6.74609 2,3.28906 0,8.72656 -2.64844,9.01172 z m 0,0"
       fill-opacity="1"
       fill-rule="nonzero"
       id="path12043" />
    <path
       fill="#f99b28"
       d="m 218.96094,166.44922 c -0.21875,-1.36328 -0.5625,-2.76172 -1.00782,-4.2461 -2.85937,-9.4375 -3.14453,-32.60156 -4,-38.60937 -0.85937,-6.00781 -3.99218,-31.734375 -18.86718,-31.746094 0,0 -11.72266,0 -9.4336,26.312504 0,0 -8.73828,-1.60157 -18.55468,0.125 -2.95704,0.51953 -6.01563,1.34375 -8.96094,2.60937 -3.97656,1.70313 -7.75,4.21094 -10.79688,7.84766 0,0 -0.64062,0.57031 -1.5,1.78906 -1.24218,1.76172 -2.92187,4.86719 -3.75781,9.55469 -0.22266,1.25 -0.38672,2.61718 -0.46875,4.10156 -0.57031,10.86719 -3.99609,12.29687 -5.42578,15.73047 0.12891,-0.11719 4.19141,-3.74219 13.12109,-3.74219 2.73438,-1.35937 5.45703,-1.26562 5.45703,-1.26562 h 7.24219 v -16.0625 c 0,0 -0.8125,-6.48047 4.92969,-6.48047 0,0 3.25781,-1.90235 4.79297,9.91406 1.51953,11.82422 5.5,12.73437 8.84375,13.89844 3.35156,1.16797 15.64844,-2.26172 24.55078,8.79297 7.73047,9.59375 7.71094,16.87109 7.58203,18.63281 5.71484,-6.29297 7.16406,-11.32031 6.25391,-17.15625 z m -25.01953,-45.51953 c 0,0 -0.85938,-18.97656 4.28906,-18.4961 5.14453,0.47657 8.38672,29.07813 8.38672,29.07813 -4.47657,-7.53516 -12.67578,-10.58203 -12.67578,-10.58203 z m 0,0"
       fill-opacity="1"
       fill-rule="nonzero"
       id="path12045" />
    <path
       fill="#102770"
       d="m 209.75391,135.85156 c -9.5,-14.62109 -18.73047,-14.75 -18.73047,-14.75 0,0 -2.14063,-22.19531 6.34765,-22.144529 11.14453,0.07031 12.38282,36.894529 12.38282,36.894529 z m 0,0"
       fill-opacity="0.298"
       fill-rule="nonzero"
       id="path12047" />
    <path
       fill="#f99b28"
       d="m 167.10156,118.29297 c -2.96094,0.51953 -6.01172,1.34375 -8.95703,2.60547 -1.67187,-2.51953 -8.65625,-14.07813 -12.60937,-11.79297 -3.86719,2.24219 -1.00391,17.62109 0.3125,21.42578 -1.23829,1.76172 -2.91797,4.86719 -3.75391,9.55469 0,0 -13.04688,-31.36328 -1.51563,-41.089846 10.62891,-8.957032 23.92188,14.839846 26.52344,19.296876 z m 0,0"
       fill-opacity="1"
       fill-rule="nonzero"
       id="path12049" />
    <g
       mask="url(#8fac9fa52e)"
       id="g12063">
      <g
         transform="translate(135,96)"
         id="g12061">
        <g
           clip-path="url(#cc78574fae)"
           id="g12059">
          <g
             clip-path="url(#53ee357849)"
             id="g12053">
            <path
               fill="#ffffff"
               d="M 7.582031,5.003906 C 12.179688,1.125 17.273438,3.378906 21.785156,7.542969 16.820312,2.195312 10.867188,-1.464844 5.578125,3.003906 -5.953125,12.726562 7.09375,44.089844 7.09375,44.089844 7.226562,43.339844 7.386719,42.636719 7.558594,41.96875 4.488281,33.132812 -1.367188,12.550781 7.582031,5.003906 Z m 0,0"
               fill-opacity="1"
               fill-rule="nonzero"
               id="path12051" />
          </g>
          <g
             clip-path="url(#cff66111ba)"
             id="g12057">
            <path
               fill="#ffffff"
               d="m 17.101562,16.515625 c 2.6875,3.023437 5.140626,7.015625 6.042969,8.382813 0.183594,-0.07813 0.367188,-0.148438 0.546875,-0.222657 -1.632812,-2.480469 -4.148437,-6.0625 -6.589844,-8.160156 z m 0,0"
               fill-opacity="1"
               fill-rule="nonzero"
               id="path12055" />
          </g>
        </g>
      </g>
    </g>
    <path
       fill="#102770"
       d="m 162.01953,119.48828 c -5.26953,2.25391 -16.36328,8.07031 -18.98828,16.92578 -1.74609,-5.04687 -7.6875,-27.4414 0.043,-31.46093 5.36328,-2.79297 14.98437,5.73046 18.94531,14.53515 z m 0,0"
       fill-opacity="0.298"
       fill-rule="nonzero"
       id="path12065" />
    <path
       fill="#00b4f1"
       d="m 167.44141,118.875 c 0,0 -0.1211,-0.21094 -0.33985,-0.58203 z m 0,0"
       fill-opacity="1"
       fill-rule="nonzero"
       id="path12067" />
    <path
       fill="#00b4f1"
       d="m 186.32031,163.16016 c 0,0 -0.23437,2.04296 -1.04297,4.8164 z m 0,0"
       fill-opacity="1"
       fill-rule="nonzero"
       id="path12069" />
    <path
       fill="#ed2e7a"
       d="m 193.08203,183.73047 c -4.5625,0.49219 -6.66406,-6.45313 -12.43359,-6.33203 2.3789,-2.96875 3.80859,-6.58594 4.6289,-9.42578 1.14453,0.33593 7.86328,2.48828 10.45313,6.74609 2,3.28906 0,8.72656 -2.64844,9.01172 z m 0,0"
       fill-opacity="1"
       fill-rule="nonzero"
       id="path12071" />
    <path
       fill="#00b4f1"
       d="m 180.64844,177.40234 c -0.10547,0 -0.21875,0.008 -0.32032,0.0117 z m 0,0"
       fill-opacity="1"
       fill-rule="nonzero"
       id="path12073" />
    <path
       fill="#00b4f1"
       d="m 185.27734,167.97656 c -0.10547,-0.0352 -0.16406,-0.0508 -0.16406,-0.0508 z m 0,0"
       fill-opacity="1"
       fill-rule="nonzero"
       id="path12075" />
    <path
       fill="#ed2e7a"
       d="m 206.61719,131.51172 c -4.47657,-7.53516 -12.67578,-10.58203 -12.67578,-10.58203 0,0 -0.85938,-18.97656 4.28906,-18.4961 5.14453,0.47657 8.38672,29.07813 8.38672,29.07813 z m 0,0"
       fill-opacity="1"
       fill-rule="nonzero"
       id="path12077" />
    <path
       fill="#ed2e7a"
       d="m 158.14453,120.89844 c -3.97266,1.69922 -7.75391,4.20703 -10.79687,7.84765 0,0 -0.63672,0.57422 -1.4961,1.79297 -1.3164,-3.80468 -4.17969,-19.1914 -0.30859,-21.42968 3.9375,-2.28907 10.92578,9.26953 12.60156,11.78906 z m 0,0"
       fill-opacity="1"
       fill-rule="nonzero"
       id="path12079" />
    <path
       fill="#00b4f1"
       d="m 146.07031,131.17187 c 0,0 -0.082,-0.22265 -0.22265,-0.64062 z m 0,0"
       fill-opacity="1"
       fill-rule="nonzero"
       id="path12081" />
    <path
       fill="#00b4f1"
       d="m 158.35937,121.23828 c 0,0 -0.0742,-0.12109 -0.21484,-0.33984 z m 0,0"
       fill-opacity="1"
       fill-rule="nonzero"
       id="path12083" />
    <path
       fill="#00b4f1"
       d="m 141.99609,190.87891 c 0.16797,0.23437 0.35547,0.5 0.5625,0.78515 z m 0,0"
       fill-opacity="1"
       fill-rule="nonzero"
       id="path12085" />
    <path
       fill="#00b4f1"
       d="m 159.59766,208.51953 c 3.73828,2.3125 5.79687,2.81641 7.57031,5.26953 z m 0,0"
       fill-opacity="1"
       fill-rule="nonzero"
       id="path12087" />
    <path
       fill="#ec1c24"
       d="m 221,174.39844 c -0.004,0.72265 -0.0508,1.46093 -0.12891,2.20312 -0.3164,2.81641 -1.18359,5.75391 -2.49218,8.375 0,0.008 -0.008,0.008 -0.008,0.008 -9.53515,19.13282 -42.09765,35.47657 -49.30078,35.47657 -5.59765,0 -8.67969,-9.19532 -9.47265,-11.94141 -0.0703,-0.0391 -0.14063,-0.0859 -0.20704,-0.12891 -1.45312,-0.90625 -3.15625,-2.09375 -5.1875,-3.75781 -1.38281,-1.13281 -2.71484,-2.38672 -3.96093,-3.67187 -3.33985,-3.4336 -6.10157,-7.09375 -7.6836,-9.30469 0.25782,0.19531 0.51953,0.38672 0.78907,0.57812 17.72265,12.58594 20.01171,13.73047 26.58593,13.73047 6.57422,0 25.44141,-6.57812 37.44922,-17.16015 2.08594,-1.84375 3.85938,-3.56641 5.33985,-5.19922 5.69921,-6.29297 7.14843,-11.32813 6.23828,-17.15625 0.42187,0.83984 0.86328,1.80078 1.125,2.61328 0.58984,1.77344 0.88672,3.55859 0.91406,5.33594 z m 0,0"
       fill-opacity="1"
       fill-rule="nonzero"
       id="path12089" />
    <path
       fill="#ffffff"
       d="m 171.78516,216.43359 c -0.17579,-0.0859 -0.35938,-0.15625 -0.53125,-0.25781 -0.23829,-0.14453 -0.49219,-0.21094 -0.77344,-0.19141 -0.41016,0.0352 -0.79297,-0.0508 -1.13672,-0.29687 -0.55469,-0.40625 -0.60156,-1.08594 -0.0977,-1.55469 0.125,-0.12109 0.28125,-0.21094 0.4375,-0.29297 0.30078,-0.16015 0.57422,-0.34765 0.82032,-0.59375 0.32812,-0.32422 0.72265,-0.43359 1.16015,-0.32031 0.44922,0.11328 0.73828,0.41016 0.85547,0.85938 0.0781,0.3125 0.21094,0.59375 0.42188,0.83984 0.18359,0.21094 0.28906,0.46094 0.32421,0.74219 0.0508,0.49218 -0.22265,0.89843 -0.69531,1.04297 -0.24219,0.0664 -0.5039,0.0664 -0.77734,0 0,0.004 -0.008,0.0156 -0.008,0.0234 z m 0,0"
       fill-opacity="1"
       fill-rule="nonzero"
       id="path12091" />
    <path
       fill="#ffffff"
       d="m 171.92187,210.87109 c -0.0508,0.25782 -0.1289,0.51172 -0.30859,0.71094 -0.0898,0.10156 -0.19922,0.20703 -0.32031,0.27344 -0.39844,0.23437 -0.85156,0.0703 -1.03906,-0.37891 -0.16797,-0.39844 -0.14454,-0.80078 0.0898,-1.17187 0.21875,-0.33594 0.51562,-0.58203 0.88672,-0.72657 0.0977,-0.0391 0.19922,-0.0547 0.30469,-0.0664 0.20312,-0.0195 0.34765,0.0898 0.41796,0.28515 0.0664,0.19922 0.0547,0.41016 0.0312,0.61719 -0.0117,0.15625 -0.0391,0.30469 -0.0625,0.45703 z m 0,0"
       fill-opacity="1"
       fill-rule="nonzero"
       id="path12093" />
    <path
       fill="#ffffff"
       d="m 172.34766,210.97656 c 0.10156,-0.24219 0.1914,-0.48047 0.30078,-0.71484 0.0469,-0.10547 0.13281,-0.19141 0.21093,-0.26953 0.13282,-0.125 0.28907,-0.13672 0.45313,-0.0508 0.19531,0.10156 0.32422,0.26171 0.43359,0.44921 0.1875,0.32032 0.31641,0.66407 0.27344,1.04297 -0.0391,0.38672 -0.21484,0.71485 -0.55469,0.92578 -0.41406,0.26954 -0.89453,0.10157 -1.09765,-0.37109 -0.0937,-0.24219 -0.11328,-0.48828 -0.0664,-0.73437 0.0156,-0.0898 0.0391,-0.17579 0.0625,-0.26172 -0.004,-0.0117 -0.0117,-0.0117 -0.0156,-0.0156 z m 0,0"
       fill-opacity="1"
       fill-rule="nonzero"
       id="path12095" />
    <path
       fill="#ffffff"
       d="m 175.00391,213.53906 c -0.11329,0.46094 -0.375,0.77735 -0.81641,0.90625 -0.48828,0.15235 -0.89063,-0.17578 -0.875,-0.68359 0.004,-0.19922 0.0625,-0.39063 0.17187,-0.5625 0.1836,-0.28516 0.41016,-0.53125 0.69532,-0.71875 0.082,-0.0508 0.17187,-0.0937 0.26562,-0.11719 0.1836,-0.0508 0.33594,0.0195 0.4336,0.17969 0.14453,0.22656 0.16406,0.48437 0.15625,0.74219 -0.008,0.0937 -0.0234,0.18359 -0.0312,0.2539 z m 0,0"
       fill-opacity="1"
       fill-rule="nonzero"
       id="path12097" />
    <path
       fill="#ffffff"
       d="m 169.88281,212.69531 c -0.0625,0.11719 -0.10937,0.24219 -0.18359,0.34375 -0.22266,0.30469 -0.61328,0.35547 -0.91406,0.125 -0.36719,-0.27734 -0.51954,-0.78125 -0.39063,-1.24609 0.0742,-0.2461 0.18359,-0.47266 0.36719,-0.66406 0.0508,-0.0547 0.11328,-0.10547 0.18359,-0.15235 0.1836,-0.12109 0.35938,-0.0977 0.51172,0.0508 0.0469,0.0391 0.0859,0.0859 0.11719,0.13672 0.21484,0.3711 0.33203,0.76563 0.32031,1.19531 0,0.0703 -0.0195,0.13672 -0.0312,0.20704 0.008,0 0.0117,0 0.0195,0.004 z m 0,0"
       fill-opacity="1"
       fill-rule="nonzero"
       id="path12099" />
    <path
       fill="#00b4f1"
       d="m 218.96094,166.44922 c -0.0508,-0.10938 -0.10938,-0.21094 -0.16016,-0.31641 z m 0,0"
       fill-opacity="1"
       fill-rule="nonzero"
       id="path12101" />
    <path
       fill="#00b4f1"
       d="m 159.59766,208.51953 c -0.14063,-0.48047 -0.21485,-0.76562 -0.21485,-0.76562 z m 0,0"
       fill-opacity="1"
       fill-rule="nonzero"
       id="path12103" />
    <path
       fill="#00b4f1"
       d="m 221,173.92969 c 0.008,0.15625 0.008,0.30859 0,0.46484 z m 0,0"
       fill-opacity="1"
       fill-rule="nonzero"
       id="path12105" />
    <path
       fill="#00b4f1"
       d="m 219.65234,182.99219 c 0,0 -0.40625,0.73828 -1.26953,1.98437 z m 0,0"
       fill-opacity="1"
       fill-rule="nonzero"
       id="path12107" />
    <path
       fill="#00b4f1"
       d="m 206.30859,236.36719 c -0.66406,-0.50391 -2.04297,-1.99219 -0.35547,-4.80078 2.14454,-3.57422 11.96485,-7.57813 18.72657,1.71875 z m 0,0"
       fill-opacity="1"
       fill-rule="nonzero"
       id="path12109" />
    <path
       fill="#00b4f1"
       d="m 220.87109,176.60156 c -0.125,-0.16015 -0.1914,-0.23828 -0.1914,-0.23828 z m 0,0"
       fill-opacity="1"
       fill-rule="nonzero"
       id="path12111" />
    <path
       fill="#00b4f1"
       d="m 211.74609,227.89062 c -2.35156,-2.95703 -3.60156,-5.6914 -4.10156,-8.1875 z m 0,0"
       fill-opacity="1"
       fill-rule="nonzero"
       id="path12113" />
    <path
       fill="#00b4f1"
       d="m 215.80859,203.68359 c 0,0 -3.34375,1.97657 -5.82031,5.5586 z m 0,0"
       fill-opacity="1"
       fill-rule="nonzero"
       id="path12115" />
    <path
       fill="#00b4f1"
       d="m 207.65234,219.71094 c -1.83593,7.46875 -4.03906,14.75781 -6.03125,16.65625 z m 0,0"
       fill-opacity="1"
       fill-rule="nonzero"
       id="path12117" />
    <path
       fill="#00b4f1"
       d="m 211.60156,200.96484 c 0,0 -0.61719,3.48438 -1.61328,8.27735 z m 0,0"
       fill-opacity="1"
       fill-rule="nonzero"
       id="path12119" />
    <path
       fill="#f99b28"
       d="m 244.08984,204.51172 c -1.39453,-3.89453 -3.45312,-7.46485 -5.72265,-10.19922 -1.0586,-1.26953 -2.16407,-2.36328 -3.26172,-3.21484 -6.96094,-5.41797 -13.10156,-13.05469 -14.23438,-14.4961 -0.3164,2.81641 -1.18359,5.75391 -2.49218,8.375 0,0.008 -0.008,0.008 -0.008,0.008 -9.53515,19.13282 -42.09765,35.47657 -49.30078,35.47657 -5.59765,0 -8.67969,-9.19532 -9.47265,-11.94141 -0.0703,-0.0391 -0.14063,-0.0859 -0.20704,-0.12891 -1.45312,-0.90625 -3.15625,-2.09375 -5.1875,-3.75781 -1.38281,-1.13281 -2.71484,-2.38672 -3.96093,-3.67187 1.53125,2.89843 10.71093,20.67187 10.57812,30.10156 0,0 -1.30469,0.71094 -1.7539,2.71875 -0.57422,2.57422 0.42187,3.05859 2.35546,3.05859 4,0 13.07813,0 13.07813,0 0,0 4.63281,1.20703 1.78125,-15.5039 0.98828,0.4375 2.29297,0.86328 3.94922,1.11328 2.35547,0.35547 5.44922,0.3789 9.42187,-0.34766 v 9.75391 c -2.85937,4.0039 0,4.98437 0,4.98437 0,0 6.4336,0 11.00782,0 0.30859,0 0.6289,-0.16406 0.95312,-0.47265 h 4.6875 c 0.18359,0.13672 0.30859,0.20703 0.30859,0.20703 18.96485,0.85547 27.91797,0.28515 35.92579,-10.8711 4.41406,-6.14062 4.05078,-14.1914 1.55468,-21.1914 z m 0,0"
       fill-opacity="1"
       fill-rule="nonzero"
       id="path12121" />
    <path
       fill="#00b4f1"
       d="m 176.28516,221.33594 c -0.0234,-0.14844 -0.0469,-0.30469 -0.0742,-0.46094 z m 0,0"
       fill-opacity="1"
       fill-rule="nonzero"
       id="path12123" />
    <path
       fill="#00b4f1"
       d="m 150.24219,200.96094 c -0.13672,-0.26563 -0.21875,-0.40625 -0.21875,-0.40625 z m 0,0"
       fill-opacity="1"
       fill-rule="nonzero"
       id="path12125" />
    <path
       fill="#f9a528"
       d="m 244.08984,204.51172 c -1.39453,-3.89453 -3.45312,-7.46485 -5.72265,-10.19922 0,0 2.67578,-0.35547 3.125,-3.125 0.5039,-3.05859 4.43359,-5.19922 5.47656,5.14844 0.21484,2.05468 -0.46875,5.45312 -2.87891,8.17578 z m 0,0"
       fill-opacity="1"
       fill-rule="nonzero"
       id="path12127" />
    <path
       fill="#f98628"
       d="m 189.65234,231.85547 c -2.85937,4.0039 0,4.98437 0,4.98437 h -7.36328 c 0,0 -2.51562,-0.0625 -2.45703,-2.13281 0.0625,-1.98828 2.02734,-4.49609 2.02734,-4.49609 l -1.63281,-7.76172 c 2.35547,0.35547 5.44531,0.3789 9.42188,-0.34766 z m 0,0"
       fill-opacity="1"
       fill-rule="nonzero"
       id="path12129" />
    <path
       fill="#102770"
       d="m 156.20703,156.86719 c -6.42187,0 -11.52734,2.48437 -10.38281,7.34375 1.09765,4.67578 7.375,8.70703 11.38672,8.86328 0.082,0.004 0.16015,0.004 0.23437,0.004 5.53125,0 11.14844,-4.05859 11.14844,-8.96093 0,-4.89844 -5.96875,-7.25 -12.38672,-7.25 z m 0,0"
       fill-opacity="1"
       fill-rule="nonzero"
       id="path12131" />
    <path
       fill="#ffffff"
       d="m 158.92187,161.54297 c 0,1.3125 -2.17187,2.38281 -4.85546,2.38281 -2.67579,0 -4.84766,-1.0625 -4.84766,-2.38281 0,-1.31641 2.17187,-2.38281 4.84766,-2.38281 2.68359,0 4.85546,1.0664 4.85546,2.38281 z m 0,0"
       fill-opacity="1"
       fill-rule="nonzero"
       id="path12133" />
    <path
       fill="#00b4f1"
       d="m 212.72266,183.60937 c -0.0234,0.26954 -0.0469,0.40625 -0.0469,0.40625 z m 0,0"
       fill-opacity="1"
       fill-rule="nonzero"
       id="path12135" />
    <path
       fill="#102770"
       d="m 223.87891,179.24609 c -0.0352,0.0898 -0.0625,0.17578 -0.0937,0.25782 -3.39063,9.78515 -7.92188,17.21484 -13.03907,22.98828 -9.125,10.30859 -20.08203,15.32031 -29.64062,18.98437 -0.47656,-0.0391 -0.92188,-0.0977 -1.34766,-0.16015 l 0.13672,0.625 c -1.20703,0.44921 -2.39062,0.89062 -3.53906,1.3164 -0.92578,0.33985 -1.83594,0.67969 -2.72266,1.01172 -2.52344,0.94922 -8.8125,2.88281 -11.02344,-1.97266 -1.90234,-4.17187 -4.5039,-7.17578 -6.57031,-9.07421 -2.86328,-7.03125 -6.11719,-13.04297 -6.29297,-13.36719 1.23828,1.22265 2.59375,2.46484 4.04688,3.65625 2.02344,1.66406 3.72656,2.84765 5.17969,3.75 0,0 3.10937,12.07031 9.6875,12.07031 7.5664,0 43.14843,-18.05078 50.57031,-38.42187 0.004,-0.008 0.004,-0.008 0.004,-0.008 0.92188,-2.51953 1.40625,-5.07031 1.35547,-7.63281 -0.0273,-1.78125 -0.32422,-3.56641 -0.91406,-5.33984 0.44531,-0.74219 1.10938,-1.33594 1.91016,-1.6875 0.21093,-0.0977 0.43359,-0.17188 0.65625,-0.22657 h 0.004 c 0.32813,-0.0859 0.66407,-0.125 1.01953,-0.125 0.71875,0 1.40235,0.17969 1.98829,0.50782 0.19531,0.10156 0.38281,0.22265 0.55468,0.35937 -0.57031,1.17969 -0.63281,2.46485 0.0547,3.80469 0.0195,0.0508 0.043,0.0977 0.0742,0.14844 0.23437,0.42187 0.50781,0.78906 0.82031,1.08593 -0.58594,0.27344 -4.09765,2.96875 -4.30469,3.80469 -0.24609,1.03516 0.28125,2.39844 1.42579,3.64453 z m 0,0"
       fill-opacity="0.298"
       fill-rule="nonzero"
       id="path12137" />
    <path
       fill="#102770"
       d="m 242.25391,225.11719 c -7.90625,13.29687 -13.10547,11.05468 -32.30469,11.05468 -0.79297,0 -1.22266,-0.32031 -1.3711,-0.8125 -0.3789,-1.22265 0.96485,-3.51562 2.88282,-4.74218 1.16015,-0.73828 0.76953,-1.2461 0.76953,-1.2461 -3.05078,-3.73437 -4.47656,-7.17968 -4.8711,-10.25 -0.36718,-2.80859 0.13282,-5.30859 1.03125,-7.44922 0.13672,6.07422 2.65235,18.44922 18.48438,18.44922 19.80859,0 15.60547,-28.61328 15.52734,-29.16015 3.2461,7.42968 4.24219,16.76953 -0.14843,24.15625 z m 0,0"
       fill-opacity="0.298"
       fill-rule="nonzero"
       id="path12139" />
    <path
       fill="#102770"
       d="m 216.76953,156.86719 c 0.75391,3.28906 9.16797,13.84765 -8.86719,32.47265 -11.13281,11.5 -30.875,17.16016 -37.44922,17.16016 -6.57421,0 -8.86328,-1.14063 -26.58593,-13.72656 -0.53125,-0.37891 -1.03907,-0.76172 -1.52735,-1.13672 -9.9414,-7.89063 -10.07812,-16.9961 -8.5,-23.4375 -0.75,13.48828 12.40625,25.8789 30.85157,26.43359 0,-0.008 58.36718,1.95703 52.07812,-37.76562 z m 0,0"
       fill-opacity="0.298"
       fill-rule="nonzero"
       id="path12141" />
    <path
       fill="#102770"
       d="m 192.89453,188.83203 c -1.57031,0.86328 -3.57422,-0.0117 -4.79687,-1.23047 -1.22266,-1.22265 -6.21094,-4.45703 -6.21094,-4.45703 -10.4336,8.48438 -20.4375,2.24609 -20.4375,2.24609 -16.4375,2.42969 -17.59375,-15.61718 -17.59375,-15.61718 1.99609,11.54687 13.89844,12.6875 17.48047,11.07422 1.74609,1.32812 4.23047,2.29296 7.73828,2.29296 5.10156,0 8.70312,-2.39062 11.23437,-5.51562 6.01563,-0.39453 7.85157,6.75781 12.4961,6.25391 1.01172,-0.10938 1.92968,-0.97657 2.5664,-2.1836 1.19532,3.92188 -1.19531,6.42578 -2.47656,7.13672 z m 0,0"
       fill-opacity="0.298"
       fill-rule="nonzero"
       id="path12143" />
    <path
       fill="#102770"
       d="m 185.55469,166.76562 c -0.14844,0.65625 -0.33985,1.41016 -0.57813,2.23438 -0.83594,2.85937 -2.27734,6.48047 -4.67578,9.44922 -2.53516,3.125 -6.12891,5.51562 -11.23828,5.51562 -3.50781,0 -5.98828,-0.96875 -7.73828,-2.29297 -3.57422,1.61329 -15.46094,0.48047 -17.47266,-11.05078 2.41016,4.03125 6.84766,9.5625 14.73438,7.8711 0,0 0,0 0.004,0 0.25782,0.1289 17.27344,8.41797 26.96485,-11.72657 z m 0,0"
       fill-opacity="0.298"
       fill-rule="nonzero"
       id="path12145" />
    <path
       fill="#102770"
       d="m 177.78906,231.83203 c -0.16406,6.375 -2.76562,5.46094 -2.76562,5.46094 0,0 -9.07422,0 -13.08203,0 -1.9336,0 -2.92969,-0.48438 -2.35547,-3.0586 0.44531,-2.00781 1.7539,-2.71875 1.7539,-2.71875 0.0508,-3.78125 -1.37109,-8.84375 -3.19531,-13.73828 1.28125,3.16797 7.07031,15.37891 19.64453,14.05469 z m 0,0"
       fill-opacity="0.298"
       fill-rule="nonzero"
       id="path12147" />
    <path
       fill="#102770"
       d="m 204.28516,230.67578 c -0.8086,2.24219 -1.625,4.01563 -2.41407,5.01563 -0.45703,0.57812 -0.90234,0.89453 -1.33984,0.89453 -4.57031,0 -11.00391,0 -11.00391,0 0,0 -2.85937,-0.98438 0,-4.98828 v -9.75 c 1.3086,-0.23438 2.71485,-0.55469 4.21875,-0.97266 0,-0.004 0.90235,10.21094 10.53907,9.80078 z m 0,0"
       fill-opacity="0.298"
       fill-rule="nonzero"
       id="path12149" />
    <path
       fill="#102770"
       d="m 247.53125,162.3125 c -0.76172,5.16016 -2.28125,17.78516 -10.44531,20.46875 -8.6875,2.85156 -14.90235,-3.17969 -14.15625,-6.26563 0.0547,-0.23437 0.37109,-0.61718 0.80468,-1.03906 3.1836,2.98438 14.46485,11.09766 23.79688,-13.16406 z m 0,0"
       fill-opacity="0.298"
       fill-rule="nonzero"
       id="path12151" />
    <path
       fill="#102770"
       d="m 238.36719,172.88281 c -1.99219,3.32422 -7.89063,4.78906 -10.69922,0.82031 -0.0703,-0.0625 -0.14453,-0.125 -0.21094,-0.19531 -0.15625,-0.14844 -0.29687,-0.30469 -0.43359,-0.48047 -0.13672,-0.18359 -0.27735,-0.38281 -0.39063,-0.60156 -0.0273,-0.043 -0.0508,-0.0977 -0.0742,-0.14844 -0.6875,-1.33593 -0.62109,-2.625 -0.0508,-3.80468 0.0625,-0.13672 0.57031,-0.71485 0.65235,-0.84375 1.61328,6.44531 7.99218,6.16406 11.20703,5.2539 z m 0,0"
       fill-opacity="0.298"
       fill-rule="nonzero"
       id="path12153" />
    <path
       fill="#ffffff"
       d="m 173.58594,219.49219 c 0,0 5.34765,5.76172 18.26172,1.84375 0,0 -1.19532,-6.00782 -7.10157,-6.75 0,0 -7.58593,3.42578 -11.16015,4.90625 z m 0,0"
       fill-opacity="1"
       fill-rule="nonzero"
       id="path12155" />
    <path
       fill="#ffffff"
       d="m 205.91406,225.91797 c -1.3164,4.57812 -2.71484,8.44531 -4.04297,10.1289 -0.45703,0.57813 -0.90234,0.89844 -1.33984,0.89844 -4.57031,0 -11.00391,0 -11.00391,0 0,0 -2.58593,-0.89453 -0.3789,-4.42969 0.1289,0.0586 0.2539,0.1211 0.3789,0.1836 0,0 3.44141,-4.53125 11.0625,0 0,0 4.54688,-4.12891 5.32422,-6.78125 z m 0,0"
       fill-opacity="1"
       fill-rule="nonzero"
       id="path12157" />
    <path
       fill="#ffffff"
       d="m 174.375,236.94531 c 0,0 -9.07422,0 -13.08203,0 -1.9375,0 -2.92578,-0.48828 -2.35547,-3.0625 0.21875,-0.97265 0.63672,-1.63281 1.00781,-2.0625 2.6875,-0.98437 7.15235,-1.57422 13.51172,0.83594 0,0 2.35938,-2.00781 3.56641,-4.73828 0.82812,10.25 -2.64844,9.02734 -2.64844,9.02734 z m 0,0"
       fill-opacity="1"
       fill-rule="nonzero"
       id="path12159" />
    <path
       fill="#ffffff"
       d="m 189.52734,236.94531 h -7.36328 c 0,0 -2.52344,-0.0625 -2.46094,-2.13281 0.0547,-1.57422 1.28125,-3.46875 1.80079,-4.1875 1.71484,-0.0703 4.28515,0.26953 7.64062,1.89844 -2.20312,3.52734 0.38281,4.42187 0.38281,4.42187 z m 0,0"
       fill-opacity="1"
       fill-rule="nonzero"
       id="path12161" />
    <path
       fill="#ffffff"
       d="m 231.39453,236.08203 c -4.80078,1.41016 -11.05469,0.77734 -21.27734,0.77734 -2.7461,0 -1.19141,-3.83203 1.50781,-5.55078 0.40625,-0.2539 0.625,-0.49218 0.73047,-0.67968 4.2539,-0.9375 11.68359,-1.14844 19.03906,5.45312 z m 0,0"
       fill-opacity="1"
       fill-rule="nonzero"
       id="path12163" />
    <path
       fill="#ffffff"
       d="m 216.43359,204.51172 c 0,0 -5.79687,7.84765 -7.75781,11.28125 0,0 0.32422,-8.16406 7.75781,-11.28125 z m 0,0"
       fill-opacity="0.6"
       fill-rule="nonzero"
       id="path12165" />
    <path
       fill="#ffffff"
       d="m 220.9375,176.48437 c 0,0 7.58984,8.89844 12.51172,13.36719 4.92187,4.46094 8.96875,11.21485 8.96875,11.21485 0,0 -17.73438,-12.53907 -21.48047,-24.58204 z m 0,0"
       fill-opacity="0.6"
       fill-rule="nonzero"
       id="path12167" />
    <path
       fill="#ffffff"
       d="m 237.67969,147.71484 c 0,0 0.004,3.33985 -4.28907,4.72657 -5.00781,1.61328 -10.91796,4.13671 -11.14453,13.57812 0,0 -2.53515,-2 -1.375,-5.26562 1.16016,-3.26954 3.26953,-7.98829 8.86719,-9.59375 3.03516,-0.875 7.58594,-1.79688 7.94141,-3.44532 z m 0,0"
       fill-opacity="0.6"
       fill-rule="nonzero"
       id="path12169" />
    <path
       fill="#ffffff"
       d="m 247.5,160.96875 c 0,0 -0.10156,4 -12.96484,4.92578 0,0 -9.36719,0.56641 -7.64844,6.57422 1.71484,6.00391 -0.12891,0.41406 -0.12891,0.41406 0,0 -4.94531,-7.21094 7.27344,-10.14062 0.008,-0.004 11.14453,0.24609 13.46875,-1.77344 z m 0,0"
       fill-opacity="0.6"
       fill-rule="nonzero"
       id="path12171" />
    <path
       fill="#ffffff"
       d="m 146.27344,97.390625 c 0,0 -14.62891,-1.214844 -11.0625,23.847655 -0.004,0 -4.875,-21.847655 11.0625,-23.847655 z m 0,0"
       fill-opacity="0.6"
       fill-rule="nonzero"
       id="path12173" />
    <path
       fill="#ffffff"
       d="m 186.50781,118.875 c 0,0 -0.43359,-26.769531 13.36328,-25.917969 0,0 -10.37109,-4.542969 -13.36328,8.539059 -2.42969,10.61719 0,17.37891 0,17.37891 z m 0,0"
       fill-opacity="0.6"
       fill-rule="nonzero"
       id="path12175" />
    <path
       fill="#ffffff"
       d="m 185.35156,118.96094 c -14.84765,-0.38281 -30.51172,4.54297 -36.70312,13.28906 -7.28516,10.28906 -7.86719,17.99219 -7.96094,18.26172 0.30469,-1.51953 0.53906,-3.32813 0.65234,-5.52344 0.0742,-1.48437 0.24219,-2.85156 0.46875,-4.10156 0.82813,-4.64063 2.48047,-7.74219 3.72266,-9.50391 0.86719,-1.24609 1.52734,-1.83594 1.52734,-1.83594 3.03125,-3.61328 6.76953,-6.10937 10.71485,-7.81249 2.91406,-1.25782 5.94922,-2.08594 8.89062,-2.6211 9.67188,-1.73047 18.34766,-0.21094 18.6875,-0.15234 z m 0,0"
       fill-opacity="0.6"
       fill-rule="nonzero"
       id="path12177" />
    <path
       fill="#ffffff"
       d="m 218.49219,175.86328 c -12.25782,27.82031 -44.90625,32.65625 -49.89844,32.65625 -10.45703,0 -26.4375,-16.88281 -26.4375,-16.88281 0.48828,0.38281 0.99219,0.75781 1.52344,1.13672 17.72265,12.58593 20.01172,13.72656 26.58593,13.72656 6.57422,0 25.44141,-6.57813 37.44922,-17.16016 5.88672,-5.1875 9.22657,-9.40625 10.77735,-13.47656 z m 0,0"
       fill-opacity="0.6"
       fill-rule="nonzero"
       id="path12179" />
    <g
       clip-path="url(#8e33e67525)"
       id="g12183">
      <path
         fill="#102770"
         d="m 232.55078,184.97656 c -3.6875,0 -6.68359,-1.4414 -8.53125,-3.15234 -1.8125,-1.67578 -2.66406,-3.64844 -2.26953,-5.26563 0.25781,-1.0664 2.375,-2.78125 3.75781,-3.78125 -0.0586,-0.0937 -0.11719,-0.1914 -0.16797,-0.28906 l -0.0156,-0.0273 c -0.0273,-0.0508 -0.0586,-0.10938 -0.0859,-0.16016 -0.80078,-1.57422 -0.81641,-3.23828 -0.0508,-4.81641 1.93359,-3.95703 8.36328,-6.46484 13.19531,-6.32031 0.0273,0 0.0586,0 0.0859,0 h 0.0625 c 5.30078,0.14453 7.13672,-0.95703 7.26562,-1.04297 0.54297,-0.42578 1.38672,-0.74218 2.11719,-0.32031 1.03516,0.60156 0.82422,1.98828 0.75,2.4375 -0.0547,0.34375 -0.10937,0.73438 -0.17187,1.16406 -0.84766,5.83203 -2.60938,17.97266 -11.13282,20.76953 -1.6875,0.56641 -3.3125,0.80469 -4.80859,0.80469 z m -8.59375,-7.80859 c -0.10156,0.64062 0.34766,1.8125 1.61328,2.98047 2.1211,1.96093 6.15235,3.48437 11.08594,1.85937 7.17969,-2.36328 8.80469,-13.55078 9.58203,-18.92578 0.0352,-0.23828 0.0625,-0.45312 0.0977,-0.66016 -1.13672,0.49219 -3.5,1.15625 -7.84375,1.03516 -0.0312,0 -0.0586,0 -0.0859,0 h -0.0703 c -4.44532,-0.13281 -9.73438,2.26563 -11.08594,5.03516 -0.45703,0.92968 -0.44141,1.83984 0.0391,2.77734 l 0.0195,0.0352 c 0.0117,0.0312 0.0273,0.0586 0.0469,0.0859 0.16797,0.3086 0.375,0.58594 0.60547,0.8086 l 1.20703,1.14844 -1.50391,0.71093 c -0.59765,0.3086 -3.26562,2.42578 -3.70703,3.10938 z m 0,0"
         fill-opacity="1"
         fill-rule="nonzero"
         id="path12181" />
    </g>
    <path
       fill="#102770"
       d="m 238.09766,173.02344 c -0.47657,0.98047 -1.1836,1.86718 -2.08594,2.58984 -0.90625,0.71094 -2.01563,1.24609 -3.24219,1.41406 -0.30859,0.0195 -0.61719,0.0742 -0.93359,0.0625 l -0.47266,-0.0234 -0.24219,-0.0117 c -0.0781,-0.0117 -0.15234,-0.0273 -0.23437,-0.0391 -0.3086,-0.0625 -0.63281,-0.10937 -0.92578,-0.23046 -0.29688,-0.11329 -0.61328,-0.20704 -0.87891,-0.3711 -1.12891,-0.58984 -2.04687,-1.5 -2.64453,-2.52734 -0.3125,-0.55078 -0.125,-1.25391 0.42578,-1.57031 0.46875,-0.26563 1.04688,-0.16797 1.39844,0.20312 l 0.043,0.043 c 0.63281,0.66406 1.24609,1.26172 1.96093,1.67187 0.70313,0.41797 1.49219,0.69922 2.35938,0.73829 0.87109,0.0469 1.78906,-0.14454 2.67187,-0.51954 0.89063,-0.375 1.73829,-0.93359 2.53125,-1.62109 0.0703,-0.0625 0.17579,-0.0508 0.23438,0.0195 0.0586,0.0391 0.0625,0.11328 0.0352,0.17188 z m 0,0"
       fill-opacity="1"
       fill-rule="nonzero"
       id="path12185" />
    <path
       fill="#102770"
       d="m 222.65234,168.38672 c -0.15234,0 -0.30859,-0.0273 -0.45703,-0.0937 l -0.0273,-0.0117 c -0.0508,-0.0234 -0.0977,-0.0469 -0.14844,-0.0703 -2.04297,-0.94922 -3.00781,-3.1875 -2.66016,-6.14844 0.56641,-4.78906 4.4961,-10.78906 8.89844,-11.65234 5.08594,-1 7.75391,-3.16407 8.05078,-3.42188 0.39844,-0.41016 1.03907,-0.76172 1.72657,-0.55859 0.43359,0.125 0.98828,0.49609 1.15234,1.53906 0.0352,0.21094 0.0742,0.44922 0.12109,0.71875 0.49219,2.94141 1.51563,9.0625 0.3086,13.90234 -0.15235,0.60938 -0.77344,0.98047 -1.39063,0.82813 -0.60937,-0.15625 -0.98047,-0.77344 -0.82812,-1.39063 1.07031,-4.26562 0.17187,-9.89062 -0.3086,-12.7539 -1.26172,0.89062 -4.03125,2.51953 -8.38281,3.3789 -3.35547,0.66407 -6.60937,5.83594 -7.06641,9.67969 -0.16406,1.37891 -0.0625,3.15234 1.35547,3.80859 l 0.1211,0.0586 c 0.57812,0.25 0.83984,0.92578 0.58984,1.50781 -0.19141,0.42969 -0.61328,0.67969 -1.05469,0.67969 z m 0,0"
       fill-opacity="1"
       fill-rule="nonzero"
       id="path12187" />
    <path
       fill="#102770"
       d="m 231.21484,157.50391 c -0.58593,0.8125 -0.99609,1.65625 -1.25781,2.55468 -0.26953,0.89453 -0.41797,1.82422 -0.5625,2.79297 -0.15234,0.96485 -0.25,1.98438 -0.64062,3.07813 -0.0977,0.27343 -0.21485,0.54687 -0.3711,0.82812 -0.0703,0.13672 -0.16015,0.28125 -0.25,0.41797 -0.0977,0.13672 -0.20312,0.26953 -0.3164,0.39844 -0.45313,0.52734 -1.10938,0.95312 -1.77344,1.125 -0.60938,0.15234 -1.23438,-0.21875 -1.38672,-0.83203 -0.12891,-0.49219 0.0898,-0.98828 0.49609,-1.2461 l 0.1211,-0.0742 c 0.26953,-0.17187 0.45703,-0.33593 0.64453,-0.57421 0.18359,-0.23829 0.35937,-0.5625 0.51953,-0.94141 0.32812,-0.76563 0.61719,-1.71484 0.95703,-2.67578 0.33594,-0.96875 0.75,-1.96485 1.32422,-2.875 0.58594,-0.90625 1.36328,-1.70313 2.26953,-2.21875 0.082,-0.043 0.18359,-0.0156 0.23047,0.0625 0.0391,0.0586 0.0352,0.1289 -0.004,0.17969 z m 0,0"
       fill-opacity="1"
       fill-rule="nonzero"
       id="path12189" />
    <path
       fill="#102770"
       d="m 223.67187,176.60937 c -2.92578,0 -5.3125,-2.38671 -5.3125,-5.3164 0,-2.10547 1.2461,-4.01953 3.17579,-4.86719 0.67187,-0.29687 1.39453,-0.45312 2.14062,-0.45312 1.19141,0 2.3125,0.38671 3.25,1.11328 0.49609,0.38672 0.58984,1.10156 0.19922,1.60547 -0.39063,0.49609 -1.10547,0.58984 -1.60547,0.19921 -0.53125,-0.41015 -1.16797,-0.6289 -1.84375,-0.6289 -0.42187,0 -0.83203,0.0859 -1.21484,0.25781 -1.10547,0.48828 -1.8125,1.57422 -1.8125,2.77344 0,1.67187 1.35937,3.02734 3.02343,3.02734 0.62891,0 1.14454,0.51563 1.14454,1.14453 0,0.63282 -0.51172,1.14453 -1.14454,1.14453 z m 0,0"
       fill-opacity="1"
       fill-rule="nonzero"
       id="path12191" />
    <path
       fill="#102770"
       d="m 169.92578,207.21094 c -6.89844,0 -9.44922,-1.30469 -27.24609,-13.94141 -7.34375,-5.21484 -11.13282,-11.67969 -11.25391,-19.22266 -0.0977,-6.05468 2.21875,-11.15625 3.33203,-13.60546 0.15625,-0.33985 0.28906,-0.62891 0.38672,-0.85547 0.42188,-1.01953 0.98828,-1.85547 1.58203,-2.73438 1.4961,-2.20703 3.35547,-4.96094 3.76172,-12.62109 0.55859,-10.66016 5.36328,-15.54688 6.03125,-16.17578 5.42578,-6.44531 13.95703,-10.375 24.67188,-11.36328 5.87109,-0.54688 10.85156,-0.082 13.21093,0.22656 -0.76953,-10.98828 0.82032,-18.722658 4.74219,-23.000001 2.81641,-3.070313 5.82031,-3.105469 5.94531,-3.105469 6.64453,0.0039 11.85157,4.609375 15.4961,13.67578 2.82422,7.04297 3.94531,15.02735 4.41797,18.44141 l 0.0859,0.61328 c 0.28125,1.96094 0.49219,5.53515 0.75391,10.0664 0.55078,9.32032 1.29687,22.07422 3.20703,28.3711 2.82031,9.30078 1.91016,16.48828 -10.91406,27.78906 -11.90235,10.48438 -30.87891,17.44141 -38.21094,17.44141 z m 6.85156,-88.45703 c -8.39453,0 -20.92578,1.72265 -28.55468,10.82812 l -0.11329,0.12109 c -0.0469,0.0391 -4.79687,4.45704 -5.33203,14.64844 -0.4375,8.29688 -2.5,11.33985 -4.15234,13.78125 -0.55469,0.81641 -1.03125,1.51953 -1.36719,2.32813 -0.10156,0.24609 -0.24609,0.55468 -0.41015,0.92578 -2.11719,4.66406 -8.56641,18.85547 7.16406,30.01953 17.97265,12.76562 19.8164,13.51562 25.92187,13.51562 6.1875,0 24.8125,-6.40625 36.69532,-16.875 11.96484,-10.54687 12.83593,-16.83203 10.23828,-25.40625 -1.98828,-6.5625 -2.74219,-19.47265 -3.29688,-28.90625 -0.2539,-4.29296 -0.46875,-8.00781 -0.73828,-9.8789 l -0.0859,-0.61719 c -2.80859,-19.99609 -8.74218,-30.140624 -17.64843,-30.148436 -0.0781,0 -2.20704,0.07422 -4.32813,2.445312 -2.46484,2.753906 -5.16016,8.914064 -3.96484,22.625004 l 0.13281,1.49218 -1.47656,-0.26953 c -0.10938,-0.0117 -3.65235,-0.6289 -8.6836,-0.6289 z m 0,0"
       fill-opacity="1"
       fill-rule="nonzero"
       id="path12193" />
    <path
       fill="#102770"
       d="m 142.09375,141.33203 c -0.44531,0 -0.875,-0.26172 -1.05469,-0.70312 -0.54297,-1.3086 -13.22656,-32.25782 -1.19531,-42.402348 2.29687,-1.941406 4.88672,-2.640624 7.6875,-2.074218 10.28125,2.074218 20.03125,20.941406 20.43359,21.742186 0.28907,0.5625 0.0664,1.25391 -0.49609,1.53906 -0.55859,0.28907 -1.25,0.0664 -1.53906,-0.49609 -0.0977,-0.1875 -9.64844,-18.6875 -18.84766,-20.542969 -2.11719,-0.421875 -3.99609,0.09375 -5.76562,1.582031 -10.75782,9.070318 1.70312,39.468748 1.83593,39.769528 0.24219,0.58594 -0.0352,1.25391 -0.61718,1.4961 -0.14454,0.0625 -0.29297,0.0898 -0.44141,0.0898 z m 0,0"
       fill-opacity="1"
       fill-rule="nonzero"
       id="path12195" />
    <path
       fill="#102770"
       d="m 158.10937,182.52734 c -2.42968,0 -5.39843,-0.59375 -8.17187,-2.22265 -2.97656,-1.75 -6.63672,-5.31641 -7.16016,-12.32813 -0.34375,-4.53125 0.69141,-8.08203 3.07422,-10.55859 3.46485,-3.60547 8.4961,-3.5586 8.94141,-3.54297 h 11.60547 c 0.6289,0 1.14453,0.51562 1.14453,1.14453 0,0.62891 -0.51563,1.14453 -1.14453,1.14453 h -11.66797 c -0.0391,-0.004 -4.42578,-0.10156 -7.25,2.85547 -1.90235,1.98828 -2.72266,4.94141 -2.42969,8.78516 0.45313,6.03125 3.53906,9.05468 6.04297,10.52343 3.76953,2.22266 8.26953,2.25 10.07031,1.41407 0.57031,-0.26172 1.25,-0.0117 1.51563,0.5625 0.26172,0.57031 0.008,1.25 -0.5625,1.51562 -0.90235,0.42188 -2.32813,0.70703 -4.00782,0.70703 z m 0,0"
       fill-opacity="1"
       fill-rule="nonzero"
       id="path12197" />
    <path
       fill="#102770"
       d="m 169.35547,184.23828 c -12.17969,0 -13.04688,-10.875 -13.05078,-10.98047 -0.043,-0.6289 0.43359,-1.17969 1.0625,-1.21875 0.63281,-0.043 1.17187,0.4336 1.21875,1.0625 0.0273,0.36719 0.76562,8.84766 10.76953,8.84766 13.5,0 15.80469,-18.62891 15.82812,-18.81641 0.0742,-0.6289 0.63672,-1.08203 1.26563,-1.00781 0.6289,0.0742 1.07812,0.64062 1.00781,1.26953 -0.0234,0.21094 -0.62109,5.21094 -3.08594,10.28516 -3.35156,6.90234 -8.54297,10.55859 -15.01562,10.55859 z m 0,0"
       fill-opacity="1"
       fill-rule="nonzero"
       id="path12199" />
    <path
       fill="#102770"
       d="m 192.60937,185 c -2.39453,0 -4.10156,-1.60156 -5.7539,-3.15234 -1.80469,-1.69922 -3.51953,-3.30469 -6.19141,-3.13282 -0.63281,0.0391 -1.17187,-0.4375 -1.21875,-1.07031 -0.0391,-0.62891 0.4375,-1.17187 1.07031,-1.21875 3.67188,-0.24219 6.01563,1.97266 7.90625,3.74609 1.78125,1.67188 2.94532,2.6875 4.54297,2.51172 0.58594,-0.0625 1.25,-0.72265 1.74219,-1.71093 0.74219,-1.50391 1.07031,-3.88282 0.0469,-5.56641 -2.5625,-4.21094 -9.71094,-6.16406 -9.78516,-6.1875 -0.60938,-0.16797 -0.96875,-0.78906 -0.80469,-1.40234 0.16406,-0.61329 0.78906,-0.97266 1.40235,-0.8125 0.32812,0.0859 8.10546,2.21484 11.14062,7.20703 1.48047,2.4375 1.09375,5.65625 0.0508,7.76953 -0.85547,1.73828 -2.14844,2.82031 -3.54687,2.96875 -0.20703,0.0391 -0.40625,0.0508 -0.60157,0.0508 z m 0,0"
       fill-opacity="1"
       fill-rule="nonzero"
       id="path12201" />
    <path
       fill="#102770"
       d="m 206.61719,132.75781 c -0.39453,0 -0.77344,-0.20703 -0.98438,-0.5625 -4.20703,-7.07422 -12.01172,-10.0664 -12.09375,-10.09375 -0.42578,-0.16015 -0.71875,-0.5625 -0.74219,-1.01953 -0.0664,-1.55469 -0.58203,-15.3164 3.03516,-18.77344 0.71484,-0.67968 1.57813,-0.99609 2.5,-0.91015 1.89063,0.17969 4.41406,2.11328 7.13672,15.63281 1.44531,7.17578 2.26953,14.38672 2.27344,14.45703 0.0625,0.53516 -0.26172,1.03906 -0.76953,1.21094 -0.10938,0.0352 -0.23438,0.0586 -0.35547,0.0586 z m -11.5625,-12.5039 c 1.71484,0.75 6.14843,2.96093 9.85156,7.11328 -0.38281,-2.6875 -0.94922,-6.30078 -1.67578,-9.89844 -2.70313,-13.42187 -5.00781,-13.78516 -5.10547,-13.79297 -0.18359,-0.0156 -0.41016,0.008 -0.70703,0.28516 -2.07031,1.98047 -2.53906,10.73828 -2.36328,16.29297 z m 0,0"
       fill-opacity="1"
       fill-rule="nonzero"
       id="path12203" />
    <path
       fill="#102770"
       d="m 145.81641,131.82422 c -0.51563,0 -0.98438,-0.35547 -1.10938,-0.875 -0.043,-0.19531 -1.16406,-4.87109 -1.76953,-9.94141 -0.88672,-7.41406 -0.24609,-11.48047 2.02734,-12.79687 0.80469,-0.46094 1.72266,-0.56641 2.72266,-0.29688 4.76172,1.28125 10.70312,11.39063 11.36719,12.53907 0.3125,0.55078 0.125,1.24609 -0.41797,1.5625 -0.55078,0.3125 -1.2461,0.125 -1.5625,-0.41797 -0.0234,-0.0352 -2.0586,-3.5586 -4.57422,-6.71485 -3.36719,-4.23437 -5.51172,-5.19531 -6.39063,-4.6875 -2.1914,1.26563 -1.28125,11.48047 0.81641,20.21875 0.14844,0.60938 -0.22656,1.22656 -0.84375,1.375 -0.0859,0.0234 -0.17969,0.0352 -0.26562,0.0352 z m 0,0"
       fill-opacity="1"
       fill-rule="nonzero"
       id="path12205" />
    <path
       fill="#102770"
       d="m 160.12109,207.76562 c 0.70313,0.30469 1.35157,0.6875 2.01172,1.07422 0.66016,0.39063 1.30469,0.83203 1.95313,1.29297 0.64453,0.46485 1.29687,0.99219 1.86328,1.60156 0.55859,0.6211 1.02734,1.31641 1.33203,2.06641 0.0273,0.0742 -0.008,0.16016 -0.082,0.19531 -0.0508,0.0234 -0.10938,0.0117 -0.14844,-0.0234 -0.59766,-0.50782 -1.20703,-0.94922 -1.85156,-1.30469 -0.64063,-0.36719 -1.3086,-0.65625 -2.00781,-0.96094 -0.69532,-0.30469 -1.41797,-0.59375 -2.11329,-0.96094 -0.69921,-0.36718 -1.38281,-0.76562 -2.0039,-1.26953 -0.4336,-0.35547 -0.4961,-0.98828 -0.14844,-1.41797 0.29297,-0.35937 0.77734,-0.46484 1.18359,-0.29297 z m 0,0"
       fill-opacity="1"
       fill-rule="nonzero"
       id="path12207" />
    <path
       fill="#102770"
       d="m 159.25391,209.55078 c -0.20704,0 -0.41797,-0.0586 -0.60547,-0.17578 -1.71094,-1.08203 -3.40235,-2.30859 -5.16407,-3.75391 -7.48046,-6.13672 -12.40625,-13.47656 -12.61328,-13.78515 -0.34765,-0.52735 -0.20703,-1.23438 0.31641,-1.58594 0.52344,-0.34766 1.23437,-0.21094 1.58203,0.31641 0.0508,0.0742 4.95703,7.37109 12.16016,13.28515 1.6875,1.38672 3.30468,2.56641 4.93359,3.58985 0.53516,0.33593 0.69531,1.03906 0.36328,1.57812 -0.22265,0.34375 -0.59765,0.53125 -0.97265,0.53125 z m 0,0"
       fill-opacity="1"
       fill-rule="nonzero"
       id="path12209" />
    <path
       fill="#102770"
       d="m 169.07031,221.70703 c -7.375,0 -10.65625,-12.40234 -10.78906,-12.92969 -0.16016,-0.60937 0.21094,-1.23437 0.82422,-1.39453 0.60937,-0.16015 1.23437,0.21094 1.39453,0.82422 0.80469,3.11719 3.92187,11.21094 8.57422,11.21094 3.08203,0 12.07812,-3.5625 21.79687,-9.53125 6.66797,-4.09375 18.79688,-12.4961 25.10547,-22.81641 4.41797,-7.23437 5.07813,-14.0039 1.94922,-20.11719 -0.28516,-0.5625 -0.0625,-1.2539 0.49609,-1.53906 0.5625,-0.28515 1.25391,-0.0625 1.53907,0.4961 3.51562,6.87109 2.83203,14.39453 -2.03516,22.35546 -6.55859,10.72657 -19.01562,19.375 -25.85937,23.57422 -9.32032,5.71485 -18.98829,9.86719 -22.9961,9.86719 z m 0,0"
       fill-opacity="1"
       fill-rule="nonzero"
       id="path12211" />
    <path
       fill="#102770"
       d="m 220.53906,182.59766 c -0.24609,0.48437 -0.48047,0.90234 -0.73828,1.33203 -0.25781,0.42187 -0.51953,0.83984 -0.79297,1.25781 -0.54297,0.83203 -1.10937,1.63281 -1.71094,2.41406 -1.19531,1.56641 -2.47656,3.0625 -3.83593,4.47266 -2.71485,2.83984 -5.73047,5.37109 -8.94141,7.60547 -1.60937,1.11328 -3.25391,2.17187 -4.95312,3.13281 -0.83594,0.50391 -1.71094,0.94531 -2.56641,1.39453 -0.43359,0.22266 -0.875,0.42969 -1.31641,0.64063 -0.4375,0.21093 -0.875,0.42968 -1.32031,0.625 -3.53906,1.61328 -7.21484,2.91015 -10.96094,3.88281 -0.0742,0.0195 -0.15234,-0.0273 -0.17187,-0.10156 -0.0156,-0.0742 0.0234,-0.14454 0.0937,-0.17188 3.625,-1.31641 7.14062,-2.87109 10.51953,-4.66406 0.42969,-0.21485 0.83984,-0.45703 1.25781,-0.69141 0.41797,-0.23828 0.83594,-0.46875 1.2461,-0.70703 l 1.22265,-0.74609 c 0.41406,-0.23828 0.8125,-0.4961 1.21485,-0.75391 1.60937,-1.01172 3.16406,-2.12109 4.67968,-3.27344 1.52344,-1.14843 2.96485,-2.39062 4.3711,-3.66015 1.40625,-1.27344 2.7539,-2.60938 4.04687,-3.99219 1.29297,-1.38281 2.51953,-2.82422 3.6875,-4.3125 0.57031,-0.75 1.14844,-1.5 1.6875,-2.26953 0.26563,-0.38672 0.53125,-0.77344 0.78125,-1.16797 0.2461,-0.39063 0.51563,-0.79688 0.72266,-1.16016 l 0.0156,-0.0312 c 0.27344,-0.48047 0.88672,-0.64453 1.36719,-0.37109 0.46875,0.25781 0.63281,0.83984 0.39453,1.31641 z m 0,0"
       fill-opacity="1"
       fill-rule="nonzero"
       id="path12213" />
    <g
       clip-path="url(#bff8c12e02)"
       id="g12217">
      <path
         fill="#102770"
         d="m 222.25781,238.14453 c -1.49609,0 -3.10937,-0.0273 -4.85937,-0.0625 -2.1211,-0.0391 -4.52735,-0.0781 -7.16407,-0.0781 -1.25,0 -2.17578,-0.61719 -2.47265,-1.65235 -0.56641,-1.94531 1.28515,-4.67969 3.37109,-6.00781 0.0352,-0.0234 0.0703,-0.0469 0.0977,-0.0625 -3.84766,-4.90234 -5.41406,-9.83203 -4.66016,-14.66016 1.2461,-7.9414 8.32422,-12.60937 8.6211,-12.80468 0.53125,-0.33985 1.24218,-0.1875 1.58593,0.33984 0.34375,0.53125 0.1875,1.24219 -0.33984,1.58203 -0.0625,0.043 -6.53516,4.32813 -7.60938,11.25391 -0.66796,4.3164 0.8711,8.80859 4.58204,13.34375 l 0.0234,0.0352 c 0.24219,0.32422 0.33985,0.77735 0.26563,1.21094 -0.11328,0.625 -0.5586,1.19922 -1.33594,1.6875 -1.67578,1.07031 -2.54687,2.91406 -2.41406,3.41016 0.0469,0.0195 0.13672,0.0352 0.29297,0.0352 2.65625,0 5.07031,0.0469 7.20312,0.0781 13.55078,0.24219 17.63672,0.3164 24.11719,-10.58203 6.73437,-11.32422 0.15234,-27.4336 -7.15234,-33.11719 -7.74219,-6.02344 -14.13282,-14.22656 -14.40235,-14.57031 -0.39062,-0.4961 -0.29687,-1.21875 0.19922,-1.60547 0.49609,-0.39063 1.21875,-0.30078 1.60547,0.19922 0.0625,0.0781 6.48828,8.32031 14.00391,14.16797 4.16796,3.24218 7.85937,9.27343 9.64453,15.73046 2.08203,7.54688 1.39453,14.77344 -1.92578,20.36329 -6.23829,10.48046 -11.2461,11.76562 -21.27735,11.76562 z m 0,0"
         fill-opacity="1"
         fill-rule="nonzero"
         id="path12215" />
    </g>
    <g
       clip-path="url(#8653c6c01b)"
       id="g12221">
      <path
         fill="#102770"
         d="m 200.66016,238.08984 h -11.20313 l -0.17969,-0.0625 c -0.14453,-0.0547 -1.42578,-0.52734 -1.88672,-1.97656 -0.40234,-1.25 -0.0234,-2.75 1.11329,-4.45312 v -9.39454 c 0,-0.6289 0.51562,-1.14453 1.14453,-1.14453 0.6289,0 1.14062,0.51563 1.14062,1.14453 v 10.1211 l -0.21094,0.29687 c -1.16015,1.625 -1.09765,2.44141 -1.01562,2.71485 0.0664,0.24218 0.23437,0.39062 0.35156,0.46875 h 10.69922 c 0.29297,-0.125 2.30469,-1.51563 5.91016,-16.26563 0.14843,-0.61328 0.76953,-0.99219 1.38672,-0.83984 0.60937,0.14844 0.98828,0.76953 0.83984,1.38281 -3.86719,15.82031 -6.17578,18.00781 -8.08984,18.00781 z m -0.0508,-2.28515 z m 0,0"
         fill-opacity="1"
         fill-rule="nonzero"
         id="path12219" />
    </g>
    <path
       fill="#102770"
       d="m 209.98828,210.99219 c -0.0742,0 -0.15234,-0.004 -0.23437,-0.0234 -0.61719,-0.125 -1.01563,-0.73047 -0.88672,-1.34766 0.97265,-4.71093 1.58984,-8.6914 1.59765,-8.73047 0.0977,-0.625 0.6875,-1.05078 1.30469,-0.95703 0.62109,0.0977 1.05078,0.6836 0.95313,1.30469 -0.004,0.043 -0.63282,4.07813 -1.61719,8.84375 -0.10547,0.53906 -0.58594,0.91016 -1.11719,0.91016 z m 0,0"
       fill-opacity="1"
       fill-rule="nonzero"
       id="path12223" />
    <g
       clip-path="url(#0cc67c84d4)"
       id="g12227">
      <path
         fill="#102770"
         d="m 174.82812,238.13281 c -0.17187,0 -0.32812,-0.0156 -0.46875,-0.043 h -12.93359 c -1.09766,0 -2.32031,-0.1289 -3.07422,-1.07031 -0.80859,-1.00781 -0.61328,-2.41406 -0.39453,-3.38281 0.35156,-1.59375 1.15234,-2.54297 1.71875,-3.03516 -0.22656,-9.46094 -9.3125,-26.71484 -10.36719,-28.67969 -0.29687,-0.55859 -0.082,-1.2539 0.47266,-1.55078 0.55859,-0.29687 1.25,-0.0859 1.54687,0.46875 1.80079,3.36719 10.77344,20.65625 10.64063,30.34375 l -0.0117,0.67188 -0.58984,0.32031 c -0.0156,0.008 -0.86328,0.53125 -1.17578,1.96094 -0.26172,1.17578 -0.0625,1.4414 -0.0508,1.45312 0.0273,0.0352 0.22266,0.21094 1.28907,0.21094 h 13.37109 l 0.0625,0.0469 c 0.0547,-0.008 0.15234,-0.0352 0.28516,-0.16797 0.49218,-0.4961 1.95312,-2.98438 0.0156,-14.04688 -0.10937,-0.625 0.3086,-1.21484 0.92578,-1.32812 0.625,-0.10938 1.21485,0.30859 1.32813,0.92578 1.59375,9.09765 1.3164,14.41015 -0.84766,16.24609 -0.58203,0.48438 -1.21094,0.65625 -1.74219,0.65625 z m -14.00781,-6.96484 z m 0,0"
         fill-opacity="1"
         fill-rule="nonzero"
         id="path12225" />
    </g>
    <path
       fill="#102770"
       d="m 183.64844,223.92969 c -7.94141,0 -10.79297,-3.41407 -10.95313,-3.60938 -0.39453,-0.49219 -0.3164,-1.21094 0.17578,-1.60547 0.49219,-0.39453 1.20313,-0.3164 1.60157,0.16407 0.0937,0.10546 4.77343,5.30468 19.44531,1.15234 0.60547,-0.17188 1.24219,0.18359 1.41406,0.78906 0.16797,0.60547 -0.18359,1.24219 -0.78906,1.41016 -4.39453,1.24219 -7.98438,1.69922 -10.89453,1.69922 z m 0,0"
       fill-opacity="1"
       fill-rule="nonzero"
       id="path12229" />
    <g
       clip-path="url(#b08001ccc2)"
       id="g12233">
      <path
         fill="#102770"
         d="m 244.08984,205.75781 c -0.26953,0 -0.54297,-0.0977 -0.76172,-0.28515 -0.47265,-0.41797 -0.51562,-1.14454 -0.0977,-1.61329 2.07031,-2.33984 2.80078,-5.35546 2.60156,-7.30468 -0.55469,-5.46875 -1.88672,-6.62891 -2.21875,-6.63672 h -0.004 c -0.26562,0 -0.83593,0.58594 -0.99609,1.55859 -0.46875,2.84766 -2.88672,3.90625 -4.10547,4.07031 -0.62109,0.082 -1.19922,-0.35546 -1.28515,-0.98437 -0.0859,-0.62109 0.34765,-1.19531 0.97265,-1.28516 0.19141,-0.0273 1.85547,-0.34375 2.16016,-2.17578 0.33203,-2.02734 1.7539,-3.52734 3.32812,-3.47656 1.61719,0.0508 3.69922,1.59766 4.41797,8.69531 0.23047,2.26953 -0.46094,6 -3.16797,9.05078 -0.21484,0.26172 -0.53125,0.38672 -0.84375,0.38672 z m 0,0"
         fill-opacity="1"
         fill-rule="nonzero"
         id="path12231" />
    </g>
    <g
       clip-path="url(#3a20c59db4)"
       id="g12237">
      <path
         fill="#102770"
         d="m 189.65234,238.08984 h -7.36328 c -0.20703,-0.008 -1.79687,-0.0742 -2.80859,-1.14453 -0.54297,-0.57422 -0.8125,-1.32031 -0.78906,-2.16797 0.0586,-1.83203 1.3164,-3.83984 1.94531,-4.72656 l -1.58594,-7.26172 c -0.13672,-0.62109 0.25781,-1.23047 0.875,-1.36328 0.61719,-0.13281 1.23047,0.25781 1.36328,0.875 l 1.8125,8.29297 -0.33203,0.42578 c -0.48047,0.61719 -1.74609,2.51172 -1.78516,3.82422 -0.0234,0.84766 1.07422,0.94531 1.33985,0.95703 h 7.33594 c 0.6289,0 1.14062,0.51563 1.14062,1.14453 -0.004,0.62891 -0.51172,1.14453 -1.14844,1.14453 z m 0,0"
         fill-opacity="1"
         fill-rule="nonzero"
         id="path12235" />
    </g>
    <path
       fill="#102770"
       d="m 157.44531,174.32031 c -4.60156,0 -11.52344,-4.58594 -12.73828,-9.74609 -0.44922,-1.92188 -0.0898,-3.69141 1.03516,-5.11328 1.82422,-2.3086 5.64453,-3.63282 10.46484,-3.63282 6.73438,0 13.53125,2.58985 13.53125,8.39063 0,5.78125 -6.48828,10.10156 -12.29297,10.10156 z m -1.23828,-16.20703 c -4.0625,0 -7.30078,1.03516 -8.67578,2.76563 -0.69531,0.88671 -0.89844,1.92187 -0.59766,3.16796 0.94922,4.03907 6.82032,7.98438 10.51172,7.98438 5.14844,0 10.00781,-3.79688 10.00781,-7.82031 0,-4.20703 -5.64843,-6.09766 -11.24609,-6.09766 z m 0,0"
       fill-opacity="1"
       fill-rule="nonzero"
       id="path12239" />
    <path
       fill="#102770"
       d="m 208.86328,237.19141 h -6.86719 c -0.6289,0 -1.14453,-0.51563 -1.14453,-1.14454 0,-0.6289 0.51563,-1.14453 1.14453,-1.14453 h 6.86719 c 0.62891,0 1.14453,0.51563 1.14453,1.14453 0,0.62891 -0.50781,1.14454 -1.14453,1.14454 z m 0,0"
       fill-opacity="1"
       fill-rule="nonzero"
       id="path12241" />
    <path
       fill="#102770"
       d="m 189.65234,232.15625 c -2.85937,4.00391 0,4.98828 0,4.98828 h -7.36328 c 0,0 -2.52344,-0.0625 -2.45312,-2.13281 0.0586,-1.9961 2.02343,-4.4961 2.02343,-4.4961 l -1.69921,-7.76953 c 2.36718,0.3711 5.48046,0.40235 9.48828,-0.33593 z m 0,0"
       fill-opacity="0.298"
       fill-rule="nonzero"
       id="path12243" />
    <path
       fill="#102770"
       d="m 211.69531,231.75781 c -1.92187,1.22266 -3.26172,3.51563 -2.88281,4.74219 h -6.86719 c 1.89063,-2.39844 3.9336,-9.23438 5.64844,-16.24219 0.39453,3.07813 1.82031,6.51563 4.87109,10.25781 0.008,-0.008 0.39063,0.50391 -0.76953,1.24219 z m 0,0"
       fill-opacity="0.298"
       fill-rule="nonzero"
       id="path12245" />
    <path
       fill="#6b184e"
       d="m 244.10156,205.45703 c -0.9375,-3.07812 -2.28906,-5.96094 -3.8789,-8.43359 3.2539,0.72265 5.32812,-1.32032 6.42187,-2.94532 0.125,0.70313 0.23438,1.48829 0.32031,2.35547 0.21875,2.0586 -0.45312,6.29688 -2.86328,9.02344 z m 0,0"
       fill-opacity="0.298"
       fill-rule="nonzero"
       id="path12247" />
    <path
       fill="#102770"
       d="m 196.69141,207.38672 c -11.44141,7.87109 -23.42579,12.99219 -27.46094,12.99219 -6.57422,0 -9.6875,-12.07032 -9.6875,-12.07032 -0.0898,-0.0547 -0.1875,-0.12109 -0.28906,-0.18359 9.21484,3.27734 5.38671,12.81641 37.4375,-0.73828 z m 0,0"
       fill-opacity="0.298"
       fill-rule="nonzero"
       id="path12249" />
    <path
       fill="#102770"
       d="m 157.29297,146.58203 c 0.125,3.41016 -1.52735,6.24219 -3.69531,6.32031 -2.16016,0.082 -4.01172,-2.61718 -4.13672,-6.03515 -0.12891,-3.40625 1.52343,-6.23828 3.6875,-6.32032 2.16406,-0.0742 4.02343,2.62891 4.14453,6.03516 z m 0,0"
       fill-opacity="1"
       fill-rule="nonzero"
       id="path12251" />
    <path
       fill="#ffffff"
       d="m 155.39062,146.03516 c 0.0156,0.35546 0,0.69921 -0.0391,1.03125 -0.0391,0.33203 -0.10156,0.6289 -0.1875,0.88281 -0.0898,0.25781 -0.1914,0.45312 -0.3125,0.59765 -0.12109,0.14063 -0.25,0.21094 -0.38281,0.21875 -0.13672,0.004 -0.26953,-0.0586 -0.39844,-0.1914 -0.13281,-0.13281 -0.25,-0.32422 -0.35547,-0.57031 -0.10547,-0.25 -0.1875,-0.53907 -0.2539,-0.86719 -0.0625,-0.32813 -0.10157,-0.67188 -0.11328,-1.02735 -0.0117,-0.35546 0,-0.70312 0.0391,-1.03125 0.0391,-0.33203 0.10547,-0.6289 0.1914,-0.88281 0.0859,-0.25781 0.1875,-0.45703 0.3086,-0.59765 0.12109,-0.14063 0.25,-0.21485 0.38672,-0.21875 0.13281,-0.004 0.26562,0.0586 0.39843,0.1914 0.12891,0.13281 0.2461,0.32422 0.35157,0.57031 0.10547,0.25 0.1914,0.53907 0.2539,0.86719 0.0625,0.32813 0.10157,0.66797 0.11328,1.02735 z m 0,0"
       fill-opacity="1"
       fill-rule="nonzero"
       id="path12253" />
    <path
       fill="#102770"
       d="m 187.33203,146.58203 c 0.125,3.41016 -1.52734,6.24219 -3.69531,6.32031 -2.16016,0.082 -4.01172,-2.61718 -4.13672,-6.03515 -0.12891,-3.40625 1.52344,-6.23828 3.6875,-6.32032 2.16406,-0.0742 4.02344,2.62891 4.14453,6.03516 z m 0,0"
       fill-opacity="1"
       fill-rule="nonzero"
       id="path12255" />
    <path
       fill="#ffffff"
       d="m 185.42969,146.03516 c 0.0156,0.35546 0,0.69921 -0.0391,1.03125 -0.0391,0.33203 -0.10156,0.625 -0.1914,0.88281 -0.0859,0.25781 -0.1875,0.45312 -0.3086,0.59765 -0.12109,0.14063 -0.25,0.21094 -0.38281,0.21875 -0.13672,0.004 -0.26953,-0.0586 -0.40234,-0.1914 -0.12891,-0.13281 -0.2461,-0.32422 -0.35156,-0.57031 -0.10547,-0.25 -0.1875,-0.53907 -0.25391,-0.86719 -0.0625,-0.32813 -0.10156,-0.67188 -0.11328,-1.02735 -0.0156,-0.35546 0,-0.70312 0.0391,-1.03515 0.0391,-0.32813 0.10156,-0.625 0.19141,-0.87891 0.0859,-0.25781 0.1875,-0.45703 0.30859,-0.59765 0.12109,-0.14063 0.25,-0.21485 0.38281,-0.21875 0.13672,-0.004 0.26953,0.0586 0.39844,0.1914 0.13281,0.13281 0.25,0.32422 0.35547,0.57031 0.10547,0.25 0.1875,0.53907 0.25391,0.86719 0.0625,0.32813 0.10156,0.66797 0.11328,1.02735 z m 0,0"
       fill-opacity="1"
       fill-rule="nonzero"
       id="path12257" />
    <path
       fill="#102770"
       d="m 184.10547,171.30078 c 0.41797,0.0625 0.77344,0.15234 1.14062,0.28125 0.36328,0.11328 0.71485,0.26172 1.05469,0.42188 0.69531,0.32031 1.33984,0.73046 1.96094,1.18359 0.62109,0.45703 1.1914,0.97656 1.70703,1.55078 0.5,0.58203 0.9375,1.23438 1.22656,1.93359 0.0312,0.0742 -0.004,0.16016 -0.0781,0.19532 -0.0508,0.0195 -0.10547,0.0117 -0.14844,-0.0195 l -0.008,-0.004 c -0.58203,-0.45313 -1.15235,-0.83984 -1.75391,-1.18359 -0.60547,-0.33985 -1.22266,-0.63672 -1.85156,-0.90625 -0.62891,-0.26954 -1.27735,-0.4961 -1.91016,-0.74219 -0.3164,-0.125 -0.63672,-0.2461 -0.94922,-0.3711 -0.30859,-0.125 -0.64062,-0.25781 -0.91406,-0.39453 l -0.0742,-0.0352 c -0.5,-0.2461 -0.69922,-0.85157 -0.45312,-1.35157 0.19922,-0.41015 0.63672,-0.62109 1.05078,-0.55859 z m 0,0"
       fill-opacity="1"
       fill-rule="nonzero"
       id="path12259" />
    <path
       fill="#102770"
       d="m 160.39844,191.82812 c 0.0508,0 0.10156,0.0117 0.15234,0.0234 0.0586,0.0195 0.0586,0.0195 0.0898,0.0312 0.0547,0.0195 0.10547,0.0391 0.14063,0.0547 0.0859,0.0391 0.16016,0.0742 0.22656,0.10937 l 0.41797,0.22266 c 0.26953,0.15625 0.53906,0.29688 0.80078,0.43359 0.53125,0.28125 1.0586,0.53516 1.58985,0.75 1.0625,0.4375 2.15625,0.70313 3.25781,0.75782 0.55469,0.0273 1.10937,-0.0117 1.66015,-0.10547 0.55469,-0.0781 1.10157,-0.22656 1.65235,-0.41797 1.09765,-0.36328 2.16015,-0.91406 3.23828,-1.51953 0.14062,-0.082 0.31641,-0.0312 0.39453,0.10937 0.0664,0.10547 0.0469,0.23828 -0.0312,0.33203 -0.83594,0.96485 -1.87109,1.77735 -3.05469,2.38282 -0.14453,0.082 -0.29687,0.14843 -0.45312,0.21093 -0.15235,0.0625 -0.3086,0.13282 -0.46094,0.19532 -0.32031,0.10547 -0.63672,0.21875 -0.97266,0.29297 -0.65625,0.15234 -1.34375,0.23828 -2.03125,0.22265 -1.37109,-0.0234 -2.72656,-0.42187 -3.8789,-1.08594 -0.57813,-0.33203 -1.11719,-0.72265 -1.59766,-1.15234 -0.23828,-0.21484 -0.46875,-0.44531 -0.6914,-0.67187 l -0.3125,-0.34375 -0.14454,-0.16016 -0.0586,-0.0625 c 0,-0.008 -0.0273,-0.0312 -0.008,-0.0234 0.0156,0 0.0273,0 0.043,-0.0117 -0.16016,-0.008 -0.28516,-0.13281 -0.27735,-0.29297 0.0195,-0.15234 0.14844,-0.28125 0.3086,-0.28125 z m 0,0"
       fill-opacity="1"
       fill-rule="nonzero"
       id="path12261" />
  </g>
</svg>
