<?xml version="1.0" encoding="UTF-8"?><svg xmlns="http://www.w3.org/2000/svg" xmlns:xlink="http://www.w3.org/1999/xlink" viewBox="0 0 1000 1000"><defs><linearGradient id="linear-gradient" x1="499.87934" y1="-22.79073" x2="499.87934" y2="1107.62661" gradientUnits="userSpaceOnUse"><stop offset=".03359" stop-color="#299cb7"/><stop offset=".04694" stop-color="#55b0c6"/><stop offset=".06107" stop-color="#7dc3d3"/><stop offset=".07664" stop-color="#a0d3df"/><stop offset=".09351" stop-color="#bde0e9"/><stop offset=".11208" stop-color="#d5ebf1"/><stop offset=".13308" stop-color="#e8f4f7"/><stop offset=".15792" stop-color="#f5fafb"/><stop offset=".19028" stop-color="#fcfdfe"/><stop offset=".25825" stop-color="#fff"/><stop offset=".4733" stop-color="#fcfefe"/><stop offset=".56765" stop-color="#f5fbfd"/><stop offset=".63841" stop-color="#e9f5fa"/><stop offset=".69739" stop-color="#d7eef7"/><stop offset=".74909" stop-color="#bfe4f2"/><stop offset=".79563" stop-color="#a3d8ec"/><stop offset=".83832" stop-color="#80cae5"/><stop offset=".878" stop-color="#59b9dd"/><stop offset=".91383" stop-color="#2da7d5"/><stop offset=".94573" stop-color="#0094cc"/></linearGradient></defs><g id="GLASS"><path d="m879.97797,255.72467s-73.79643-118.77835-157.38447-119.93936c-83.58804-1.16093-75.46146,20.31657-157.30811,11.60952-30.18454-5.8048-64.06553-5.8048-64.06553-5.8048h-1.31413s-33.881,0-64.06561,5.8048c-81.84657,8.70704-73.71999-12.77045-157.30803-11.60952-83.58804,1.16101-157.38447,119.93936-157.38447,119.93936,0,0-119.50094,197.5791-37.45891,394.63245.70623,1.69632,70.62228,150.06927,202.97003,166.90297,132.34767,16.8337,83.58788-26.12129,213.90405-26.12129s81.5563,42.95499,213.90405,26.12129c132.34775-16.8337,202.2638-165.20666,202.97003-166.90297,82.04195-197.05334-37.45891-394.63245-37.45891-394.63245Z" fill="#9bb3d0"/></g><g id="HELMET"><path d="m879.97797,255.72467s-73.79643-118.77835-157.38447-119.93936c-83.58804-1.16093-75.46146,20.31657-157.30811,11.60952-30.18454-5.8048-64.06553-5.8048-64.06553-5.8048h-1.31413s-33.881,0-64.06561,5.8048c-81.84657,8.70704-73.71999-12.77045-157.30803-11.60952-83.58804,1.16101-157.38447,119.93936-157.38447,119.93936,0,0-119.50094,197.5791-37.45891,394.63245.70623,1.69632,70.62228,150.06927,202.97003,166.90297,132.34767,16.8337,83.58788-26.12129,213.90405-26.12129s81.5563,42.95499,213.90405,26.12129c132.34775-16.8337,202.2638-165.20666,202.97003-166.90297,82.04195-197.05334-37.45891-394.63245-37.45891-394.63245Zm26.783,250.92269c-.48766,45.19295-9.02948,88.1728-25.39188,127.76724-1.99044,4.10536-18.18087,36.57863-47.90911,70.26207-38.07113,43.13385-79.77921,67.85455-123.96667,73.47552-19.02273,2.41907-34.42136,3.59459-47.07751,3.59588-22.60963,0-30.85499-3.5099-44.51471-9.32593-21.67152-9.22454-48.64189-20.70646-117.3383-20.70646s-95.66935,11.48063-117.34343,20.70517c-13.66292,5.81603-21.91022,9.32593-44.51086,9.32721-12.64846,0-28.04708-1.17553-47.07559-3.59588-44.19003-5.62097-85.90003-30.34423-123.97181-73.48193-29.72246-33.67703-45.91354-66.14901-47.90526-70.25694-71.87393-173.89509,31.14182-351.55033,35.02195-358.11197,16.47726-26.2331,74.173-100.39968,124.30162-101.09589,2.02188-.02823,3.99307-.04171,5.90009-.04171,29.95089,0,44.50509,3.28146,59.91462,6.75543,14.51762,3.27248,30.97242,6.98257,56.22762,6.98257,11.59228,0,24.31324-.75395,38.88925-2.30485l1.64715-.17517,1.62662-.31249c25.96232-4.99278,56.34569-5.0948,56.64984-5.09544h1.28525c.27463.00064,30.65865.10267,56.6216,5.09544l1.62726.31249,1.64651.17517c14.57601,1.5509,27.29633,2.30485,38.88861,2.30485,25.2597,0,41.71706-3.71009,56.23661-6.98322,15.40761-3.47396,29.9618-6.75478,59.90563-6.75478,1.91087,0,3.87308.01347,5.89945.04171,50.08948.69556,107.73261,74.74408,124.29392,101.08306,1.80051,3.06458,28.39229,48.9871,45.6158,115.20284,10.22425,39.31018,15.20484,78.05378,14.80573,115.156Z" fill="#ffcc4e" stroke="#fff" stroke-miterlimit="10" stroke-width="5.2565"/><path d="m503.59473,955.59082c-24.18066,0-49.80566-1.68848-70.41016-3.04688-33.13232-.43262-59.30371-18.69629-84.61182-36.35938-10.96484-7.65332-22.30322-15.56641-33.96582-21.81934-50.19971-29.19336-94.55566-62.75879-131.91455-99.80762-42.08301-41.73535-74.3208-87.07324-95.81689-134.75293-.57959-1.28516-.03613-2.79785,1.22803-3.4209.37109-.18262.76562-.26953,1.15381-.26953.93457,0,1.83643.50195,2.30664,1.37988,12.57812,23.46289,81.16504,141.25195,196.4834,155.91211,20.48389,2.60449,37.31738,3.87109,51.46289,3.87012,29.95605-.00098,43.24268-5.65723,58.62744-12.20605,19.46875-8.28711,41.53516-17.67969,102.42139-17.67969,60.88037,0,82.94189,9.39258,102.40674,17.67969,15.38379,6.5498,28.66992,12.20605,58.63379,12.20605,14.15039,0,30.98242-1.26562,51.45801-3.87012,115.00391-14.61914,182.72363-132.04102,195.13086-155.43164.46875-.88281,1.37402-1.38965,2.3125-1.38965.38672,0,.7793.08594,1.14941.2666,1.26758.62207,1.81348,2.1377,1.23242,3.4248-50.84375,112.65234-150.29785,188.62402-224.77539,232.51953-16.17773,8.77539-34.30273,20.71289-53.95215,35.52832-27.72656,22.17871-66.07715,25.16895-99.85449,26.21973-9.46484.7041-19.50977,1.04688-30.70605,1.04688ZM874.72754,253.60107c-.83887,0-1.66113-.40381-2.16504-1.14648-7.70215-11.34277-77.4082-110.84863-152.4375-111.89111-2.20605-.03076-4.33887-.04541-6.41895-.04541-33.83984,0-51.00879,3.87061-67.61133,7.61377-13.80371,3.1123-26.8418,6.05176-47.89648,6.05176-10.22949,0-21.62109-.68311-34.82715-2.08887-.07227-.00781-.14453-.01855-.2168-.03271-29.43262-5.66357-62.91406-5.73193-63.24854-5.73193s-33.81641.06836-63.24854,5.73193c-.07227.01416-.14453.0249-.21729.03271-13.20801,1.40576-24.60107,2.08887-34.83105,2.08887-21.05273,0-34.08887-2.93896-47.89014-6.05078-16.604-3.74365-33.77344-7.61475-67.62549-7.61475-2.07568,0-4.21875.01465-6.41943.04541-72.3501.99561-138.57568,93.14209-151.11719,111.604-.50439.74219-1.32617,1.14551-2.16553,1.14551-.46631,0-.93799-.12451-1.36377-.38525-1.19043-.72949-1.59814-2.26562-.92578-3.48926,18.91943-34.42627,42.41943-65.59131,69.84717-92.62939,26.38477-26.01025,56.51318-48.32129,89.54736-66.31445,63.85742-34.78076,138.36475-53.16504,215.46875-53.16504,38.05957,0,76.46094,4.44971,114.13965,13.22607,110.21094,24.96143,208.87598,99.41797,263.91113,199.16699.6748,1.22314.26855,2.76123-.92285,3.49219-.42578.26123-.89844.38623-1.36523.38623Z" fill="url(#linear-gradient)"/><path d="m498.96478,39.94483c37.69659.00127,75.86359,4.38058,113.54608,13.15768,110.09277,24.93454,207.84064,99.33267,262.21423,197.88307-16.61877-24.47707-83.02875-112.04306-154.56439-113.0368-2.21802-.03104-4.36365-.04601-6.45532-.04601-63.0517,0-70.23889,13.66608-115.50787,13.66608-9.5329,0-20.76166-.60672-34.54932-2.07446-30.03424-5.77934-63.74268-5.77934-63.74268-5.77934,0,0-33.70825,0-63.74252,5.77934-13.79483,1.46828-25.01791,2.07446-34.55392,2.07446-45.26785,0-52.44577-13.66707-115.51532-13.66608-2.08749.00003-4.24301.01505-6.45636.04601-71.26106.98055-136.3504,87.87973-153.24387,112.74921C203.37616,110.61774,347.49713,39.93974,498.96478,39.94483M89.25939,658.72906c17.29881,32.27014,85.52627,142.91425,198.45853,157.27094,21.58218,2.74487,38.31259,3.89136,51.79214,3.89136,68.77341,0,52.63055-29.88525,161.04919-29.88525s92.25494,29.88525,161.04077,29.88525c13.47601,0,30.21564-1.14746,51.7876-3.89136,112.42242-14.29138,179.69537-123.9679,197.11176-156.80029-46.19507,102.35242-135.92413,179.59937-223.72015,231.34344-18.58521,10.07898-37.29303,22.94696-54.19836,35.6936-27.17639,21.73737-64.98132,24.6568-98.41785,25.6947-9.94965.74219-20.198,1.04401-30.57187,1.04401-23.52432,0-47.67371-1.55328-70.30417-3.0459-46.64758-.57092-78.92038-37.2149-117.44424-57.86932-93.31908-54.27106-181.31055-132.91223-226.58335-233.33118m821.24.47064h.005M498.96487,34.71465c-77.53815-.00267-152.47842,18.49107-216.71936,53.48174-33.24866,18.10986-63.57359,40.56773-90.13252,66.74974-27.6084,27.21652-51.26173,58.58466-70.30306,93.23293-1.34507,2.44746-.52987,5.52,1.8516,6.97893.85094.52124,1.79465.77075,2.72766.77075,1.67827,0,3.32213-.80714,4.33073-2.29195,12.41307-18.27373,77.93427-109.48067,148.98946-110.45827,2.16083-.03026,4.30853-.04559,6.3844-.04559h.00702c33.55737,0,50.58026,3.83849,67.04352,7.55066,13.94736,3.14493,27.12106,6.11534,48.46469,6.11534,10.32358,0,21.80731-.68814,35.10757-2.10374.14575-.01546.2908-.0372.43469-.06479,29.17413-5.61388,62.42239-5.68507,62.75479-5.68521.33145.00014,33.57971.07133,62.75385,5.68521.14386.02759.28894.04919.43469.06479,13.2981,1.4156,24.7804,2.10374,35.10291,2.10374,21.34613,0,34.52228-2.97067,48.47217-6.11588,16.46307-3.71187,33.48663-7.55013,67.03571-7.55013,2.0799,0,4.22723.01534,6.38214.04546,73.70709,1.024,142.68762,99.51761,150.31055,110.74507,1.00848,1.48531,2.65295,2.29283,4.33136,2.29283.93439,0,1.87903-.25008,2.7309-.77271,2.38214-1.46159,3.19427-4.5376,1.84412-6.98466-55.38995-100.39265-154.69397-175.32999-265.63824-200.45733-37.83563-8.8128-76.43707-13.2856-114.70132-13.28693h0ZM89.25557,653.49786c-.77705,0-1.56543.17377-2.30791.53961-2.5284,1.24585-3.6148,4.27142-2.45627,6.84119,21.62827,47.97333,54.04826,93.57385,96.35947,135.53503,37.5168,37.20642,82.04999,70.90778,132.36255,100.16772.05212.03027.1048.05975.15799.08832,11.52734,6.18024,22.80161,14.04907,33.7048,21.65875,25.61493,17.87769,52.10123,36.3631,86.00415,36.82898,20.62888,1.3606,46.27042,3.0481,70.51077,3.0481,11.24219,0,21.33527-.34363,30.84985-1.05011,34.16235-1.06433,72.9552-4.11475,101.34729-26.78674,19.52222-14.71655,37.51581-26.56799,53.48431-35.22791.05469-.0296.1087-.0603.16229-.09174,48.71747-28.71259,91.94238-61.50696,128.47412-97.47241,42.79291-42.1297,75.52228-87.90491,97.28424-136.06323.34497-.69757.53882-1.48297.53882-2.31372,0-2.65778-1.98004-4.85242-4.54651-5.18616-.22754-.03015-.45544-.04498-.68243-.04498-.20789,0-.41516.01245-.6203.03699-.76141.08942-1.47272.34235-2.09802.72278-.62378.37793-1.17444.89008-1.60431,1.52069-.00037.00055-.00067.00098-.00104.00153-.00067.00098-.0014.00208-.00208.00305-.12781.18707-.24365.38275-.34668.58624-12.42621,23.39886-79.52545,139.53357-193.1026,153.97174-20.36536,2.59039-37.08936,3.84961-51.12805,3.84961-29.43066,0-42.4892-5.55963-57.60968-11.99707-19.69458-8.3847-42.01685-17.88812-103.43109-17.88812-61.41855,0-83.74561,9.50397-103.44427,17.88916-15.12173,6.43695-28.18134,11.99603-57.60492,11.99603-14.04013,0-30.76559-1.25922-51.13226-3.84961-114.04721-14.49841-182.03735-131.2887-194.50881-154.55359-.94068-1.75482-2.74422-2.76013-4.61343-2.76013h0Z" fill="#fff"/><path d="m807.05679,802.79138c-.03024.02887-.06056.05823-.0908.08711.03024-.02887.06056-.05815.0908-.08711Z" fill="#ffc53f"/><path d="m803.189,806.4523c1.25902-1.18066,2.51813-2.37207,3.77699-3.57382-1.25886,1.20071-2.51796,2.39412-3.77699,3.57382Z" fill="#ffc53f"/><path d="m105.84847,695.17219c-1.62589-2.81826-3.21826-5.66805-4.78392-8.54165,1.56437,2.87481,3.15875,5.72275,4.78392,8.54165Z" fill="#ffc53f"/><path d="m101.06456,686.63053c-.02831-.05205-.05735-.10355-.08566-.15568.02831.05205.05735.10371.08566.15568Z" fill="#ffc53f"/><rect x="474.79994" y="826.32657" width="21.82913" height="39.59555" rx="10.22784" ry="10.22784" fill="#ffcc4e" stroke="#fff" stroke-miterlimit="10" stroke-width="2.57712"/><rect x="502.82584" y="826.32657" width="21.82913" height="39.59555" rx="10.22784" ry="10.22784" fill="#ffcc4e" stroke="#fff" stroke-miterlimit="10" stroke-width="2.57712"/><rect x="474.79994" y="875.11395" width="21.82913" height="39.59555" rx="10.22784" ry="10.22784" fill="#ffcc4e" stroke="#fff" stroke-miterlimit="10" stroke-width="2.57712"/><rect x="502.82584" y="875.11395" width="21.82913" height="39.59555" rx="10.22784" ry="10.22784" fill="#ffcc4e" stroke="#fff" stroke-miterlimit="10" stroke-width="2.57712"/><rect x="418.43636" y="850.36673" width="21.82913" height="39.59555" rx="10.22784" ry="10.22784" fill="#ffcc4e" stroke="#fff" stroke-miterlimit="10" stroke-width="2.57712"/><rect x="446.46225" y="850.36673" width="21.82913" height="39.59555" rx="10.22784" ry="10.22784" fill="#ffcc4e" stroke="#fff" stroke-miterlimit="10" stroke-width="2.57712"/><rect x="531.35505" y="850.36673" width="21.82913" height="39.59555" rx="10.22784" ry="10.22784" fill="#ffcc4e" stroke="#fff" stroke-miterlimit="10" stroke-width="2.57712"/><rect x="559.38094" y="850.36673" width="21.82913" height="39.59555" rx="10.22784" ry="10.22784" fill="#ffcc4e" stroke="#fff" stroke-miterlimit="10" stroke-width="2.57712"/></g><g id="DOG"><ellipse cx="500.77582" cy="621.10001" rx="87.30095" ry="69.58025" stroke="#fff" stroke-linecap="round" stroke-miterlimit="10" stroke-width="12.45018"/><path d="m500.77584,679.77455c-20.58461,0-37.2717-16.68782-37.2717-37.2717v-42.80568c0-20.58461,16.68709-37.2717,37.2717-37.2717s37.2717,16.68709,37.2717,37.2717v42.80568c0,20.58388-16.68637,37.2717-37.2717,37.2717Z" fill="#d30000"/><path d="m500.77579,580.52322c6.05703,20.96061,6.10236,52.69129.00033,73.65027-6.09953-20.9457-6.06047-52.67675-.00033-73.65027h0Z" fill="#4f0000"/><path d="m500.77582,576.37294c2.57509,20.96061,2.59437,52.69129.00014,73.65027-2.59316-20.9457-2.57656-52.67675-.00014-73.65027h0Z" fill="#280000"/><path d="m500.77588,578.87109c-30.39307,0-58.96729-11.83496-80.45801-33.32617l-68.84082-68.84131c-12.06104-12.06055-18.70361-28.09619-18.70361-45.15283s6.64258-33.09229,18.70361-45.15283c12.06055-12.06104,28.09668-18.70361,45.15283-18.70361s33.09229,6.64258,45.15283,18.70361l12.13184,12.13086c12.51709,12.51709,29.15967,19.41064,46.86133,19.41064s34.34424-6.89355,46.86182-19.41064l12.13086-12.13086c12.06152-12.06104,28.09668-18.70361,45.15332-18.70361s33.0918,6.64258,45.15332,18.70361c12.06055,12.06055,18.70312,28.09619,18.70312,45.15283s-6.64258,33.09229-18.70312,45.15283l-68.84082,68.84131c-21.49121,21.49121-50.06543,33.32617-80.4585,33.32617Z"/><path d="m396.63,372.508c15.77094,0,30.59787,6.14151,41.74948,17.29324l12.1312,12.13123c13.42633,13.42627,31.27753,20.82047,50.26526,20.82047s36.83893-7.3942,50.26514-20.82047l12.13129-12.13113c11.15167-11.15173,25.97858-17.29327,41.74939-17.29327s30.59778,6.14154,41.74945,17.29333c11.15173,11.15167,17.29327,25.97861,17.29327,41.74939s-6.14154,30.59781-17.29327,41.74948l-55.58899,55.58914-13.25214,13.25195c-20.58197,20.58203-47.94708,31.91711-77.05426,31.91711s-56.47226-11.33508-77.05432-31.91711l-13.25189-13.25183-55.58917-55.5892c-23.02075-23.02075-23.02075-60.47827.00006-83.49908,11.15167-11.15173,25.97858-17.29324,41.74951-17.29324m0-9.62686c-17.5741,0-35.14819,6.70428-48.55679,20.11285l-.00006.00006c-26.81714,26.8172-26.81714,70.29642,0,97.11353l55.5892,55.5892,13.25192,13.25189c23.15771,23.15778,53.50961,34.73663,83.86151,34.73663s60.70383-11.57886,83.86154-34.73663l13.25208-13.25201,55.58905-55.58914c26.8172-26.81714,26.8172-70.29626,0-97.1134l-.00006-.00006c-13.40857-13.40857-30.9826-20.11285-48.55664-20.11285s-35.14807,6.70428-48.55664,20.11285l-12.13123,12.13113c-12.00055,12.00061-27.72925,18.00092-43.45795,18.00092s-31.4574-6.00031-43.45798-18.00092l-12.13123-12.1312c-13.40854-13.40857-30.98264-20.11285-48.55673-20.11285h0Z" fill="#fff"/><path d="m610.29688,674.31152c-15.17676,0-29.44531-5.91016-40.17773-16.64258l-22.00684-22.00684c-12.64355-12.64355-29.45508-19.60742-47.33643-19.60742s-34.69238,6.96387-47.33643,19.60742l-22.00684,22.00684c-10.73193,10.73242-25.00049,16.64258-40.17822,16.64258s-29.44629-5.91016-40.17773-16.64258l-14.61182-14.61133c-10.73193-10.73242-16.64209-25.00098-16.64209-40.17773,0-15.17773,5.91016-29.44629,16.64258-40.17871l81.64307-81.64355c22.08154-22.08105,51.43994-34.2417,82.66748-34.2417s60.58643,12.16064,82.66748,34.2417l81.64355,81.64355c22.15332,22.15527,22.15332,58.20215,0,80.35645l-14.61133,14.61133c-10.73242,10.73242-25.00098,16.64258-40.17871,16.64258Z"/><path d="m500.77582,451.87814c29.87549,0,57.96271,11.63406,79.08771,32.75912l15.8797,15.87973,65.76385,65.76382c20.1806,20.18066,20.1806,53.01697,0,73.19751l-14.61127,14.61121c-9.77576,9.77594-22.7735,15.15973-36.59863,15.15973s-26.82288-5.38385-36.59882-15.15973l-22.00647-22.00647c-13.6001-13.60016-31.68237-21.09009-50.91592-21.09009s-37.31586,7.48993-50.91592,21.09009l-22.00665,22.00665c-9.77585,9.77582-22.77359,15.15961-36.59872,15.15961s-26.82285-5.38379-36.59879-15.15967l-14.61136-14.61127c-20.18057-20.1806-20.18057-53.01691,0-73.19757l65.76401-65.76398,15.87958-15.87958c21.12506-21.12506,49.21228-32.75912,79.08771-32.75912m0-10.12381c-31.21503,0-62.43002,11.90811-86.24628,35.72437l-15.87958,15.87958-65.76401,65.76398c-24.1665,24.16663-24.1665,63.34827,0,87.51471l14.61136,14.61133c12.08325,12.08325,27.92029,18.12488,43.75732,18.12488s31.67407-6.04163,43.75732-18.12488l22.00665-22.00665c12.08325-12.08325,27.92029-18.12488,43.75732-18.12488s31.67407,6.04163,43.75732,18.12488l22.00653,22.00647c12.08325,12.08331,27.92029,18.12494,43.75732,18.12494s31.67407-6.04163,43.75732-18.12494l14.61121-14.61115c24.1665-24.16644,24.1665-63.34808,0-87.51471l-65.76385-65.76382-15.8797-15.87973c-23.81622-23.81625-55.03125-35.72437-86.24628-35.72437h0Z" fill="#fff"/><path d="m391.42093,388.12177c21.89197,0,39.70239,17.81042,39.70239,39.70239s-17.81042,39.70239-39.70239,39.70239-39.70239-17.81042-39.70239-39.70239,17.81042-39.70239,39.70239-39.70239m0-3.84686c-24.05157,0-43.54926,19.49765-43.54926,43.54926s19.49768,43.54926,43.54926,43.54926,43.54926-19.49765,43.54926-43.54926-19.49765-43.54926-43.54926-43.54926h0Z" fill="#fff"/><circle cx="388.68108" cy="427.82416" r="33.29382" stroke="#fff" stroke-miterlimit="10" stroke-width=".89948"/><circle cx="406.37668" cy="434.22179" r="9.00892" fill="#fff"/><circle cx="364.89337" cy="418.85128" r="4.73634" fill="#fff"/><path d="m394.92783,456.21777c-16.49439,2.82098-32.22832-7.93675-35.71777-24.14286,1.48895.22503,2.97147.24295,4.42991.05326,6.88877,14.00911,22.25637,21.90572,37.71453,19.26196.49763-.08511,1.00744-.18636,1.53469-.30376.17769.47389.83797,2.21819.83797,2.21819-2.77825,1.4108-5.7333,2.38884-8.79932,2.91322Z" fill="#fff"/><path d="m609.27417,388.12177c21.89197,0,39.70239,17.81042,39.70239,39.70239s-17.81042,39.70239-39.70239,39.70239-39.70239-17.81042-39.70239-39.70239,17.81042-39.70239,39.70239-39.70239m0-3.84686c-24.05164,0-43.54926,19.49765-43.54926,43.54926s19.49762,43.54926,43.54926,43.54926,43.54926-19.49765,43.54926-43.54926-19.49768-43.54926-43.54926-43.54926h0Z" fill="#fff"/><circle cx="612.01401" cy="427.82416" r="33.29382" stroke="#fff" stroke-miterlimit="10" stroke-width=".89948"/><circle cx="594.3184" cy="434.22179" r="9.00892" fill="#fff"/><circle cx="635.80171" cy="418.85128" r="4.73634" fill="#fff"/><path d="m605.76726,456.21777c16.49439,2.82098,32.22832-7.93675,35.71777-24.14286-1.48895.22503-2.97147.24295-4.42991.05326-6.88877,14.00911-22.25637,21.90572-37.71453,19.26196-.49763-.08511-1.00744-.18636-1.53469-.30376-.17769.47389-.83797,2.21819-.83797,2.21819,2.77825,1.4108,5.7333,2.38884,8.79932,2.91322Z" fill="#fff"/><path d="m324.09256,486.73462c-34.96512-29.2622-37.82175-84.5626-10.28866-120.11314,27.68108-37.22892,80.93665-48.80004,120.67486-24.42762,10.63217,6.49883,19.71173,15.23055,26.0824,25.41957-26.13016-22.26517-62.14322-30.45912-94.52055-18.45764-30.82597,11.07879-53.40568,39.85719-57.27383,72.347-3.01797,22.47544,3.04359,46.00973,15.32578,65.23183h0Z"/><path d="m675.97949,486.73462c21.74594-33.611,21.99667-78.00991-3.29338-109.6183-28.58476-36.15361-79.7208-43.39054-118.76265-19.75465-4.97882,2.98965-9.79706,6.41091-14.41254,10.25176,6.37061-10.18903,15.4502-18.92075,26.08246-25.41992,39.75056-24.37271,92.98951-12.80074,120.67517,24.42828,27.53098,35.53794,24.67397,90.86694-10.28907,120.11283h0Z"/><path d="m250.48603,449.98506c-4.67639,23.68911-30.2482,24.48423-48.71796,8.93075-8.73415-7.35507-13.35114-15.79248-23.55491-66.31058-17.35768-87.91606,15.85755-105.76844,65.47092-125.56877,31.81915-12.69878,20.1714-8.61391,44.90314-17.7578,20.32877-7.51601,43.1646-.07543,55.18172,17.9617l5.2766,7.91992c4.34009,6.51427,2.35064,15.38271-4.41745,19.31527-23.92953,13.90412-74.16684,54.32133-94.14205,155.50951Z"/><path d="m749.1604,449.98506c4.67639,23.68911,30.2482,24.48423,48.71796,8.93075,8.73415-7.35507,13.35114-15.79248,23.55491-66.31058,17.35768-87.91606-15.85755-105.76844-65.47092-125.56877-31.81915-12.69878-20.1714-8.61391-44.90314-17.7578-20.32877-7.51601-43.1646-.07543-55.18172,17.9617l-5.2766,7.91992c-4.34009,6.51427-2.35064,15.38271,4.41745,19.31527,23.92953,13.90412,74.16684,54.32133,94.14205,155.50951Z"/><path d="m235.28524,530.55982c-15.98174,66.50283-16.65157,130.91325-.59374,194.94951,1.88476,7.51614-8.81773,11.1489-11.94357,4.0585-27.73604-62.91413-23.77237-141.07398,12.53731-199.00801h0Z"/><path d="m764.36119,530.55982c15.98174,66.50283,16.65157,130.91325.59374,194.94951-1.88476,7.51614,8.81773,11.1489,11.94357,4.0585,27.73604-62.91413,23.77237-141.07398-12.53731-199.00801h0Z"/><path d="m244.6903,530.55982c-15.54424-45.10176-20.31793-89.7751-13.4531-135.30765.80575-5.3443-6.86766-7.15048-8.56354-2.01874-15.04771,45.53469-7.06746,99.53349,22.01664,137.32639h0Z"/><path d="m754.95613,530.55982c15.54424-45.10176,20.31793-89.7751,13.4531-135.30765-.80575-5.3443,6.86766-7.15048,8.56354-2.01874,15.04771,45.53469,7.06746,99.53349-22.01664,137.32639h0Z"/><path d="m638.93914,259.31103c-22.96039-12.21451-47.69959-21.01361-73.22631-26.44644-.16843-.0359-.30546-.14945-.37392-.30742-.99818-2.30539-2.4285-4.46801-4.31315-6.35277l-3.14803-3.14803c-8.24824-8.24813-21.6212-8.24813-29.86932,0l-.8072.80708c-.21595.21607-.56617.21607-.78212,0l-6.72151-6.72128c-8.24824-8.24813-21.6212-8.24801-29.86932.00012l-5.91397,5.91397c-.21595.21607-.56617.21607-.78212.00012l-.00012-.00012c-8.24916-8.24755-21.62212-8.24686-29.87047.0015l-3.14676,3.14665c-1.59012,1.59024-2.83969,3.38457-3.79496,5.28901-.07375.14692-.20801.24978-.36954.28095-29.92455,5.79121-58.87496,16.16594-85.28712,31.11935-2.12166,1.20125-.59896,4.41888,1.68458,3.5644,43.58456-16.31021,89.22658-24.85034,135.0024-25.67111,2.66079,5.67904,4.49389,11.74717,4.58996,19.59193.06938,5.66373-1.12808,11.40444-2.32162,17.6807,10.43628-9.88829,15.35598-24.00701,12.82578-37.2571,42.20349.81088,84.3414,8.17139,124.9069,22.11626,2.30459.79213,3.7395-2.46313,1.58793-3.60777Z"/><path d="m501.24176,518.2482c9.0063,19.74829,9.59071,49.05683,1.57417,69.90965-.54932,1.42891-2.59815,1.42902-3.14754.00013-8.01341-20.84167-7.43727-50.14998,1.57337-69.90978h0Z" fill="#fff"/><path d="m500.77637,558.56055c-8.70605,0-16.89062-3.39062-23.0459-9.5459l-20.26123-20.26074c-9.49854-9.49902-12.20557-23.1084-7.06494-35.51855,5.14014-12.41016,16.67773-20.11914,30.11035-20.11914h40.52246c13.43262,0,24.96973,7.70898,30.11035,20.11914s2.43359,26.02051-7.06445,35.51855l-20.26074,20.26074c-6.15625,6.15527-14.34082,9.5459-23.0459,9.5459Z"/><path d="m521.03699,475.48993c26.92126,0,40.40344,32.54892,21.36725,51.58514l-20.26111,20.26111c-5.90039,5.90045-13.63385,8.85065-21.36728,8.85065s-15.46686-2.9502-21.36728-8.85065l-20.26114-20.26111c-19.03619-19.03622-5.55399-51.58514,21.36728-51.58514h40.52228m0-4.74734h-40.52228c-14.41083,0-26.78888,8.27072-32.30365,21.58456-5.5148,13.31387-2.6105,27.91479,7.5795,38.1048l20.26117,20.26111c6.604,6.60406,15.38455,10.24109,24.72412,10.24109s18.12009-3.63702,24.72415-10.24109l20.26111-20.26111c10.19-10.19,13.0943-24.79092,7.57953-38.1048-5.51483-13.31384-17.89282-21.58456-32.30365-21.58456h0Z" fill="#fff"/><path d="m486.21857,541.37731l-17.00845-17.00845c-15.98012-15.98021-4.66236-43.30386,17.93708-43.30386h-5.6785c-22.59934,0-33.9172,27.32364-17.93699,43.30386l17.00845,17.00845c5.67693,5.67693,13.3734,8.08435,20.77624,7.25486-5.5153-.61801-10.8684-3.02544-15.09783-7.25486Z" fill="#fff"/><path d="m322.95105,291.40451c-36.33046,28.07261-63.40973,67.85928-75.31298,112.22704-3.40784,12.52847-5.54616,25.20163-7.16819,38.12281-.43829-7.44793-.36645-14.95147.25365-22.43322,4.38542-52.37162,35.65214-102.92728,82.22752-127.91663h0Z" fill="#fff"/><path d="m676.54913,291.40451c46.57624,24.99078,77.8412,75.54342,82.22767,127.91641.61999,7.48197.69183,14.98551.25366,22.43341-1.62218-12.92094-3.76037-25.59421-7.16836-38.1228-11.90345-44.36808-38.98227-84.15411-75.31296-112.22702h0Z" fill="#fff"/><circle cx="403.17642" cy="572.08149" r="3.3972" fill="#4f4f4f"/><circle cx="403.17642" cy="601.88524" r="3.3972" fill="#4f4f4f"/><circle cx="388.27454" cy="586.98337" r="3.3972" fill="#4f4f4f"/><circle cx="418.0783" cy="586.98337" r="3.3972" fill="#4f4f4f"/><circle cx="605.47042" cy="572.08149" r="3.3972" fill="#4f4f4f"/><circle cx="605.47042" cy="601.88524" r="3.3972" fill="#4f4f4f"/><circle cx="590.56854" cy="586.98337" r="3.3972" fill="#4f4f4f"/><circle cx="620.3723" cy="586.98337" r="3.3972" fill="#4f4f4f"/></g></svg>