<svg xmlns="http://www.w3.org/2000/svg" xmlns:xlink="http://www.w3.org/1999/xlink" width="500" zoomAndPan="magnify" viewBox="0 0 375 374.999991" height="500" preserveAspectRatio="xMidYMid meet" version="1.0"><defs><g/><clipPath id="ba9ed3576a"><path d="M 75 1 L 304.824219 1 L 304.824219 327 L 75 327 Z M 75 1 " clip-rule="nonzero"/></clipPath></defs><path fill="#ffffff" d="M 80.597656 185.019531 C 79.96875 192.523438 82.667969 199.878906 85.5 206.855469 C 90.332031 218.785156 95.761719 230.648438 103.785156 240.679688 C 116.417969 256.40625 134.871094 266.773438 154.371094 271.863281 C 173.867188 276.949219 194.375 277.054688 214.398438 274.808594 C 229.6875 273.085938 245.375 269.804688 258.019531 260.988281 C 261.171875 258.746094 264.136719 256.277344 266.914062 253.585938 C 273.648438 247.152344 279.527344 240.015625 284.550781 232.171875 C 289.574219 224.328125 293.601562 216 296.632812 207.191406 C 298.257812 202.457031 299.582031 197.5625 299.828125 192.5625 C 300.578125 177.511719 291.71875 163.871094 283.210938 151.429688 C 268.75 130.273438 254.078125 108.867188 234.839844 91.953125 C 222.210938 80.855469 206.253906 71.472656 189.570312 73.28125 C 175.324219 74.824219 163.285156 84.140625 152.164062 93.179688 C 123.957031 116.136719 95.222656 140.828125 80.578125 174.175781 " fill-opacity="1" fill-rule="nonzero"/><path fill="#ffffff" d="M 80.265625 185.019531 C 79.703125 195.761719 84.554688 205.976562 88.824219 215.578125 C 93.089844 225.183594 98.128906 234.511719 104.917969 242.554688 C 117.429688 257.304688 135.089844 267.054688 153.644531 272.015625 C 175.769531 277.941406 199.453125 277.59375 221.957031 274.167969 C 231.800781 272.671875 241.632812 270.277344 250.542969 265.816406 C 260.214844 260.988281 268.230469 253.492188 275.210938 245.339844 C 281.601562 237.859375 286.96875 229.710938 291.320312 220.886719 C 295.8125 211.761719 300.15625 201.378906 300.222656 191.074219 C 300.28125 181.4375 296.492188 172.34375 291.765625 164.125 C 286.121094 154.289062 279.332031 145.011719 272.792969 135.761719 C 260.28125 118.042969 246.652344 100.261719 229.316406 86.972656 C 214.027344 75.261719 195.351562 68.460938 176.757812 76.453125 C 166.242188 80.96875 157.339844 88.542969 148.550781 95.738281 C 139.472656 103.167969 130.492188 110.722656 121.960938 118.757812 C 105.015625 134.644531 89.828125 152.613281 80.285156 173.972656 C 80.113281 174.359375 80.691406 174.699219 80.867188 174.308594 C 96.605469 139.058594 127.359375 113.023438 157.089844 89.695312 C 165.144531 83.375 173.867188 77.269531 183.917969 74.675781 C 194.980469 71.824219 206.273438 74.246094 216.28125 79.378906 C 234.40625 88.691406 248.753906 105.070312 261.066406 120.945312 C 267.488281 129.21875 273.484375 137.796875 279.40625 146.429688 C 284.890625 154.410156 290.648438 162.390625 294.730469 171.199219 C 299.96875 182.507812 300.710938 193.652344 296.871094 205.539062 C 293.820312 214.910156 289.628906 223.742188 284.292969 232.03125 C 272.832031 249.921875 257.214844 264.621094 236.429688 270.472656 C 216.394531 276.089844 193.957031 277.234375 173.335938 274.992188 C 150.8125 272.527344 128.382812 264.394531 111.65625 248.660156 C 103.269531 240.777344 97.03125 231.148438 92 220.839844 C 86.722656 210 80.28125 197.351562 80.933594 185 C 80.933594 184.570312 80.265625 184.570312 80.265625 185 Z M 80.265625 185.019531 " fill-opacity="1" fill-rule="nonzero"/><path fill="#38b6ff" d="M 106.304688 246.597656 C 105.730469 248.730469 105.351562 250.902344 105.171875 253.105469 C 104.996094 255.3125 105.019531 257.515625 105.246094 259.714844 C 105.476562 261.914062 105.902344 264.078125 106.527344 266.199219 C 107.152344 268.320312 107.964844 270.367188 108.964844 272.339844 C 114.285156 282.640625 124.367188 289.84375 135.269531 293.742188 C 146.171875 297.636719 157.871094 298.554688 169.460938 298.910156 C 169.746094 297.859375 170.113281 296.839844 170.554688 295.84375 C 171 294.851562 171.519531 293.898438 172.109375 292.988281 C 172.699219 292.074219 173.359375 291.210938 174.082031 290.398438 C 174.804688 289.585938 175.589844 288.835938 176.429688 288.144531 C 177.269531 287.453125 178.15625 286.832031 179.09375 286.277344 C 180.027344 285.722656 181 285.246094 182.011719 284.839844 C 183.019531 284.4375 184.054688 284.113281 185.113281 283.871094 C 186.171875 283.625 187.246094 283.464844 188.332031 283.382812 C 189.414062 283.304688 190.5 283.308594 191.582031 283.398438 C 192.667969 283.488281 193.738281 283.660156 194.792969 283.910156 C 195.851562 284.164062 196.882812 284.5 197.890625 284.910156 C 198.894531 285.324219 199.863281 285.8125 200.796875 286.375 C 201.726562 286.9375 202.609375 287.566406 203.441406 288.265625 C 204.277344 288.964844 205.050781 289.722656 205.769531 290.539062 C 206.484375 291.355469 207.136719 292.226562 207.71875 293.144531 C 208.300781 294.0625 208.8125 295.019531 209.246094 296.015625 C 210.085938 297.929688 210.929688 300.253906 212.941406 300.796875 C 214 300.980469 215.03125 300.890625 216.039062 300.53125 L 237.851562 294.738281 C 250.914062 291.265625 265.242188 286.898438 272.300781 275.367188 C 277.539062 266.8125 277.546875 256.152344 276.953125 246.144531 C 275.511719 247.390625 274.046875 248.609375 272.550781 249.792969 C 271.058594 250.976562 269.539062 252.128906 267.996094 253.246094 C 266.453125 254.363281 264.886719 255.445312 263.296875 256.496094 C 261.703125 257.546875 260.089844 258.558594 258.457031 259.539062 C 256.820312 260.519531 255.164062 261.460938 253.488281 262.371094 C 251.8125 263.277344 250.117188 264.148438 248.40625 264.980469 C 246.691406 265.8125 244.960938 266.609375 243.210938 267.367188 C 241.464844 268.125 239.699219 268.84375 237.917969 269.527344 C 236.140625 270.207031 234.34375 270.851562 232.539062 271.453125 C 230.730469 272.054688 228.910156 272.621094 227.078125 273.144531 C 225.246094 273.667969 223.402344 274.152344 221.550781 274.59375 C 219.695312 275.039062 217.832031 275.441406 215.964844 275.804688 C 214.09375 276.164062 212.214844 276.488281 210.328125 276.769531 C 208.445312 277.046875 206.554688 277.289062 204.660156 277.488281 C 202.765625 277.683594 200.863281 277.84375 198.964844 277.957031 C 197.0625 278.074219 195.15625 278.148438 193.25 278.179688 C 191.347656 278.210938 189.441406 278.203125 187.535156 278.152344 C 185.632812 278.101562 183.726562 278.011719 181.828125 277.878906 C 179.925781 277.746094 178.027344 277.570312 176.136719 277.355469 C 174.242188 277.140625 172.355469 276.882812 170.472656 276.585938 C 168.589844 276.285156 166.714844 275.949219 164.847656 275.566406 C 162.980469 275.1875 161.121094 274.769531 159.273438 274.308594 C 157.421875 273.847656 155.585938 273.347656 153.757812 272.804688 C 151.929688 272.265625 150.117188 271.683594 148.3125 271.066406 C 146.511719 270.445312 144.722656 269.789062 142.949219 269.089844 C 141.175781 268.390625 139.417969 267.65625 137.679688 266.882812 C 135.9375 266.109375 134.210938 265.296875 132.507812 264.449219 C 130.800781 263.597656 129.113281 262.710938 127.445312 261.789062 C 125.777344 260.867188 124.132812 259.910156 122.503906 258.914062 C 120.878906 257.917969 119.277344 256.890625 117.695312 255.828125 C 116.113281 254.761719 114.558594 253.664062 113.023438 252.53125 C 111.492188 251.398438 109.984375 250.234375 108.5 249.039062 " fill-opacity="1" fill-rule="nonzero"/><path fill="#38b6ff" d="M 105.988281 246.503906 C 102.203125 261.445312 107.789062 276.296875 119.8125 285.742188 C 133.875 296.765625 152.183594 298.683594 169.433594 299.253906 C 169.601562 299.253906 169.707031 299.171875 169.753906 299.007812 C 174.589844 283.339844 194.722656 278.523438 205.648438 291.082031 C 208.523438 294.40625 209.246094 301.191406 214.4375 301.210938 C 217.503906 301.210938 221.476562 299.425781 224.464844 298.636719 L 237.046875 295.3125 C 247.988281 292.398438 259.960938 289.207031 268.238281 280.964844 C 277.546875 271.714844 277.917969 258.472656 277.234375 246.171875 C 277.226562 246.027344 277.15625 245.925781 277.023438 245.871094 C 276.886719 245.816406 276.765625 245.839844 276.660156 245.9375 C 253.515625 265.75 223.71875 277.347656 193.199219 277.859375 C 162.679688 278.371094 132.523438 267.8125 108.710938 248.804688 C 108.378906 248.539062 107.902344 249.003906 108.242188 249.269531 C 152.886719 284.910156 216.558594 287.976562 264.191406 256.246094 C 266.667969 254.597656 269.085938 252.863281 271.449219 251.046875 C 272.546875 250.195312 274.226562 248.191406 275.472656 247.8125 C 277.464844 247.207031 276.769531 249.421875 276.800781 251.191406 C 277 258.925781 276.433594 267.019531 272.6875 273.964844 C 265.953125 286.433594 251.082031 290.839844 238.335938 294.253906 C 234.214844 295.355469 230.09375 296.441406 225.980469 297.539062 C 221.863281 298.636719 213.898438 302.308594 210.636719 298.285156 C 209.082031 296.367188 208.515625 293.628906 206.945312 291.578125 C 205.378906 289.578125 203.527344 287.894531 201.390625 286.527344 C 200.3125 285.832031 199.179688 285.242188 197.996094 284.753906 C 196.8125 284.265625 195.597656 283.882812 194.34375 283.613281 C 193.09375 283.34375 191.828125 283.1875 190.546875 283.144531 C 189.269531 283.101562 187.996094 283.171875 186.726562 283.355469 C 185.460938 283.542969 184.21875 283.839844 183.007812 284.246094 C 181.792969 284.65625 180.625 285.167969 179.503906 285.785156 C 178.382812 286.40625 177.324219 287.117188 176.328125 287.925781 C 175.335938 288.734375 174.421875 289.625 173.589844 290.59375 C 172.753906 291.550781 172.007812 292.570312 171.347656 293.65625 C 170.761719 294.625 170.246094 296.789062 169.472656 297.644531 C 167.367188 299.953125 159.023438 298.078125 156.175781 297.796875 C 146.699219 296.859375 137.164062 294.890625 128.617188 290.542969 C 112.164062 282.148438 101.90625 265.285156 106.625 246.664062 C 106.648438 246.570312 106.636719 246.484375 106.589844 246.402344 C 106.542969 246.320312 106.472656 246.265625 106.382812 246.242188 C 106.289062 246.214844 106.203125 246.226562 106.121094 246.273438 C 106.039062 246.324219 105.984375 246.390625 105.960938 246.484375 Z M 105.988281 246.503906 " fill-opacity="1" fill-rule="nonzero"/><path fill="#5271ff" d="M 193.265625 285.414062 C 192.207031 285.085938 191.121094 284.878906 190.015625 284.800781 C 188.910156 284.71875 187.808594 284.769531 186.710938 284.945312 C 185.617188 285.121094 184.554688 285.417969 183.527344 285.839844 C 182.5 286.261719 181.539062 286.796875 180.632812 287.445312 C 176.972656 290.105469 174.8125 294.351562 173.320312 298.628906 C 172.761719 300.019531 172.488281 301.464844 172.503906 302.964844 C 172.707031 304.585938 173.222656 306.097656 174.054688 307.5 C 177.078125 313.351562 181.792969 319.351562 188.359375 319.832031 C 191.625 320.070312 194.820312 318.859375 197.734375 317.363281 C 200.816406 315.773438 203.855469 313.6875 205.417969 310.585938 C 207.164062 307.109375 206.746094 302.859375 205.230469 299.28125 C 203.714844 295.703125 201.242188 292.628906 198.738281 289.636719 C 197.359375 287.96875 195.945312 286.265625 194.082031 285.167969 " fill-opacity="1" fill-rule="nonzero"/><path fill="#5271ff" d="M 193.351562 285.097656 C 183.8125 282.554688 176.773438 288.6875 173.507812 297.257812 C 171.46875 302.578125 172.628906 306.21875 175.6875 310.9375 C 177.929688 314.398438 180.847656 317.769531 184.769531 319.320312 C 191.960938 322.164062 203.109375 317.128906 206.042969 310.007812 C 209.671875 301.203125 201.261719 289.625 194.269531 284.882812 C 193.917969 284.644531 193.605469 285.222656 193.9375 285.453125 C 199.972656 289.550781 206.859375 298.863281 206.222656 306.429688 C 205.476562 315.167969 192.828125 321.726562 185.035156 318.667969 C 181.617188 317.335938 179.019531 314.617188 176.953125 311.664062 C 174.101562 307.59375 172.296875 303.824219 173.667969 298.722656 C 176.085938 289.917969 183.777344 283.242188 193.164062 285.746094 C 193.257812 285.769531 193.34375 285.757812 193.425781 285.710938 C 193.507812 285.664062 193.558594 285.59375 193.585938 285.5 C 193.609375 285.410156 193.597656 285.324219 193.546875 285.242188 C 193.5 285.160156 193.429688 285.105469 193.339844 285.082031 Z M 193.351562 285.097656 " fill-opacity="1" fill-rule="nonzero"/><path fill="#5271ff" d="M 82.015625 193.757812 C 86.742188 187.773438 94.734375 185.246094 102.34375 184.925781 C 112.828125 184.488281 123.113281 187.585938 133.589844 188.527344 C 144.066406 189.464844 158.398438 188.558594 165.164062 180.546875 C 170.757812 173.929688 171.699219 164.617188 171.640625 155.9375 C 171.539062 141.222656 168.371094 125.53125 170.398438 110.957031 C 171.515625 102.976562 171.269531 95.128906 174.871094 87.886719 C 176.640625 84.3125 179.910156 80.617188 183.707031 79.390625 C 188.046875 77.996094 192.898438 80.488281 195.566406 84.1875 C 198.230469 87.886719 199.183594 92.527344 199.851562 97.042969 C 203.003906 118.109375 201.800781 135.222656 205.125 156.230469 C 206.847656 167.15625 207.652344 182.246094 216.425781 188.964844 C 223.519531 194.390625 236.214844 196.558594 244.445312 193.101562 C 255.335938 188.527344 263.425781 176.394531 275.230469 176.761719 C 281.253906 176.941406 286.777344 180.644531 290.355469 185.492188 C 293.933594 190.339844 295.800781 196.246094 297.078125 202.117188 C 298.871094 197.585938 300.226562 192.925781 301.144531 188.136719 C 302.0625 183.347656 302.527344 178.515625 302.535156 173.636719 C 302.542969 168.761719 302.097656 163.929688 301.195312 159.136719 C 300.296875 154.34375 298.957031 149.679688 297.175781 145.136719 C 294.144531 137.511719 289.824219 130.09375 289.519531 121.863281 C 289.253906 114.777344 292.023438 107.996094 293.710938 101.121094 C 298.460938 81.832031 294.730469 61.609375 290.992188 42.117188 C 289 31.730469 286.917969 21.09375 281.488281 12.023438 C 270.898438 30.121094 259.5625 47.695312 247.476562 64.75 C 244.851562 68.433594 241.714844 72.421875 237.226562 73.085938 C 233.269531 73.6875 229.507812 71.503906 225.859375 69.863281 C 206.308594 61.070312 183.707031 66.84375 162.738281 71.304688 C 156.171875 72.703125 149.164062 73.925781 142.894531 71.539062 C 139.339844 70.207031 136.300781 67.753906 133.449219 65.234375 C 129.460938 61.695312 125.71875 57.917969 122.222656 53.890625 C 118.726562 49.867188 115.507812 45.632812 112.5625 41.1875 C 109.621094 36.742188 106.976562 32.125 104.636719 27.335938 C 102.296875 22.542969 100.273438 17.621094 98.574219 12.570312 C 96.476562 15.53125 94.601562 18.628906 92.949219 21.863281 C 91.292969 25.097656 89.882812 28.429688 88.707031 31.867188 C 87.53125 35.304688 86.609375 38.804688 85.9375 42.375 C 85.269531 45.945312 84.855469 49.542969 84.699219 53.167969 C 84.109375 67.742188 87.746094 82.117188 91.347656 96.257812 C 88.550781 91.164062 87.078125 85.714844 86.933594 79.90625 C 86.40625 83.371094 86.289062 86.847656 86.582031 90.339844 C 86.875 93.835938 87.570312 97.246094 88.667969 100.574219 C 90.171875 105.101562 92.417969 109.445312 93.015625 114.179688 C 94.035156 122.226562 90.183594 129.976562 87.273438 137.550781 C 85.566406 142.011719 84.160156 146.566406 83.054688 151.214844 C 81.949219 155.863281 81.152344 160.5625 80.664062 165.316406 C 80.179688 170.070312 80.007812 174.832031 80.148438 179.609375 C 80.292969 184.382812 80.75 189.128906 81.515625 193.847656 " fill-opacity="1" fill-rule="nonzero"/><path fill="#5271ff" d="M 82.253906 194 C 93.816406 180.417969 113.492188 186.144531 128.53125 188.265625 C 138.847656 189.714844 151.179688 190.261719 160.511719 184.769531 C 170.445312 178.9375 172 166.441406 171.9375 155.957031 C 171.851562 140.617188 168.914062 125.527344 170.800781 110.175781 C 171.804688 101.964844 171.652344 92.8125 176.511719 85.703125 C 179.675781 81.046875 185.070312 77.644531 190.625 80.449219 C 194.800781 82.558594 197.082031 86.726562 198.285156 91.089844 C 202.324219 105.65625 201.609375 121.808594 202.652344 136.792969 C 203.515625 149.355469 204.6875 162.730469 207.9375 174.917969 C 210.742188 185.484375 217.164062 192.109375 228 194.390625 C 233.417969 195.535156 239.359375 195.601562 244.546875 193.464844 C 250.527344 190.992188 255.402344 186.410156 260.648438 182.699219 C 267.425781 177.90625 275.113281 175.144531 282.957031 179.40625 C 291.339844 183.96875 294.75 193.511719 296.730469 202.285156 C 296.808594 202.632812 297.261719 202.5625 297.394531 202.285156 C 298.804688 198.691406 299.941406 195.015625 300.8125 191.253906 C 301.679688 187.496094 302.269531 183.691406 302.582031 179.84375 C 302.894531 176 302.921875 172.148438 302.667969 168.296875 C 302.417969 164.449219 301.882812 160.636719 301.070312 156.863281 C 299.285156 148.667969 295.628906 141.46875 292.640625 133.710938 C 289.050781 124.402344 289.816406 116.296875 292.515625 106.851562 C 297.097656 90.804688 296.789062 74.929688 294.246094 58.511719 C 291.832031 42.96875 289.75 25.785156 281.773438 11.957031 C 281.742188 11.910156 281.703125 11.871094 281.652344 11.84375 C 281.601562 11.816406 281.546875 11.800781 281.488281 11.800781 C 281.429688 11.800781 281.375 11.816406 281.324219 11.84375 C 281.273438 11.871094 281.234375 11.910156 281.203125 11.957031 C 272.59375 26.554688 263.515625 40.847656 253.964844 54.847656 C 249.871094 60.832031 244.214844 72.894531 235.75 72.875 C 231.761719 72.875 228.125 70.421875 224.550781 68.957031 C 220.824219 67.449219 216.976562 66.386719 213.003906 65.773438 C 198.710938 63.503906 184.164062 66.4375 170.199219 69.398438 C 161.988281 71.144531 152.800781 74.191406 144.445312 71.738281 C 136.867188 69.515625 130.605469 62.546875 125.367188 56.921875 C 119.4375 50.527344 114.242188 43.582031 109.78125 36.089844 C 105.320312 28.59375 101.691406 20.71875 98.894531 12.457031 C 98.851562 12.316406 98.757812 12.238281 98.613281 12.21875 C 98.46875 12.199219 98.359375 12.253906 98.28125 12.375 C 96.03125 15.59375 94.035156 18.960938 92.296875 22.480469 C 90.558594 26.003906 89.097656 29.636719 87.914062 33.378906 C 86.730469 37.125 85.835938 40.9375 85.234375 44.816406 C 84.632812 48.699219 84.328125 52.601562 84.320312 56.527344 C 84.320312 64.96875 85.683594 73.355469 87.472656 81.582031 C 88.421875 85.964844 89.605469 90.585938 90.796875 94.707031 C 89.46875 89.945312 87.546875 85.324219 87.300781 79.90625 C 87.300781 79.550781 86.703125 79.425781 86.636719 79.816406 C 85.304688 89.453125 87.300781 97.648438 90.625 106.640625 C 92.730469 112.363281 93.449219 117.75 91.953125 123.757812 C 90.769531 128.484375 88.730469 132.929688 87 137.464844 C 85.300781 141.941406 83.894531 146.511719 82.789062 151.175781 C 81.683594 155.835938 80.886719 160.550781 80.394531 165.316406 C 79.902344 170.082031 79.726562 174.859375 79.855469 179.648438 C 79.988281 184.441406 80.429688 189.199219 81.183594 193.933594 C 81.25 194.351562 81.894531 194.171875 81.847656 193.753906 C 79.914062 181.671875 79.992188 169.601562 82.082031 157.546875 C 84.03125 146.5 88.691406 136.765625 91.941406 126.152344 C 93.128906 122.261719 93.855469 118.171875 93.335938 114.109375 C 92.625 108.546875 89.753906 103.554688 88.304688 98.191406 C 87.394531 94.839844 86.886719 91.425781 86.78125 87.953125 C 86.734375 86.621094 86.867188 85.292969 86.847656 83.960938 C 86.847656 82.433594 86.460938 80.421875 86.816406 83.0625 C 87.429688 87.789062 88.84375 92.261719 91.0625 96.476562 C 91.242188 96.816406 91.761719 96.578125 91.675781 96.21875 C 87.101562 78.234375 82.714844 59.859375 86.503906 41.351562 C 88.203125 32.96875 91.230469 25.097656 95.582031 17.738281 C 96.082031 16.90625 97.398438 13.851562 98.363281 13.972656 C 99.125 14.070312 100.191406 17.996094 100.496094 18.773438 C 101.824219 22.175781 103.320312 25.511719 104.984375 28.789062 C 108.316406 35.417969 112.21875 41.695312 116.683594 47.617188 C 121.152344 53.539062 126.117188 59.011719 131.574219 64.035156 C 136.394531 68.433594 141.414062 72.375 148.101562 73.085938 C 155.796875 73.914062 163.683594 71.445312 171.136719 69.863281 C 187.460938 66.390625 205.269531 62.917969 221.539062 68.53125 C 227.15625 70.46875 233.539062 75.402344 239.714844 72.714844 C 245.523438 70.195312 249.226562 62.878906 252.617188 57.972656 C 257.757812 50.535156 262.753906 43 267.605469 35.359375 C 269.890625 31.792969 272.132812 28.203125 274.339844 24.59375 C 275.410156 22.84375 280.078125 13.046875 281.925781 13.546875 C 282.769531 13.78125 284.253906 18.347656 284.492188 18.933594 C 285.351562 21.007812 286.105469 23.121094 286.753906 25.273438 C 287.929688 29.195312 288.820312 33.117188 289.625 37.082031 C 291.414062 45.859375 293.109375 54.691406 294.277344 63.578125 C 295.449219 72.460938 296.050781 81.652344 295.140625 90.679688 C 294.230469 99.703125 290.574219 108.089844 289.410156 117.046875 C 288.507812 124.050781 290.476562 130.433594 293.1875 136.820312 C 296.632812 144.914062 299.894531 152.78125 301.226562 161.539062 C 302.652344 170.675781 302.457031 179.78125 300.640625 188.851562 C 300.230469 190.859375 299.75 192.855469 299.191406 194.835938 C 298.949219 195.667969 298.054688 200.335938 297.257812 200.667969 C 297.296875 200.667969 294.628906 192.808594 294.25 191.910156 C 289.636719 181.078125 278.835938 173.078125 266.996094 178.164062 C 260.914062 180.785156 256.066406 185.550781 250.65625 189.238281 C 244.09375 193.707031 237.261719 195.300781 229.382812 193.984375 C 221.996094 192.753906 215.023438 189.238281 211.433594 182.433594 C 208.210938 176.363281 207.238281 169.273438 206.292969 162.550781 C 203.988281 146.175781 203.128906 129.910156 201.902344 113.4375 C 201.335938 105.820312 200.964844 97.59375 198.722656 90.246094 C 197.179688 85.210938 193.96875 80.308594 188.539062 78.992188 C 183.285156 77.714844 178.746094 81.246094 175.90625 85.371094 C 171.738281 91.441406 171.253906 99.109375 170.550781 106.207031 C 169.671875 114.851562 169.132812 123.113281 169.707031 131.796875 C 170.257812 140.078125 171.242188 148.34375 171.242188 156.648438 C 171.242188 164.957031 170.363281 174.394531 164.488281 180.730469 C 159.289062 186.332031 151.117188 187.980469 143.792969 188.390625 C 128.503906 189.269531 113.417969 182.671875 98.175781 184.992188 C 91.820312 185.957031 85.996094 188.566406 81.78125 193.527344 C 81.503906 193.851562 81.976562 194.324219 82.253906 194 Z M 82.253906 194 " fill-opacity="1" fill-rule="nonzero"/><path fill="#38b6ff" d="M 98.878906 12.855469 C 97.058594 20.652344 95.789062 28.539062 95.078125 36.511719 C 94.367188 44.488281 94.21875 52.472656 94.632812 60.472656 C 95.046875 68.46875 96.023438 76.394531 97.554688 84.253906 C 99.089844 92.113281 101.164062 99.824219 103.785156 107.390625 L 95.003906 113.441406 C 94.667969 113.722656 94.28125 113.894531 93.847656 113.96875 C 92.785156 114.035156 92.179688 112.8125 91.855469 111.792969 C 83.875 85.277344 84.375 56.507812 91.5625 29.753906 C 93.050781 24.207031 94.886719 18.582031 98.566406 14.160156 " fill-opacity="1" fill-rule="nonzero"/><path fill="#38b6ff" d="M 98.554688 12.769531 C 95.703125 24.984375 94.214844 37.367188 94.089844 49.910156 C 93.960938 62.453125 95.199219 74.863281 97.804688 87.132812 C 98.699219 91.371094 99.765625 95.578125 100.988281 99.734375 C 101.5 101.472656 102.980469 104.164062 102.949219 105.941406 C 102.902344 108.328125 100.910156 108.972656 99.234375 110.128906 C 98.277344 110.796875 95.949219 113.101562 94.839844 113.15625 C 91.667969 113.308594 91.410156 109.066406 90.851562 107.003906 C 89.753906 102.804688 88.871094 98.5625 88.191406 94.277344 C 86.734375 85.167969 86.148438 76.007812 86.429688 66.789062 C 86.703125 57.554688 87.78125 48.410156 89.652344 39.363281 C 91.421875 30.769531 93.335938 21.453125 98.828125 14.390625 C 99.085938 14.058594 98.621094 13.585938 98.355469 13.917969 C 92.484375 21.492188 90.492188 31.570312 88.675781 40.785156 C 86.507812 51.792969 85.519531 62.902344 85.71875 74.117188 C 85.90625 85.042969 87.339844 95.800781 90.019531 106.394531 C 90.492188 108.234375 90.902344 114.027344 93.753906 114.285156 C 94.691406 114.375 95.683594 113.335938 96.414062 112.863281 C 98.972656 111.222656 101.441406 109.398438 103.941406 107.675781 C 104.089844 107.589844 104.140625 107.464844 104.09375 107.296875 C 101.503906 99.738281 99.449219 92.039062 97.933594 84.195312 C 96.417969 76.351562 95.449219 68.441406 95.039062 60.460938 C 94.625 52.484375 94.765625 44.515625 95.460938 36.558594 C 96.160156 28.597656 97.40625 20.726562 99.199219 12.941406 C 99.292969 12.53125 98.65625 12.351562 98.535156 12.769531 Z M 98.554688 12.769531 " fill-opacity="1" fill-rule="nonzero"/><path fill="#38b6ff" d="M 280.960938 12.855469 C 282.785156 20.652344 284.050781 28.539062 284.761719 36.511719 C 285.472656 44.488281 285.621094 52.476562 285.207031 60.472656 C 284.789062 68.46875 283.816406 76.394531 282.28125 84.253906 C 280.75 92.113281 278.671875 99.824219 276.050781 107.390625 L 284.839844 113.441406 C 285.175781 113.722656 285.5625 113.894531 285.996094 113.96875 C 287.050781 114.035156 287.664062 112.8125 287.988281 111.792969 C 296.007812 85.277344 295.472656 56.507812 288.289062 29.753906 C 286.800781 24.207031 284.964844 18.582031 281.28125 14.160156 " fill-opacity="1" fill-rule="nonzero"/><path fill="#38b6ff" d="M 280.617188 12.941406 C 282.410156 20.726562 283.65625 28.597656 284.351562 36.558594 C 285.046875 44.515625 285.1875 52.484375 284.773438 60.464844 C 284.355469 68.441406 283.390625 76.355469 281.871094 84.195312 C 280.351562 92.039062 278.296875 99.742188 275.703125 107.296875 C 275.664062 107.460938 275.714844 107.585938 275.855469 107.675781 L 282.765625 112.429688 C 283.507812 112.949219 285.003906 114.425781 286.085938 114.285156 C 288.800781 113.875 289.117188 109.101562 289.625 107.179688 C 292.433594 96.335938 293.9375 85.316406 294.132812 74.117188 C 294.324219 63.175781 293.390625 52.332031 291.324219 41.585938 C 289.523438 32.128906 287.542969 21.695312 281.5 13.917969 C 281.242188 13.585938 280.777344 14.058594 281.035156 14.390625 C 286.527344 21.453125 288.441406 30.769531 290.210938 39.363281 C 292.082031 48.410156 293.160156 57.554688 293.433594 66.789062 C 293.714844 76.007812 293.128906 85.167969 291.671875 94.277344 C 290.980469 98.558594 290.09375 102.800781 289.011719 107.003906 C 288.46875 109.066406 288.214844 113.308594 285.023438 113.15625 C 283.921875 113.101562 281.59375 110.789062 280.636719 110.128906 C 278.953125 108.972656 276.96875 108.328125 276.921875 105.941406 C 276.886719 104.164062 278.371094 101.472656 278.882812 99.734375 C 280.105469 95.578125 281.167969 91.371094 282.066406 87.132812 C 283.753906 79.136719 284.859375 71.0625 285.390625 62.90625 C 286.484375 45.992188 285.117188 29.277344 281.28125 12.769531 C 281.1875 12.351562 280.542969 12.523438 280.617188 12.941406 Z M 280.617188 12.941406 " fill-opacity="1" fill-rule="nonzero"/><path fill="#38b6ff" d="M 173.992188 238.835938 C 173.394531 240.765625 174.113281 242.824219 174.925781 244.6875 C 176.386719 248.042969 178.160156 251.222656 180.242188 254.230469 C 182.789062 257.890625 186.453125 261.546875 190.878906 261.234375 C 195.007812 260.949219 198.066406 257.335938 200.1875 253.792969 C 202.304688 250.261719 204.011719 246.542969 205.304688 242.632812 C 205.632812 241.890625 205.695312 241.125 205.496094 240.339844 C 205.21875 239.773438 204.820312 239.308594 204.300781 238.957031 L 192.667969 229.40625 C 192.085938 228.859375 191.421875 228.453125 190.671875 228.183594 C 188.304688 227.515625 186.304688 229.878906 184.691406 231.753906 C 183.019531 233.695312 181.101562 235.347656 178.929688 236.707031 C 176.757812 238.070312 174.433594 239.078125 171.960938 239.734375 " fill-opacity="1" fill-rule="nonzero"/><path fill="#38b6ff" d="M 173.675781 238.742188 C 173.007812 243.171875 175.667969 247.429688 177.867188 251.113281 C 180.070312 254.796875 182.839844 259.09375 186.976562 260.835938 C 194.953125 264.238281 200.230469 255.15625 203.058594 249.21875 C 204.242188 246.722656 206.964844 242.488281 205.582031 239.792969 C 204.699219 238.070312 202.160156 236.726562 200.703125 235.535156 C 198.144531 233.429688 195.644531 231.09375 192.945312 229.164062 C 190.890625 227.703125 189.417969 227.238281 187.210938 228.78125 C 185.003906 230.324219 183.597656 232.769531 181.566406 234.445312 C 178.707031 236.789062 175.5 238.453125 171.9375 239.441406 C 171.847656 239.464844 171.777344 239.519531 171.730469 239.597656 C 171.679688 239.679688 171.667969 239.769531 171.695312 239.859375 C 171.71875 239.953125 171.769531 240.023438 171.851562 240.070312 C 171.933594 240.117188 172.019531 240.128906 172.113281 240.105469 C 174.59375 239.382812 176.925781 238.335938 179.113281 236.960938 C 181.304688 235.585938 183.261719 233.941406 184.988281 232.019531 C 185.535156 231.355469 186.113281 230.6875 186.71875 230.109375 C 189.570312 228.121094 191.921875 228.324219 193.769531 230.730469 C 195.066406 231.78125 196.355469 232.851562 197.644531 233.90625 C 200.664062 236.382812 205.625 238.835938 204.777344 243.296875 C 203.601562 249.574219 197.40625 260.875 190.242188 260.714844 C 185.335938 260.617188 182.183594 256.566406 179.683594 252.792969 C 177.183594 249.023438 173.613281 243.625 174.3125 238.949219 C 174.378906 238.53125 173.734375 238.351562 173.648438 238.769531 Z M 173.675781 238.742188 " fill-opacity="1" fill-rule="nonzero"/><path fill="#004aad" d="M 153.410156 171.734375 C 157.847656 174.347656 161.867188 167.449219 157.441406 164.84375 C 151.230469 161.191406 143.480469 161.296875 136.527344 162.269531 C 129.402344 163.265625 123.039062 166.386719 119.15625 172.617188 C 116.429688 176.988281 123.332031 181.003906 126.042969 176.648438 C 128.863281 172.125 134.019531 170.421875 139.074219 169.957031 C 143.8125 169.519531 149.191406 169.253906 153.410156 171.734375 Z M 153.410156 171.734375 " fill-opacity="1" fill-rule="nonzero"/><path fill="#004aad" d="M 232.984375 149.878906 C 226.917969 153.40625 225.601562 160.621094 225.804688 167.109375 C 225.804688 167.871094 225.890625 168.652344 225.992188 169.453125 C 226.089844 172.832031 226.851562 176.058594 228.285156 179.121094 C 230.792969 184.375 235.855469 188.851562 242.027344 187.253906 C 248.675781 185.53125 251.664062 178.84375 252.609375 172.625 C 253.554688 166.40625 253.9375 158.660156 249.949219 153.339844 C 249.472656 152.710938 248.941406 152.128906 248.359375 151.59375 C 247.777344 151.0625 247.152344 150.585938 246.480469 150.164062 C 245.8125 149.742188 245.113281 149.386719 244.378906 149.09375 C 243.644531 148.796875 242.890625 148.574219 242.117188 148.414062 C 241.34375 148.257812 240.5625 148.171875 239.773438 148.152344 C 238.984375 148.136719 238.199219 148.191406 237.417969 148.316406 C 236.640625 148.441406 235.875 148.636719 235.132812 148.898438 C 234.386719 149.160156 233.671875 149.488281 232.984375 149.878906 Z M 232.984375 149.878906 " fill-opacity="1" fill-rule="nonzero"/><g clip-path="url(#ba9ed3576a)"><path fill="#004aad" d="M 291.671875 119.539062 C 291.972656 119.1875 292.210938 118.792969 292.390625 118.363281 C 299.882812 100.179688 300.453125 80.238281 299.164062 60.863281 C 297.835938 40.527344 294.382812 21.1875 284.359375 3.207031 C 282.5625 -0.0117188 278.203125 1.097656 277.046875 4.15625 C 272.488281 16.421875 266.789062 28.128906 259.949219 39.277344 C 253.414062 49.917969 246.046875 60.613281 236.792969 69.089844 C 229.3125 66.269531 221.625 64.207031 213.738281 62.898438 C 205.847656 61.59375 197.90625 61.066406 189.914062 61.324219 C 181.925781 61.070312 173.988281 61.597656 166.101562 62.90625 C 158.21875 64.210938 150.535156 66.277344 143.054688 69.097656 C 133.800781 60.617188 126.433594 49.929688 119.902344 39.285156 C 113.058594 28.132812 107.359375 16.421875 102.804688 4.15625 C 101.667969 1.105469 97.296875 -0.0078125 95.492188 3.207031 C 85.484375 21.214844 82.054688 40.535156 80.707031 60.863281 C 79.417969 80.238281 79.988281 100.179688 87.480469 118.363281 C 87.667969 118.8125 87.917969 119.214844 88.238281 119.582031 C 72.941406 150.898438 70.234375 189.230469 84.792969 221.273438 C 88.527344 229.394531 93.308594 236.84375 99.132812 243.625 C 98.707031 252.683594 98.46875 262.066406 101.507812 270.730469 C 104.542969 279.394531 110.367188 285.273438 117.8125 290.269531 C 125.199219 295.144531 133.085938 298.988281 141.46875 301.808594 C 149.855469 304.625 158.464844 306.320312 167.292969 306.894531 C 167.484375 308.277344 167.796875 309.628906 168.230469 310.953125 C 168.664062 312.277344 169.210938 313.554688 169.875 314.78125 C 170.539062 316.007812 171.304688 317.164062 172.175781 318.25 C 173.046875 319.339844 174.007812 320.339844 175.054688 321.257812 C 176.105469 322.171875 177.230469 322.988281 178.425781 323.699219 C 179.625 324.414062 180.875 325.015625 182.179688 325.503906 C 183.484375 325.992188 184.824219 326.363281 186.195312 326.609375 C 187.566406 326.859375 188.945312 326.984375 190.339844 326.984375 C 191.734375 326.984375 193.117188 326.859375 194.488281 326.609375 C 195.859375 326.363281 197.195312 325.992188 198.5 325.503906 C 199.804688 325.015625 201.054688 324.414062 202.253906 323.699219 C 203.449219 322.988281 204.574219 322.171875 205.625 321.257812 C 206.675781 320.339844 207.636719 319.339844 208.507812 318.25 C 209.375 317.164062 210.144531 316.007812 210.804688 314.78125 C 211.46875 313.554688 212.015625 312.277344 212.449219 310.953125 C 212.886719 309.628906 213.195312 308.277344 213.386719 306.894531 C 231.128906 305.710938 248.488281 300.144531 263.304688 290.214844 C 270.539062 285.367188 276.28125 279.628906 279.378906 271.347656 C 282.804688 262.183594 282.417969 252.167969 281.953125 242.566406 C 281.9375 242.398438 281.914062 242.234375 281.878906 242.066406 C 297.097656 223.175781 304.15625 199.777344 304.480469 175.203125 C 304.582031 165.550781 303.550781 156.019531 301.382812 146.609375 C 299.21875 137.203125 295.980469 128.179688 291.671875 119.539062 Z M 167.605469 298.960938 C 159.941406 298.441406 152.457031 297 145.144531 294.644531 C 137.835938 292.289062 130.917969 289.082031 124.394531 285.03125 C 117.539062 280.746094 111.585938 275.832031 108.957031 267.945312 C 107.21875 262.699219 106.796875 257.230469 106.824219 251.742188 C 114.488281 258.988281 123.046875 264.9375 132.503906 269.601562 C 148.347656 277.382812 165.671875 281.011719 183.1875 281.730469 C 181.25 282.359375 179.425781 283.230469 177.714844 284.339844 C 176.007812 285.449219 174.46875 286.757812 173.101562 288.269531 C 171.734375 289.78125 170.585938 291.441406 169.652344 293.253906 C 168.722656 295.066406 168.039062 296.96875 167.605469 298.960938 Z M 190.339844 319.152344 C 189.335938 319.152344 188.34375 319.054688 187.355469 318.859375 C 186.371094 318.664062 185.417969 318.371094 184.488281 317.988281 C 183.5625 317.605469 182.679688 317.132812 181.847656 316.574219 C 181.011719 316.015625 180.238281 315.382812 179.527344 314.671875 C 178.820312 313.960938 178.183594 313.191406 177.628906 312.355469 C 177.070312 311.519531 176.597656 310.636719 176.214844 309.710938 C 175.832031 308.78125 175.539062 307.824219 175.34375 306.839844 C 175.148438 305.855469 175.050781 304.859375 175.050781 303.855469 C 175.050781 302.851562 175.148438 301.859375 175.34375 300.871094 C 175.539062 299.886719 175.832031 298.929688 176.214844 298.003906 C 176.597656 297.074219 177.070312 296.195312 177.628906 295.359375 C 178.183594 294.523438 178.820312 293.75 179.527344 293.039062 C 180.238281 292.332031 181.011719 291.695312 181.847656 291.136719 C 182.679688 290.582031 183.5625 290.109375 184.488281 289.726562 C 185.417969 289.339844 186.371094 289.050781 187.355469 288.855469 C 188.34375 288.660156 189.335938 288.5625 190.339844 288.5625 C 191.34375 288.5625 192.339844 288.660156 193.324219 288.855469 C 194.308594 289.050781 195.265625 289.339844 196.191406 289.726562 C 197.117188 290.109375 198 290.582031 198.835938 291.136719 C 199.667969 291.695312 200.441406 292.332031 201.152344 293.039062 C 201.863281 293.75 202.496094 294.523438 203.054688 295.359375 C 203.609375 296.195312 204.082031 297.074219 204.464844 298.003906 C 204.851562 298.929688 205.140625 299.886719 205.335938 300.871094 C 205.53125 301.859375 205.628906 302.851562 205.628906 303.855469 C 205.628906 304.859375 205.53125 305.855469 205.335938 306.839844 C 205.140625 307.824219 204.851562 308.78125 204.464844 309.710938 C 204.082031 310.636719 203.609375 311.519531 203.054688 312.355469 C 202.496094 313.191406 201.863281 313.960938 201.152344 314.671875 C 200.441406 315.382812 199.667969 316.015625 198.835938 316.574219 C 198 317.132812 197.117188 317.605469 196.191406 317.988281 C 195.265625 318.371094 194.308594 318.664062 193.324219 318.859375 C 192.339844 319.054688 191.34375 319.152344 190.339844 319.152344 Z M 272.386719 267.238281 C 269.8125 275.484375 263.835938 280.585938 256.726562 285.03125 C 250.136719 289.121094 243.152344 292.347656 235.765625 294.710938 C 228.382812 297.074219 220.820312 298.503906 213.082031 298.996094 C 212.863281 297.996094 212.582031 297.015625 212.238281 296.054688 C 211.890625 295.09375 211.484375 294.160156 211.015625 293.25 C 210.546875 292.34375 210.019531 291.46875 209.4375 290.628906 C 208.851562 289.789062 208.21875 288.992188 207.53125 288.238281 C 206.84375 287.480469 206.109375 286.773438 205.328125 286.113281 C 204.546875 285.457031 203.726562 284.851562 202.867188 284.296875 C 202.003906 283.746094 201.113281 283.253906 200.1875 282.820312 C 199.261719 282.386719 198.3125 282.015625 197.339844 281.703125 C 225.847656 280.300781 253.613281 270.832031 274.28125 250.527344 C 274.382812 256.152344 274.074219 261.8125 272.386719 267.238281 Z M 243.800781 262.484375 C 228.257812 270.207031 211.066406 273.4375 193.835938 273.84375 L 188.074219 273.84375 C 158.71875 273.425781 129.890625 264.378906 109.117188 242.699219 C 91.722656 224.542969 83.855469 200.929688 83.371094 175.894531 C 82.914062 151.855469 90.191406 128.785156 103.566406 108.886719 C 106.445312 104.609375 94.261719 108.613281 93.097656 110.542969 C 88.019531 95.101562 87.59375 78.699219 88.582031 62.445312 C 89.59375 45.875 91.960938 29.972656 98.554688 14.976562 C 102.644531 24.792969 107.460938 34.234375 113.007812 43.308594 C 119.296875 53.550781 126.390625 63.921875 135.011719 72.457031 C 129.8125 74.855469 119.628906 90.414062 123.957031 87.625 C 128.523438 84.667969 133.273438 82.050781 138.210938 79.773438 C 143.152344 77.492188 148.226562 75.578125 153.4375 74.023438 C 158.652344 72.46875 163.945312 71.289062 169.328125 70.492188 C 174.707031 69.691406 180.117188 69.277344 185.554688 69.25 C 186.011719 69.390625 186.480469 69.445312 186.957031 69.417969 C 187.953125 69.355469 188.949219 69.335938 189.953125 69.304688 C 190.957031 69.269531 191.949219 69.355469 192.953125 69.417969 C 193.429688 69.445312 193.898438 69.390625 194.355469 69.25 C 199.792969 69.28125 205.199219 69.695312 210.578125 70.492188 C 215.957031 71.292969 221.25 72.46875 226.460938 74.023438 C 231.671875 75.578125 236.746094 77.496094 241.679688 79.773438 C 246.617188 82.054688 251.371094 84.671875 255.933594 87.625 C 260.261719 90.417969 250.078125 74.855469 244.878906 72.457031 C 253.519531 63.9375 260.59375 53.550781 266.882812 43.308594 C 272.40625 34.238281 277.207031 24.796875 281.28125 14.988281 C 287.882812 29.988281 290.25 45.894531 291.253906 62.460938 C 292.242188 78.699219 291.816406 95.09375 286.738281 110.5625 C 285.589844 108.648438 273.390625 104.636719 276.269531 108.914062 C 288.339844 126.871094 295.621094 147.527344 296.40625 169.234375 C 296.996094 185.40625 294.636719 202.996094 287.875 217.839844 C 279.074219 237.238281 262.753906 253.054688 243.800781 262.484375 Z M 243.800781 262.484375 " fill-opacity="1" fill-rule="nonzero"/></g><path fill="#004aad" d="M 231.96875 220.726562 C 231.742188 229.710938 221.292969 235.457031 213.269531 235.496094 C 205.066406 235.542969 197.945312 230.550781 193.769531 223.765625 C 197.917969 221.769531 201.640625 218.757812 203.285156 214.355469 C 206.042969 206.972656 199.960938 203.800781 193.617188 203.109375 C 188.367188 202.539062 177.515625 202.050781 175.617188 208.617188 C 174.019531 214.121094 180.1875 219.488281 184.257812 223.300781 C 180.121094 230.316406 172.871094 235.542969 164.488281 235.496094 C 156.464844 235.457031 146.011719 229.710938 145.789062 220.726562 C 145.652344 215.597656 137.675781 215.578125 137.808594 220.726562 C 138.121094 233.242188 150.273438 242.1875 161.933594 243.339844 C 164.230469 243.566406 166.515625 243.5 168.796875 243.136719 C 172.226562 252.488281 178.375 265.65625 189.621094 266.101562 C 201.367188 266.574219 208.5625 253.066406 211.265625 243.40625 C 212.789062 243.511719 214.308594 243.488281 215.828125 243.339844 C 227.488281 242.195312 239.632812 233.257812 239.953125 220.726562 C 240.066406 215.597656 232.089844 215.597656 231.96875 220.726562 Z M 189.542969 258.070312 C 182.75 257.222656 178.605469 246.824219 176.441406 240.824219 C 178.894531 239.683594 181.175781 238.257812 183.28125 236.554688 C 185.386719 234.851562 187.25 232.914062 188.878906 230.75 C 190.738281 233.230469 192.910156 235.398438 195.386719 237.261719 C 197.867188 239.121094 200.554688 240.601562 203.457031 241.695312 C 201.734375 247.566406 196.960938 259 189.542969 258.070312 Z M 189.542969 258.070312 " fill-opacity="1" fill-rule="nonzero"/><g fill="#004aad" fill-opacity="1"><g transform="translate(52.922967, 368.224166)"><g><path d="M 17.636719 -40.652344 C 15.34375 -40.652344 9.40625 -40.484375 7.503906 -39.363281 C 3.695312 -37.125 3.695312 -25.589844 3.695312 -21.613281 C 3.695312 -17.078125 3.136719 -3.078125 8.34375 -1.175781 C 11.085938 -0.167969 14.726562 -0.167969 17.636719 -0.167969 C 28.949219 -0.167969 38.1875 -9.070312 38.1875 -20.496094 C 38.1875 -32.140625 29.171875 -40.652344 17.636719 -40.652344 Z M 27.269531 -21.335938 C 27.269531 -13.832031 25.308594 -8.566406 16.796875 -8.566406 C 14.613281 -8.566406 14.78125 -16.742188 14.78125 -18.308594 C 14.78125 -21.78125 14.949219 -25.308594 14.949219 -28.78125 C 14.949219 -29.339844 15.007812 -29.84375 15.175781 -30.40625 C 15.511719 -31.523438 15.957031 -32.253906 17.246094 -32.253906 C 24.359375 -32.253906 27.269531 -28.109375 27.269531 -21.335938 Z M 27.269531 -21.335938 "/></g></g></g><g fill="#004aad" fill-opacity="1"><g transform="translate(95.813449, 368.224166)"><g><path d="M 20.605469 -40.707031 C 9.464844 -40.707031 1.175781 -31.355469 1.175781 -20.4375 C 1.175781 -8.792969 10.078125 -0.113281 21.671875 -0.113281 C 32.699219 -0.113281 41.324219 -9.632812 41.324219 -20.4375 C 41.324219 -32.253906 32.253906 -40.707031 20.605469 -40.707031 Z M 21.726562 -9.070312 C 15.621094 -9.070312 12.824219 -13.605469 12.824219 -19.261719 C 12.824219 -24.972656 14.167969 -31.75 21.222656 -31.75 C 28.445312 -31.75 29.621094 -25.03125 29.621094 -19.261719 C 29.621094 -14.558594 27.101562 -9.070312 21.726562 -9.070312 Z M 21.726562 -9.070312 "/></g></g></g><g fill="#004aad" fill-opacity="1"><g transform="translate(141.783501, 368.224166)"><g><path d="M 37.292969 -15.566406 C 37.292969 -17.359375 37.292969 -19.207031 36.957031 -20.941406 C 36.453125 -23.6875 35.109375 -24.636719 32.421875 -24.863281 C 30.628906 -25.03125 28.78125 -25.03125 26.933594 -25.03125 C 25.757812 -25.03125 24.582031 -25.140625 23.351562 -25.140625 C 20.101562 -25.140625 18.925781 -23.628906 18.925781 -20.496094 C 18.925781 -18.367188 19.652344 -16.855469 22.0625 -16.855469 C 22.511719 -16.855469 22.902344 -16.910156 23.292969 -16.910156 C 26.148438 -16.910156 26.429688 -15.566406 26.429688 -13.046875 C 26.429688 -10.472656 26.710938 -8.679688 23.460938 -8.679688 C 16.070312 -8.679688 12.824219 -13.382812 12.824219 -20.382812 C 12.824219 -28.277344 16.292969 -32.140625 24.300781 -32.140625 C 27.4375 -32.140625 29.902344 -31.078125 32.925781 -31.078125 C 34.15625 -31.078125 34.605469 -31.355469 34.605469 -32.644531 C 34.605469 -34.15625 34.4375 -36.171875 33.597656 -37.460938 C 31.078125 -41.269531 25.644531 -40.652344 21.671875 -40.652344 C 9.855469 -40.652344 1.175781 -31.804688 1.175781 -20.046875 C 1.175781 -8.960938 10.808594 -0.167969 21.726562 -0.167969 C 34.660156 -0.167969 37.292969 -2.574219 37.292969 -15.566406 Z M 37.292969 -15.566406 "/></g></g></g><g fill="#004aad" fill-opacity="1"><g transform="translate(186.073788, 368.224166)"><g><path d="M 29.734375 -39.8125 C 28.390625 -39.8125 26.933594 -39.867188 25.757812 -39.085938 C 25.03125 -38.582031 24.414062 -37.910156 23.910156 -37.179688 C 23.40625 -36.453125 23.070312 -35.558594 22.847656 -34.71875 C 22.453125 -33.316406 21.726562 -29.621094 19.933594 -29.621094 C 16.742188 -29.621094 17.636719 -39.867188 11.757812 -39.867188 C 10.304688 -39.867188 4.703125 -39.699219 4.703125 -37.628906 C 4.703125 -32.363281 10.640625 -26.652344 10.640625 -19.710938 C 10.640625 -14.949219 4.480469 -8.34375 4.480469 -3.472656 C 4.480469 -1.121094 9.742188 -0.953125 11.367188 -0.953125 C 17.917969 -0.953125 16.519531 -11.589844 19.652344 -11.589844 C 21.949219 -11.589844 23.125 -3.246094 24.863281 -1.792969 C 25.871094 -0.953125 27.214844 -0.953125 28.445312 -0.953125 C 30.460938 -0.953125 34.996094 -1.007812 34.996094 -3.917969 C 34.996094 -8.792969 28.894531 -15.117188 28.894531 -21.558594 C 28.894531 -26.261719 34.828125 -32.8125 34.828125 -37.40625 C 34.828125 -39.53125 31.300781 -39.8125 29.734375 -39.8125 Z M 29.734375 -39.8125 "/></g></g></g><g fill="#004aad" fill-opacity="1"><g transform="translate(229.24423, 368.224166)"><g><path d="M 9.519531 -11.535156 C 5.429688 -11.535156 4.535156 -9.6875 4.535156 -5.878906 C 4.535156 -1.121094 6.328125 -0.167969 10.808594 -0.167969 C 14.613281 -0.167969 17.132812 -0.785156 17.132812 -5.207031 C 17.132812 -8.679688 16.6875 -11.535156 12.488281 -11.535156 Z M 9.519531 -11.535156 "/></g></g></g><g fill="#004aad" fill-opacity="1"><g transform="translate(254.497173, 368.224166)"><g><path d="M 17.132812 -26.429688 C 17.132812 -29.171875 16.855469 -37.910156 14.335938 -39.421875 C 13.046875 -40.203125 11.984375 -40.148438 10.527344 -40.148438 C 9.464844 -40.148438 8.511719 -39.980469 7.617188 -39.476562 C 4.535156 -37.742188 4.421875 -27.269531 4.421875 -24.023438 C 4.421875 -21.613281 4.535156 -19.261719 4.535156 -16.855469 C 4.535156 -13.941406 4.648438 -2.910156 7.28125 -1.398438 C 8.457031 -0.726562 9.910156 -0.671875 11.253906 -0.671875 C 13.269531 -0.671875 14.894531 -1.566406 15.789062 -3.414062 C 16.964844 -5.824219 17.132812 -13.832031 17.132812 -16.6875 Z M 17.132812 -26.429688 "/></g></g></g><g fill="#004aad" fill-opacity="1"><g transform="translate(279.750116, 368.224166)"><g><path d="M 20.605469 -40.707031 C 9.464844 -40.707031 1.175781 -31.355469 1.175781 -20.4375 C 1.175781 -8.792969 10.078125 -0.113281 21.671875 -0.113281 C 32.699219 -0.113281 41.324219 -9.632812 41.324219 -20.4375 C 41.324219 -32.253906 32.253906 -40.707031 20.605469 -40.707031 Z M 21.726562 -9.070312 C 15.621094 -9.070312 12.824219 -13.605469 12.824219 -19.261719 C 12.824219 -24.972656 14.167969 -31.75 21.222656 -31.75 C 28.445312 -31.75 29.621094 -25.03125 29.621094 -19.261719 C 29.621094 -14.558594 27.101562 -9.070312 21.726562 -9.070312 Z M 21.726562 -9.070312 "/></g></g></g></svg>