<?xml version="1.0" encoding="UTF-8" standalone="no"?>
<svg
   width="480"
   zoomAndPan="magnify"
   viewBox="0 0 360 359.99999"
   height="480"
   preserveAspectRatio="xMidYMid meet"
   version="1.0"
   id="svg1259"
   xmlns="http://www.w3.org/2000/svg"
   xmlns:svg="http://www.w3.org/2000/svg">
  <defs
     id="defs1163">
    <g
       id="g1158" />
    <clipPath
       id="ba9ed3576a">
      <path
         d="M 75,1 H 304.82422 V 327 H 75 Z m 0,0"
         clip-rule="nonzero"
         id="path1160" />
    </clipPath>
  </defs>
  <g
     id="g1419"
     transform="matrix(1.1018521,0.001645,-0.00166268,0.99822429,-32.885211,-1.3724709)">
    <path
       fill="#ffffff"
       d="m 37.827485,204.60162 c -0.896157,8.30357 2.950083,16.44289 6.985573,24.16293 6.885382,13.201 14.622391,26.32851 26.055352,37.42876 18.001068,17.40249 44.29577,28.87448 72.08221,34.50673 27.78087,5.62794 57.00339,5.74463 85.5357,3.25919 21.78607,-1.90623 44.13991,-5.53715 62.15768,-15.2931 4.49193,-2.48113 8.71666,-5.21298 12.67422,-8.1912 9.59612,-7.1192 17.97324,-15.01645 25.13138,-23.69608 7.15812,-8.67964 12.89685,-17.89526 17.21622,-27.64257 2.31554,-5.2389 4.20249,-10.65502 4.55316,-16.18785 1.06871,-16.6547 -11.55543,-31.74897 -23.6786,-45.51623 C 305.93433,144.02141 285.02771,120.33396 257.61421,101.61741 239.6187,89.337116 216.88081,78.954406 193.10759,80.955736 172.80768,82.663135 155.65267,92.972361 139.80573,102.97469 99.612231,128.37818 58.667314,155.70087 37.799654,192.60228"
       fill-opacity="1"
       fill-rule="nonzero"
       id="path1165"
       style="stroke-width:1.25571" />
    <path
       fill="#ffffff"
       d="m 37.354359,204.60162 c -0.801532,11.88695 6.111681,23.19036 12.19553,33.81512 6.078284,10.6291 13.258671,20.95129 22.932717,29.85138 17.82852,16.32187 42.993274,27.11089 69.432694,32.60051 31.52693,6.55726 65.27476,6.17255 97.34161,2.38171 14.0268,-1.65554 28.0369,-4.30524 40.7334,-9.24157 13.78189,-5.34264 25.20372,-13.63757 35.15051,-22.65869 9.10628,-8.27763 16.75424,-17.29442 22.95498,-27.05902 6.40112,-10.09742 12.59073,-21.58669 12.68536,-32.98953 0.0835,-10.66367 -5.31572,-20.72651 -12.05082,-29.82111 C 330.6872,170.5963 321.01316,160.3303 311.69535,150.09455 293.86683,130.48758 274.44638,110.81143 249.74361,96.106192 227.95753,83.147258 201.34555,75.621738 174.85046,84.465627 c -14.98418,4.996843 -27.66953,13.378221 -40.19347,21.340323 -12.93583,8.22145 -25.73252,16.58121 -37.889082,25.47264 -24.146152,17.57973 -45.787508,37.46335 -59.385719,61.09892 -0.244912,0.42793 0.578885,0.80399 0.829364,0.37174 22.426197,-39.00649 66.248837,-67.81612 108.613127,-93.630256 11.4775,-6.993849 23.90681,-13.749958 38.22863,-16.620117 15.76346,-3.155443 31.85533,-0.475477 46.11592,5.204323 25.82713,10.304904 46.27176,28.42925 63.8164,45.99601 9.15083,9.15511 17.69494,18.64738 26.13327,28.20017 7.81495,8.83092 16.01951,17.66184 21.83618,27.40914 7.46427,12.51371 8.52185,24.84589 3.05029,37.99933 -4.3472,10.36975 -10.31973,20.14298 -17.92315,29.31539 -16.3312,19.79716 -38.58485,36.06283 -68.20257,42.53798 -28.54901,6.21579 -60.52123,7.48229 -89.90516,5.00117 -32.09468,-2.72753 -64.05576,-11.72701 -87.890197,-29.13817 -11.950623,-8.72285 -20.839826,-19.37787 -28.009088,-30.78503 -7.519928,-11.995 -16.698581,-25.99135 -15.769027,-39.65918 0,-0.47547 -0.951819,-0.47547 -0.951819,0 z m 0,0"
       fill-opacity="1"
       fill-rule="nonzero"
       id="path1167"
       style="stroke-width:1.25571" />
    <path
       fill="#38b6ff"
       d="m 74.458601,272.74194 c -0.818226,2.3601 -1.35815,4.76342 -1.614196,7.20133 -0.250469,2.44222 -0.217072,4.88013 0.10573,7.31371 0.328404,2.43358 0.935121,4.82827 1.825705,7.1754 0.890595,2.34713 2.048365,4.61214 3.473308,6.795 7.581155,11.39851 21.947502,19.36925 37.482742,23.68313 15.53525,4.30957 32.206,5.32536 48.7209,5.71871 0.40634,-1.16276 0.92955,-2.29094 1.55852,-3.39318 0.63455,-1.09793 1.37486,-2.15263 2.21536,-3.15978 0.84049,-1.01147 1.78118,-1.96674 2.81092,-2.86582 1.02975,-0.8991 2.14856,-1.72902 3.34529,-2.49411 1.19673,-0.76508 2.46025,-1.45237 3.79615,-2.06617 1.33031,-0.61379 2.7163,-1.14115 4.15794,-1.59069 1.43607,-0.44521 2.91112,-0.80399 4.41956,-1.07198 1.50843,-0.27231 3.03914,-0.44954 4.58655,-0.54032 1.54183,-0.0865 3.08923,-0.0821 4.63107,0.0173 1.5474,0.0994 3.07254,0.2896 4.5754,0.56626 1.50844,0.28095 2.97792,0.65269 4.414,1.10656 1.43051,0.45819 2.81092,0.9985 4.14124,1.62094 1.32476,0.62244 2.58272,1.31837 3.76832,2.09211 1.19117,0.77374 2.29327,1.6123 3.31744,2.51571 1.01862,0.90341 1.94818,1.86733 2.77754,2.88313 0.82936,1.01579 1.55853,2.07481 2.17638,3.17705 1.19673,2.11804 2.39904,4.68994 5.26562,5.29078 1.50844,0.20315 2.97792,0.10371 4.41399,-0.29394 l 31.08162,-6.41033 c 18.61336,-3.84272 39.03015,-8.6753 49.08827,-21.4354 7.46427,-9.46633 7.47539,-21.26252 6.62934,-32.33683 -2.05393,1.37889 -4.14126,2.72752 -6.27311,4.03723 -2.12629,1.30974 -4.29153,2.58488 -6.49017,3.82113 -2.19865,1.23623 -4.43069,2.43358 -6.69614,3.59633 -2.27101,1.16277 -4.56984,2.2823 -6.8965,3.36726 -2.33225,1.08495 -4.69232,2.12668 -7.08021,3.13383 -2.38789,1.00282 -4.80362,1.96674 -7.24162,2.88745 -2.44355,0.92069 -4.90938,1.80249 -7.40303,2.64106 -2.48809,0.83857 -5.00401,1.63391 -7.5422,2.39035 -2.53262,0.75212 -5.09306,1.46534 -7.66465,2.13101 -2.57715,0.66567 -5.17099,1.29244 -7.78153,1.87165 -2.61055,0.57922 -5.23779,1.11521 -7.87617,1.60366 -2.64394,0.49277 -5.29902,0.93798 -7.95966,1.33998 -2.66621,0.39768 -5.34354,0.75645 -8.03201,1.06767 -2.6829,0.30689 -5.37695,0.57489 -8.07656,0.79534 -2.69959,0.21613 -5.41033,0.39335 -8.1155,0.51871 -2.71073,0.12968 -5.42704,0.21181 -8.14334,0.24639 -2.71074,0.0346 -5.42704,0.0259 -8.14334,-0.0303 -2.71073,-0.0562 -5.42705,-0.15561 -8.1322,-0.30257 -2.71076,-0.14697 -5.41591,-0.34148 -8.10996,-0.57921 -2.69961,-0.23775 -5.38808,-0.52304 -8.07098,-0.85154 -2.6829,-0.33284 -5.35467,-0.70458 -8.01532,-1.12818 -2.66063,-0.41929 -5.31014,-0.88181 -7.94295,-1.39187 -2.63838,-0.51006 -5.25449,-1.06333 -7.85947,-1.66416 -2.60498,-0.59651 -5.1877,-1.24056 -7.75927,-1.92354 -2.56602,-0.68727 -5.11533,-1.41346 -7.64238,-2.18719 -2.52706,-0.77374 -5.03184,-1.58637 -7.5088,-2.44223 -2.48252,-0.85585 -4.94278,-1.75494 -7.36965,-2.69292 -2.43242,-0.94232 -4.83702,-1.92354 -7.21379,-2.94365 -2.37675,-1.02012 -4.720124,-2.07913 -7.041227,-3.18138 -2.31554,-1.10225 -4.597669,-2.23907 -6.85198,-3.4148 -2.254309,-1.18006 -4.469658,-2.39469 -6.657173,-3.64821 -2.18194,-1.25353 -4.330496,-2.54164 -6.445654,-3.86434"
       fill-opacity="1"
       fill-rule="nonzero"
       id="path1169"
       style="stroke-width:1.25571" />
    <path
       fill="#38b6ff"
       d="m 74.00774,272.63819 c -5.39364,16.53367 2.56602,32.96791 19.698761,43.41978 20.038299,12.19818 46.127049,14.32054 70.707359,14.95163 0.23934,0 0.38963,-0.0908 0.45643,-0.27232 6.89095,-17.33765 35.57911,-22.66732 51.14775,-8.7704 4.09672,3.67846 5.12646,11.1867 12.52393,11.2083 4.36947,0 10.03029,-1.97538 14.28844,-2.84854 l 17.92871,-3.67847 c 15.5909,-3.2246 32.65127,-6.75612 44.44604,-15.87664 13.26424,-10.23575 13.79304,-24.88911 12.81895,-38.50074 -0.0109,-0.15994 -0.11129,-0.27233 -0.30058,-0.33284 -0.19481,-0.0605 -0.36736,-0.0346 -0.51766,0.0735 -32.97969,21.92385 -75.43861,34.75744 -118.92729,35.32369 -43.48867,0.56625 -86.45968,-11.11755 -120.391196,-32.15095 -0.47313,-0.29395 -1.152205,0.22045 -0.667946,0.51437 63.616022,39.43874 154.344982,42.83192 222.219152,7.72003 3.52896,-1.8241 6.97444,-3.7433 10.34199,-5.75328 1.56409,-0.94231 3.95755,-3.15977 5.73317,-3.57906 2.83877,-0.66998 1.84798,1.78089 1.89251,3.739 0.28388,8.55859 -0.52322,17.51487 -5.8612,25.20033 -9.59612,13.7975 -30.78661,18.67331 -48.9491,22.45121 -5.87234,1.21895 -11.74468,2.42061 -17.60588,3.63524 -5.86677,1.21463 -17.21624,5.2778 -21.864,0.8256 -2.21535,-2.12236 -3.02245,-5.15245 -5.26007,-7.42178 -2.23203,-2.21314 -4.87041,-4.07614 -7.91512,-5.58903 -1.53627,-0.76942 -3.15047,-1.42211 -4.83702,-1.96242 -1.68655,-0.54032 -3.41764,-0.96393 -5.20439,-1.26218 -1.78118,-0.29825 -3.58464,-0.47115 -5.41034,-0.5187 -1.82016,-0.0475 -3.63472,0.0303 -5.44374,0.23341 -1.80345,0.20748 -3.57349,0.536 -5.29902,0.98554 -1.73108,0.45387 -3.39538,1.02012 -4.99287,1.70307 -1.5975,0.68729 -3.10593,1.47399 -4.52531,2.36875 -1.41382,0.89477 -2.71631,1.8803 -3.9019,2.95229 -1.19117,1.05902 -2.25432,2.18719 -3.19501,3.38886 -0.83492,1.07198 -1.56966,3.46666 -2.67176,4.41329 -3.00018,2.55462 -14.88957,0.4798 -18.94733,0.16858 -13.50359,-1.0374 -27.09066,-3.21596 -39.2695,-8.02693 -23.444808,-9.2891 -38.061628,-27.94946 -31.337661,-48.55494 0.03343,-0.10371 0.01666,-0.19884 -0.05009,-0.28961 -0.06675,-0.0908 -0.166984,-0.15128 -0.295007,-0.17722 -0.133586,-0.0303 -0.256045,-0.0174 -0.37294,0.0346 -0.116833,0.0562 -0.194816,0.12969 -0.228212,0.23342 z m 0,0"
       fill-opacity="1"
       fill-rule="nonzero"
       id="path1171"
       style="stroke-width:1.25571" />
    <path
       fill="#5271ff"
       d="m 198.37321,315.69488 c -1.50844,-0.36308 -3.05584,-0.59218 -4.63108,-0.67863 -1.57524,-0.0908 -3.14489,-0.0346 -4.709,0.15994 -1.55853,0.19451 -3.07253,0.52302 -4.53644,0.98985 -1.46391,0.46684 -2.83319,1.05902 -4.12455,1.77656 -5.21552,2.94364 -8.29362,7.64223 -10.41991,12.37539 -0.79597,1.53883 -1.18561,3.13817 -1.16334,4.79801 0.28943,1.79385 1.02417,3.46667 2.20978,5.01845 4.30824,6.47515 11.02663,13.11455 20.38339,13.64622 4.65334,0.26368 9.2065,-1.07631 13.35887,-2.73183 4.39174,-1.75928 8.72224,-4.0675 10.94871,-7.49959 2.48809,-3.84704 1.89251,-8.54996 -0.26717,-12.50939 -2.15969,-3.95944 -5.6831,-7.36126 -9.25102,-10.67231 -1.96487,-1.84573 -3.97984,-3.73035 -6.63491,-4.94498"
       fill-opacity="1"
       fill-rule="nonzero"
       id="path1173"
       style="stroke-width:1.25571" />
    <path
       fill="#5271ff"
       d="m 198.49567,315.34477 c -13.59266,-2.81397 -23.62293,3.97239 -28.27627,13.45603 -2.90555,5.88728 -1.25239,9.91587 3.10594,15.13748 3.19499,3.82976 7.35294,7.5601 12.9414,9.27615 10.24736,3.14679 26.13328,-2.42495 30.31349,-10.30491 5.171,-9.74298 -6.81302,-22.55494 -16.77651,-27.8025 -0.50095,-0.26368 -0.94625,0.37606 -0.47312,0.6311 8.59976,4.53432 18.41297,14.83923 17.50567,23.21196 -1.06315,9.6695 -19.08647,16.92701 -30.19104,13.54247 -4.87042,-1.47397 -8.57193,-4.48245 -11.51645,-7.75028 -4.06332,-4.50408 -6.63491,-8.67531 -4.68116,-14.32053 3.44548,-9.74298 14.40531,-17.13018 27.78086,-14.35944 0.1336,0.0259 0.25605,0.0129 0.37294,-0.0388 0.11695,-0.0519 0.18926,-0.12968 0.22822,-0.23343 0.0334,-0.0994 0.0167,-0.19451 -0.0557,-0.28528 -0.0667,-0.0908 -0.16698,-0.15129 -0.295,-0.17722 z m 0,0"
       fill-opacity="1"
       fill-rule="nonzero"
       id="path1175"
       style="stroke-width:1.25571" />
    <path
       fill="#5271ff"
       d="m 39.848013,214.27111 c 6.735095,-6.62211 18.123527,-9.41879 28.966468,-9.77323 14.939672,-0.48413 29.595455,2.94364 44.523989,3.98537 14.92853,1.03741 35.35089,0.0346 44.99154,-8.83092 7.97079,-7.32236 9.31224,-17.62726 9.22875,-27.23193 -0.14471,-16.28295 -4.6589,-33.64654 -1.77004,-49.77389 1.59192,-8.83092 1.24125,-17.51488 6.37328,-25.528846 2.52148,-3.955112 7.1804,-8.044223 12.59074,-9.401496 6.18403,-1.543142 13.09725,1.214629 16.89897,5.308063 3.79612,4.093433 5.15428,9.228599 6.1061,14.225429 4.49192,23.3114 2.77753,42.24838 7.51437,65.49494 2.45468,12.09011 3.60132,28.78802 16.10299,36.22278 10.10821,6.00399 28.19834,8.40299 39.9263,4.57756 15.51856,-5.06169 27.04615,-18.48746 43.86719,-18.08113 8.58306,0.19883 16.45366,4.29658 21.55229,9.66084 5.09863,5.36425 7.75928,11.89992 9.57942,18.39667 2.55488,-5.01413 4.48635,-10.1709 5.79441,-15.47033 1.30805,-5.29941 1.97043,-10.64638 1.98156,-16.04522 0.0109,-5.3945 -0.62341,-10.74148 -1.9092,-16.04521 -1.28023,-5.30375 -3.18943,-10.46484 -5.72762,-15.49194 -4.31936,-8.43757 -10.47557,-16.64605 -10.90974,-25.75361 -0.37849,-7.84107 3.56794,-15.34498 5.97253,-22.95262 6.76849,-21.344643 1.45277,-43.722365 -3.87407,-65.291774 -2.83876,-11.4936 -5.80554,-23.26384 -13.54255,-33.300748 -15.08995,20.026267 -31.24304,39.473315 -48.46485,58.345468 -3.74048,4.076144 -8.21012,8.489443 -14.60569,9.224274 -5.63854,0.665669 -10.9988,-1.750624 -16.19763,-3.566085 -27.85879,-9.730009 -60.06478,-3.341313 -89.94412,1.595013 -9.35676,1.547464 -19.34252,2.900414 -28.27626,0.25935 -5.06523,-1.47398 -9.39573,-4.188528 -13.45905,-6.976558 C 107.455,68.13512 102.12258,63.955237 97.140848,59.498711 92.159099,55.046509 87.572557,50.36089 83.375649,45.441854 79.184305,40.522819 75.41599,35.413592 72.081845,30.114174 68.747688,24.810432 65.864404,19.364049 63.443111,13.77502 c -2.98905,3.276477 -5.660822,6.70424 -8.015321,10.283292 -2.360066,3.579053 -4.369463,7.266169 -6.044886,11.069993 -1.675425,3.803823 -2.989047,7.676808 -3.946432,11.627597 -0.95182,3.950789 -1.541835,7.931837 -1.764483,11.943142 -0.840496,16.127349 4.341632,32.034249 9.473661,47.681796 -3.985396,-5.63658 -6.083849,-11.6665 -6.289799,-18.094099 -0.751436,3.834082 -0.918423,7.681131 -0.500957,11.545471 0.417464,3.868658 1.408246,7.642228 2.972347,11.325028 2.142985,5.00979 5.343546,9.81644 6.195174,15.05535 1.452776,8.90441 -4.03549,17.4803 -8.182304,25.86168 -2.432428,4.93634 -4.436258,9.9764 -6.011489,15.1202 -1.575234,5.14382 -2.710737,10.34381 -3.406512,15.60432 -0.690208,5.26052 -0.935121,10.52968 -0.734735,15.81613 0.205947,5.28214 0.857192,10.534 1.948166,15.75562"
       fill-opacity="1"
       fill-rule="nonzero"
       id="path1177"
       style="stroke-width:1.25571" />
    <path
       fill="#5271ff"
       d="m 40.187551,214.53912 c 16.475933,-15.02943 44.512851,-8.69261 65.942709,-6.34548 14.7003,1.60366 32.27278,2.20882 45.57042,-3.86866 14.15483,-6.45353 16.37017,-20.28129 16.28111,-31.88296 -0.12246,-16.97456 -4.30823,-33.67249 -1.61976,-50.66002 1.43051,-9.08595 1.21343,-19.21363 8.13778,-27.080628 4.5086,-5.152452 12.19553,-8.917373 20.11064,-5.813799 5.95027,2.334165 9.20093,6.946299 10.91532,11.774567 5.75544,16.1187 4.73684,33.99234 6.22301,50.57356 1.23012,13.90125 2.89998,28.70157 7.53105,42.18787 3.99652,11.69244 13.14735,19.02344 28.58798,21.5478 7.7203,1.26649 16.18649,1.33997 23.57839,-1.02444 8.52184,-2.73616 15.46846,-7.80649 22.94384,-11.91289 9.65736,-5.30374 20.61163,-8.35977 31.78854,-3.64389 11.94506,5.04871 16.80433,15.60865 19.6264,25.31704 0.11129,0.38471 0.757,0.3069 0.94625,0 2.00939,-3.97673 3.62917,-8.04422 4.87042,-12.20682 1.23571,-4.15826 2.07619,-8.3684 2.52148,-12.62609 0.4453,-4.25338 0.48426,-8.51539 0.12246,-12.77739 -0.35623,-4.25769 -1.1188,-8.47648 -2.27658,-12.65204 -2.54374,-9.06867 -7.7537,-17.03509 -12.01184,-25.61962 -5.11534,-10.30058 -4.02435,-19.26982 -0.1781,-29.7217 6.52914,-17.75694 6.0894,-35.323688 2.46581,-53.491269 -3.43991,-17.199335 -6.40669,-36.214131 -17.77285,-51.515877 -0.0445,-0.05187 -0.10016,-0.09509 -0.17255,-0.125353 -0.0724,-0.03026 -0.15029,-0.04755 -0.23379,-0.04755 -0.0835,0 -0.16142,0.01729 -0.23377,0.04755 -0.0723,0.03026 -0.12803,0.07348 -0.17255,0.125353 -12.26791,16.153284 -25.20374,31.969409 -38.81308,47.461347 -5.83337,6.622111 -13.89322,19.970074 -25.95516,19.948462 -5.68308,0 -10.86522,-2.714548 -15.95828,-4.335494 -5.31014,-1.668495 -10.79284,-2.844224 -16.45367,-3.522859 -20.3667,-2.51139 -41.0952,0.734828 -60.99434,4.011304 -11.70014,1.932169 -24.79183,5.303741 -36.69792,2.589193 C 118.00851,76.78882 109.0859,69.077431 101.62163,62.852993 93.172152,55.777017 85.76911,48.091563 79.412518,39.800956 73.055927,31.506027 67.884925,22.791813 63.899537,13.649666 c -0.06119,-0.155609 -0.194817,-0.242061 -0.400772,-0.263673 -0.205946,-0.02161 -0.361801,0.0389 -0.473119,0.172902 -3.20613,3.561762 -6.050455,7.28778 -8.527411,11.182377 -2.476956,3.89892 -4.558713,7.918871 -6.24527,12.05985 -1.686555,4.145305 -2.961213,8.364089 -3.818408,12.656359 -0.857195,4.296593 -1.291357,8.614796 -1.30249,12.958937 0,9.34098 1.942602,18.621446 4.491919,27.724687 1.352586,4.849875 3.039142,9.963425 4.736831,14.523695 -1.892506,-5.269165 -4.631074,-10.382713 -4.981744,-16.378059 0,-0.393349 -0.851628,-0.53167 -0.946252,-0.09942 -1.898072,10.663675 0.946252,19.732329 5.683083,29.682789 3.000179,6.33251 4.02436,12.29327 1.892506,18.94131 -1.686557,5.23026 -4.59211,10.1493 -7.057933,15.16774 -2.421296,4.95362 -4.425124,10.01098 -6.000358,15.17207 -1.575231,5.15678 -2.710735,10.37408 -3.412077,15.64755 -0.701338,5.27349 -0.951819,10.55994 -0.768133,15.85936 0.18925,5.30374 0.818231,10.56858 1.892506,15.80748 0.09462,0.4625 1.013046,0.26367 0.946252,-0.19884 -2.755266,-13.36957 -2.64394,-26.72619 0.333972,-40.0655 2.777531,-12.22411 9.418,-22.99584 14.049073,-34.74016 1.692122,-4.30523 2.727435,-8.83092 1.987132,-13.32634 -1.013048,-6.15528 -5.104202,-11.67947 -7.169258,-17.6143 -1.296924,-3.70873 -2.020529,-7.48661 -2.170816,-11.329334 -0.06679,-1.473982 0.122457,-2.943641 0.09463,-4.417623 0,-1.690109 -0.551052,-3.91621 -0.04452,-0.994182 0.873894,5.230258 2.888855,10.179549 6.050453,14.843549 0.256046,0.37606 0.99635,0.11239 0.873891,-0.28529 C 47.095206,86.436695 40.844371,66.103529 46.243578,45.623396 48.664873,36.347253 52.978673,27.63736 59.179413,19.493719 c 0.712472,-0.920697 2.588283,-4.300914 3.963124,-4.166915 1.085412,0.108064 2.604981,4.452203 3.039151,5.312387 1.892498,3.76492 4.024349,7.456358 6.395553,11.082958 4.74796,7.335329 10.308594,14.281628 16.67075,20.834581 6.367721,6.55295 13.442359,12.608811 21.218329,18.16758 6.86868,4.867166 14.02125,9.228596 23.55056,10.015296 10.96541,0.916374 22.20355,-1.815462 32.82385,-3.566085 23.26113,-3.842727 48.6374,-7.685453 71.82059,-1.473982 8.00419,2.143973 17.09935,7.603325 25.8995,4.629427 8.27694,-2.788031 13.55369,-10.884124 18.38515,-16.313219 7.32511,-8.230091 14.44427,-16.568245 21.35748,-25.023108 3.25623,-3.946467 6.45122,-7.918869 9.59612,-11.912884 1.52514,-1.936493 8.17673,-12.77739 10.80955,-12.224107 1.20229,0.259352 3.31744,5.312387 3.65699,5.960766 1.22456,2.295261 2.29883,4.633748 3.22282,7.015462 1.67543,4.339815 2.94452,8.679634 4.09116,13.066997 2.54931,9.712719 4.96504,19.485953 6.62933,29.319701 1.66986,9.829427 2.52706,20.000333 1.23014,29.989696 -1.29693,9.98503 -6.50688,19.2655 -8.16562,29.17705 -1.28579,7.75029 1.51957,14.8133 5.38251,21.88063 4.90938,8.95627 9.55717,17.66184 11.45522,27.35295 2.03167,10.11039 1.75336,20.1862 -0.83492,30.22311 -0.58445,2.22179 -1.26909,4.43059 -2.06506,6.62211 -0.3451,0.9207 -1.61976,6.08612 -2.75527,6.45353 0.0557,0 -3.74605,-8.69692 -4.28596,-9.69111 -6.57368,-11.98635 -21.9642,-20.8389 -38.83533,-15.21096 -8.66657,2.90042 -15.57422,8.17389 -23.28339,12.25436 -9.35121,4.94498 -19.08648,6.70858 -30.31349,5.25188 -10.52569,-1.36159 -20.46133,-5.25188 -25.57666,-12.78172 -4.59212,-6.71721 -5.9781,-14.56259 -7.32511,-22.00166 -3.28405,-18.12004 -4.50862,-36.11903 -6.25641,-54.34713 -0.80709,-8.42893 -1.33588,-17.53216 -4.53088,-25.662844 -2.19864,-5.571736 -6.77405,-10.996509 -14.51107,-12.4532 -7.48653,-1.413466 -13.95444,2.494098 -18.00107,7.058687 -5.93912,6.717207 -6.62934,15.202337 -7.63125,23.056367 -1.2524,9.56575 -2.02052,18.7079 -1.2023,28.31687 0.78483,9.16376 2.18752,18.31022 2.18752,27.49992 0,9.19402 -1.25239,19.63724 -9.62396,26.64839 -7.40859,6.19849 -19.05306,8.02259 -29.48969,8.47646 -21.78608,0.97256 -43.282713,-6.32818 -65.002007,-3.7606 -9.056196,1.06767 -17.355389,3.95512 -23.361312,9.44473 -0.395199,0.35877 0.278308,0.88179 0.673509,0.52303 z m 0,0"
       fill-opacity="1"
       fill-rule="nonzero"
       id="path1179"
       style="stroke-width:1.25571" />
    <path
       fill="#38b6ff"
       d="m 63.877268,14.090565 c -2.59384,8.627764 -4.402856,17.354945 -5.415903,26.177224 -1.013047,8.8266 -1.224563,17.661845 -0.634546,26.51438 0.590016,8.848214 1.981565,17.618621 4.163516,26.315545 2.187516,8.696926 5.143157,17.229586 8.878075,25.602336 l -12.512803,6.69558 c -0.478692,0.31123 -1.029745,0.50142 -1.647594,0.58355 -1.514004,0.0734 -2.376763,-1.27947 -2.838758,-2.40765 -11.371733,-29.341313 -10.65926,-61.176725 -0.417464,-90.781713 2.12072,-6.137988 4.736831,-12.362427 9.98018,-17.255528"
       fill-opacity="1"
       fill-rule="nonzero"
       id="path1181"
       style="stroke-width:1.25571" />
    <path
       fill="#38b6ff"
       d="m 63.415279,13.99547 c -4.063323,13.516543 -6.184043,27.218953 -6.36216,41.098587 -0.183685,13.879634 1.580799,27.612302 5.293452,41.189359 1.274652,4.689944 2.794221,9.345304 4.53644,13.944474 0.729175,1.92352 2.83877,4.90174 2.794233,6.8685 -0.06675,2.64106 -2.905552,3.35427 -5.293448,4.63375 -1.363714,0.73914 -4.681169,3.28943 -6.261969,3.34995 -4.519749,0.16859 -4.887119,-4.52569 -5.683084,-6.80798 -1.564101,-4.64672 -2.822059,-9.34098 -3.790577,-14.08279 -2.076191,-10.080134 -2.911119,-20.21646 -2.510353,-30.417626 0.389632,-10.218451 1.925903,-20.337489 4.59211,-30.348461 2.521485,-9.509559 5.248921,-19.818787 13.074988,-27.633915 0.367364,-0.367413 -0.295007,-0.890439 -0.673511,-0.523025 -8.365987,8.381381 -11.204746,19.533499 -13.793026,29.730341 -3.089239,12.180882 -4.497485,24.474148 -4.213609,36.884123 0.267177,12.090108 2.309971,23.994353 6.128379,35.717043 0.67351,2.03591 1.25796,8.44622 5.321282,8.73151 1.335886,0.0994 2.7497,-1.05038 3.790573,-1.57341 3.645856,-1.81546 7.16369,-3.83408 10.72606,-5.74032 0.211521,-0.0952 0.283878,-0.23342 0.217085,-0.41927 -3.690393,-8.3641 -6.618213,-16.8838 -8.777885,-25.563434 -2.159684,-8.679635 -3.540106,-17.432751 -4.124557,-26.263674 -0.590016,-8.8266 -0.389633,-17.644555 0.601151,-26.449542 0.996348,-8.809311 2.771961,-17.519204 5.326841,-26.133999 0.133599,-0.453865 -0.7737,-0.652702 -0.946248,-0.190191 z m 0,0"
       fill-opacity="1"
       fill-rule="nonzero"
       id="path1183"
       style="stroke-width:1.25571" />
    <path
       fill="#38b6ff"
       d="m 323.33426,14.090565 c 2.59942,8.627764 4.40285,17.354945 5.4159,26.177224 1.01305,8.8266 1.22456,17.666167 0.63456,26.51438 -0.59559,8.848214 -1.98158,17.618621 -4.16909,26.315545 -2.18195,8.696926 -5.14316,17.229586 -8.87808,25.602336 l 12.52394,6.69558 c 0.47869,0.31123 1.02974,0.50142 1.64758,0.58355 1.50288,0.0734 2.37677,-1.27947 2.83876,-2.40765 11.42741,-29.341313 10.66483,-61.176725 0.42861,-90.781713 -2.12072,-6.137988 -4.73683,-12.362427 -9.98576,-17.255528"
       fill-opacity="1"
       fill-rule="nonzero"
       id="path1185"
       style="stroke-width:1.25571" />
    <path
       fill="#38b6ff"
       d="m 322.84444,14.185661 c 2.55487,8.614795 4.33049,17.324688 5.32127,26.133999 0.99079,8.804987 1.19118,17.622942 0.60115,26.453866 -0.59558,8.826599 -1.97044,17.584039 -4.13568,26.25935 -2.16525,8.679634 -5.09307,17.203664 -8.78902,25.563434 -0.0557,0.18153 0.0167,0.31985 0.21707,0.41927 l 9.84661,5.26052 c 1.05757,0.5749 3.18943,2.20881 4.73126,2.05321 3.8685,-0.45387 4.31937,-5.73601 5.04298,-7.86269 4.00208,-11.99933 6.14507,-24.193179 6.42338,-36.585863 0.27274,-12.107399 -1.05757,-24.106734 -4.00209,-35.998005 -2.56602,-10.464838 -5.38808,-22.010309 -13.99898,-30.616459 -0.36738,-0.367414 -1.02974,0.155612 -0.66238,0.523025 7.82608,7.815128 10.5535,18.124356 13.075,27.633915 2.6662,10.010972 4.20247,20.13001 4.5921,30.348461 0.40078,10.201166 -0.43415,20.337492 -2.51035,30.417626 -0.98521,4.73749 -2.24873,9.43175 -3.79057,14.08279 -0.77371,2.28229 -1.13551,6.97657 -5.68309,6.80798 -1.56967,-0.0605 -4.88712,-2.61944 -6.25083,-3.34995 -2.39904,-1.27948 -5.22665,-1.99269 -5.29346,-4.63375 -0.0501,-1.96676 2.06507,-4.94498 2.79423,-6.8685 1.74222,-4.59917 3.25623,-9.25453 4.53645,-13.944474 2.40459,-8.848212 3.97983,-17.782875 4.73684,-26.808312 1.55852,-18.716541 -0.38964,-37.212634 -5.85565,-55.479634 -0.13358,-0.462511 -1.052,-0.272319 -0.94624,0.190191 z m 0,0"
       fill-opacity="1"
       fill-rule="nonzero"
       id="path1187"
       style="stroke-width:1.25571" />
    <path
       fill="#38b6ff"
       d="m 170.90961,264.15308 c -0.85163,2.13532 0.17256,4.4133 1.33032,6.47514 2.08175,3.71305 4.60881,7.23158 7.5756,10.55994 3.62915,4.0502 8.85024,8.09609 15.15673,7.75028 5.88347,-0.31554 10.2418,-4.31387 13.26424,-8.23442 3.01688,-3.90755 5.44932,-8.02259 7.29172,-12.34945 0.46755,-0.82127 0.55661,-1.66849 0.27274,-2.53732 -0.3952,-0.62677 -0.96296,-1.14114 -1.70325,-1.53017 l -16.57612,-10.56859 c -0.82937,-0.60515 -1.77563,-1.0547 -2.84433,-1.35294 -3.37311,-0.73916 -6.22301,1.87597 -8.52185,3.95079 -2.38233,2.14829 -5.11534,3.97671 -8.21013,5.48095 -3.09482,1.50857 -6.40669,2.62379 -9.93009,3.34997"
       fill-opacity="1"
       fill-rule="nonzero"
       id="path1189"
       style="stroke-width:1.25571" />
    <path
       fill="#38b6ff"
       d="m 170.45874,264.04934 c -0.95181,4.90174 2.83876,9.6133 5.97254,13.68944 3.13932,4.07615 7.08575,8.83092 12.98036,10.75877 11.36617,3.76492 18.8861,-6.28496 22.91602,-12.8552 1.68655,-2.76209 5.56618,-7.44771 3.59576,-10.43026 -1.25797,-1.90623 -4.87599,-3.39317 -6.95218,-4.71155 -3.64586,-2.32985 -7.20822,-4.9147 -11.05446,-7.05004 -2.92782,-1.61663 -5.02627,-2.13101 -8.17118,-0.42361 -3.14489,1.7074 -5.14872,4.4133 -8.04314,6.26766 -4.07445,2.59353 -8.6443,4.43492 -13.72067,5.52852 -0.12801,0.0259 -0.22821,0.0865 -0.29501,0.17289 -0.0723,0.0908 -0.0891,0.1902 -0.0501,0.28962 0.0334,0.10371 0.10573,0.18155 0.22265,0.23341 0.11683,0.0519 0.23935,0.0649 0.37293,0.0389 3.53454,-0.79967 6.85756,-1.95811 9.97462,-3.47963 3.12262,-1.52153 5.9113,-3.34131 8.37155,-5.46799 0.77927,-0.73484 1.60307,-1.47399 2.46583,-2.11372 4.06332,-2.20017 7.41417,-1.9754 10.04697,0.68728 1.84798,1.16276 3.68484,2.34713 5.52166,3.51421 4.30269,2.74049 11.37174,5.45503 10.16389,10.39137 -1.67543,6.94629 -10.50342,19.45135 -20.71182,19.27413 -6.99113,-0.10801 -11.48306,-4.59051 -15.04541,-8.76608 -3.56237,-4.17124 -8.64986,-10.14498 -7.65353,-15.31903 0.0946,-0.46252 -0.82378,-0.66135 -0.94624,-0.19883 z m 0,0"
       fill-opacity="1"
       fill-rule="nonzero"
       id="path1191"
       style="stroke-width:1.25571" />
    <path
       fill="#004aad"
       d="m 141.58134,189.9007 c 6.32319,2.89177 12.05081,-4.7418 5.74431,-7.62494 -8.85024,-4.04156 -19.89358,-3.92484 -29.8014,-2.84854 -10.15274,1.10224 -19.220069,4.55595 -24.75287,11.45038 -3.885197,4.8369 5.950267,9.28046 9.81321,4.46084 4.01878,-5.00548 11.36616,-6.8901 18.56881,-7.40448 6.7518,-0.48412 14.41644,-0.77806 20.42794,1.96674 z m 0,0"
       fill-opacity="1"
       fill-rule="nonzero"
       id="path1193"
       style="stroke-width:1.25571" />
    <path
       fill="#004aad"
       d="m 254.97026,165.71617 c -8.64429,3.90324 -10.52009,11.88694 -10.23065,19.06667 0,0.84289 0.12246,1.70739 0.26717,2.59351 0.13915,3.73899 1.22457,7.3094 3.26735,10.69826 3.5735,5.8138 10.78729,10.76741 19.58187,8.99949 9.47366,-1.90623 13.7318,-9.30639 15.07882,-16.18786 1.34703,-6.88145 1.89251,-15.45303 -3.79057,-21.34031 -0.67907,-0.69593 -1.43608,-1.33999 -2.26545,-1.93218 -0.82936,-0.58786 -1.71995,-1.1152 -2.67734,-1.58204 -0.95181,-0.46683 -1.94816,-0.86018 -2.99462,-1.18437 -1.04643,-0.32851 -2.1207,-0.57489 -3.22281,-0.75212 -1.10212,-0.1729 -2.21534,-0.268 -3.33972,-0.28961 -1.12437,-0.0174 -2.24318,0.0432 -3.35641,0.18154 -1.10767,0.13833 -2.19865,0.35445 -3.25623,0.64406 -1.06314,0.28962 -2.08176,0.65271 -3.06141,1.08496 z m 0,0"
       fill-opacity="1"
       fill-rule="nonzero"
       id="path1195"
       style="stroke-width:1.25571" />
    <g
       clip-path="url(#ba9ed3576a)"
       id="g1199"
       transform="matrix(1.4249456,0,0,1.1065669,-77.019788,-0.13487106)">
      <path
         fill="#004aad"
         d="m 291.67187,119.53906 c 0.30079,-0.35156 0.53907,-0.74609 0.71875,-1.17578 7.49219,-18.18359 8.0625,-38.124999 6.77344,-57.499999 -1.32812,-20.335937 -4.78125,-39.675781 -14.80469,-57.65625 -1.79687,-3.2187498 -6.15625,-2.109375 -7.3125,0.949219 -4.55859,12.265625 -10.25781,23.972656 -17.09765,35.121094 -6.53516,10.640625 -13.90235,21.335937 -23.15625,29.8125 -7.48047,-2.820313 -15.16797,-4.882813 -23.05469,-6.191406 -7.89062,-1.304688 -15.83203,-1.832032 -23.82422,-1.574219 -7.98828,-0.253907 -15.92578,0.273437 -23.8125,1.582031 -7.88281,1.304688 -15.5664,3.371094 -23.04687,6.191406 -9.25391,-8.480468 -16.6211,-19.167968 -23.15235,-29.8125 C 113.05859,28.132812 107.35938,16.421875 102.80469,4.15625 101.66797,1.105469 97.296875,-0.0078125 95.492188,3.207031 c -10.007813,18.007813 -13.4375,37.328125 -14.785157,57.65625 -1.289062,19.375 -0.71875,39.316409 6.773438,57.499999 0.1875,0.44922 0.4375,0.85156 0.757812,1.21875 -15.296875,31.31641 -18.003906,69.64844 -3.445312,101.69141 3.734375,8.12109 8.515625,15.57031 14.339843,22.35156 -0.425781,9.05859 -0.664062,18.44141 2.374998,27.10547 3.03516,8.66406 8.85938,14.54297 16.30469,19.53906 7.38672,4.875 15.27344,8.71875 23.65625,11.53906 8.38672,2.81641 16.99609,4.51172 25.82422,5.08594 0.1914,1.38281 0.5039,2.73438 0.9375,4.05859 0.43359,1.32422 0.98047,2.60157 1.64453,3.82813 0.66406,1.22656 1.42969,2.38281 2.30078,3.46875 0.87109,1.08984 1.83203,2.08984 2.87891,3.00781 1.05078,0.91406 2.17578,1.73047 3.37109,2.44141 1.19922,0.71484 2.44922,1.3164 3.75391,1.80469 1.30468,0.48828 2.64453,0.85937 4.01562,1.10546 1.3711,0.25 2.75,0.375 4.14453,0.375 1.39453,0 2.77735,-0.125 4.14844,-0.375 1.37109,-0.24609 2.70703,-0.61718 4.01172,-1.10546 1.30469,-0.48829 2.55469,-1.08985 3.75391,-1.80469 1.19531,-0.71094 2.32031,-1.52735 3.37109,-2.44141 1.05078,-0.91797 2.01172,-1.91797 2.88281,-3.00781 0.86719,-1.08594 1.63672,-2.24219 2.29688,-3.46875 0.66406,-1.22656 1.21093,-2.50391 1.64453,-3.82813 0.4375,-1.32421 0.74609,-2.67578 0.9375,-4.05859 17.74219,-1.18359 35.10156,-6.75 49.91797,-16.67969 7.23437,-4.84765 12.97656,-10.58593 16.07422,-18.86718 3.42578,-9.16407 3.03906,-19.17969 2.57421,-28.78125 -0.0156,-0.16797 -0.0391,-0.33204 -0.0742,-0.5 15.21875,-18.89063 22.27734,-42.28907 22.60156,-66.86329 0.10156,-9.65234 -0.92969,-19.18359 -3.09766,-28.59375 -2.16406,-9.40625 -5.40234,-18.42968 -9.71094,-27.07031 z m -124.0664,179.42188 c -7.66406,-0.51953 -15.14844,-1.96094 -22.46094,-4.31641 -7.30859,-2.35547 -14.22656,-5.5625 -20.75,-9.61328 -6.85547,-4.28516 -12.80859,-9.19922 -15.4375,-17.08594 -1.73828,-5.24609 -2.16015,-10.71484 -2.13281,-16.20312 7.66406,7.24609 16.22266,13.19531 25.67969,17.85937 15.84375,7.78125 33.16796,11.41016 50.68359,12.12891 -1.9375,0.6289 -3.76172,1.5 -5.47266,2.60937 -1.70703,1.10938 -3.24609,2.41797 -4.61328,3.92969 -1.36719,1.51172 -2.51562,3.17188 -3.44922,4.98438 -0.92968,1.8125 -1.61328,3.71484 -2.04687,5.70703 z m 22.73437,20.1914 c -1.0039,0 -1.99609,-0.0976 -2.98437,-0.29297 -0.98438,-0.19531 -1.9375,-0.48828 -2.86719,-0.87109 -0.92578,-0.38281 -1.80859,-0.85547 -2.64062,-1.41406 -0.83594,-0.5586 -1.60938,-1.19141 -2.32032,-1.90235 -0.70703,-0.71093 -1.34375,-1.48046 -1.89843,-2.3164 -0.5586,-0.83594 -1.03125,-1.71875 -1.41407,-2.64453 -0.38281,-0.92969 -0.67578,-1.88672 -0.87109,-2.8711 -0.19531,-0.98437 -0.29297,-1.98047 -0.29297,-2.98437 0,-1.00391 0.0977,-1.9961 0.29297,-2.98438 0.19531,-0.98437 0.48828,-1.9414 0.87109,-2.86718 0.38282,-0.92969 0.85547,-1.8086 1.41407,-2.64454 0.55468,-0.83593 1.1914,-1.60937 1.89843,-2.32031 0.71094,-0.70703 1.48438,-1.34375 2.32032,-1.90234 0.83203,-0.55469 1.71484,-1.02735 2.64062,-1.41016 0.92969,-0.38672 1.88281,-0.67578 2.86719,-0.87109 0.98828,-0.19531 1.98047,-0.29297 2.98437,-0.29297 1.00391,0 2,0.0977 2.98438,0.29297 0.98437,0.19531 1.9414,0.48437 2.86719,0.87109 0.92578,0.38281 1.80859,0.85547 2.64453,1.41016 0.83203,0.55859 1.60547,1.19531 2.3164,1.90234 0.71094,0.71094 1.34375,1.48438 1.90235,2.32031 0.55468,0.83594 1.02734,1.71485 1.41015,2.64454 0.38672,0.92578 0.67578,1.88281 0.8711,2.86718 0.19531,0.98828 0.29297,1.98047 0.29297,2.98438 0,1.0039 -0.0977,2 -0.29297,2.98437 -0.19532,0.98438 -0.48438,1.94141 -0.8711,2.8711 -0.38281,0.92578 -0.85547,1.80859 -1.41015,2.64453 -0.5586,0.83594 -1.19141,1.60547 -1.90235,2.3164 -0.71093,0.71094 -1.48437,1.34375 -2.3164,1.90235 -0.83594,0.55859 -1.71875,1.03125 -2.64453,1.41406 -0.92579,0.38281 -1.88282,0.67578 -2.86719,0.87109 -0.98438,0.19532 -1.98047,0.29297 -2.98438,0.29297 z m 82.04688,-51.91406 c -2.57422,8.24609 -8.55078,13.34766 -15.66016,17.79297 -6.58984,4.08984 -13.57422,7.31641 -20.96094,9.67969 -7.38281,2.36328 -14.94531,3.79297 -22.68359,4.28515 -0.21875,-1 -0.5,-1.98047 -0.84375,-2.9414 -0.34766,-0.96094 -0.75391,-1.89453 -1.22266,-2.80469 -0.46875,-0.90625 -0.99609,-1.78125 -1.57812,-2.62109 -0.58594,-0.83985 -1.21875,-1.63672 -1.90625,-2.39063 -0.6875,-0.75781 -1.42188,-1.46484 -2.20313,-2.125 -0.78125,-0.65625 -1.60156,-1.26172 -2.46093,-1.81641 -0.86328,-0.55078 -1.75391,-1.04296 -2.67969,-1.47656 -0.92578,-0.43359 -1.875,-0.80469 -2.84766,-1.11719 28.50782,-1.40234 56.27344,-10.87109 76.94141,-31.17578 0.10156,5.625 -0.20703,11.28516 -1.89453,16.71094 z m -28.58594,-4.75391 c -15.54297,7.72266 -32.73437,10.95313 -49.96484,11.35938 h -5.76172 c -29.35547,-0.41797 -58.1836,-9.46484 -78.95703,-31.14453 -17.394534,-18.15625 -25.261721,-41.76953 -25.746096,-66.80469 -0.457032,-24.03906 6.820312,-47.10937 20.195316,-67.00781 2.8789,-4.27734 -9.304691,-0.27344 -10.468754,1.65625 C 88.019531,95.101562 87.59375,78.699219 88.582031,62.445312 89.59375,45.875 91.960938,29.972656 98.554688,14.976562 c 4.089842,9.816407 8.906252,19.257813 14.453122,28.332032 6.28907,10.242187 13.38282,20.613281 22.00391,29.148437 -5.19922,2.398438 -15.38281,17.957031 -11.05469,15.167969 4.56641,-2.957031 9.31641,-5.574219 14.25391,-7.851562 4.9414,-2.28125 10.01562,-4.195313 15.22656,-5.75 5.21484,-1.554688 10.50781,-2.734376 15.89062,-3.53125 5.37891,-0.800782 10.78907,-1.214844 16.22657,-1.242188 0.45703,0.140625 0.92578,0.195312 1.40234,0.167969 0.99609,-0.0625 1.99219,-0.08203 2.99609,-0.113281 1.00391,-0.03516 1.9961,0.05078 3,0.113281 0.47657,0.02734 0.94532,-0.02734 1.40235,-0.167969 5.4375,0.03125 10.84375,0.445312 16.22265,1.242188 5.37891,0.800781 10.67188,1.976562 15.88282,3.53125 5.21093,1.554687 10.28515,3.472656 15.21875,5.75 4.9375,2.28125 9.6914,4.898437 14.2539,7.851562 4.32813,2.792969 -5.85547,-12.769531 -11.05468,-15.167969 8.64062,-8.519531 15.71484,-18.90625 22.0039,-29.148437 5.52344,-9.070313 10.32422,-18.511719 14.39844,-28.320313 6.60156,15 8.96875,30.90625 9.97266,47.472657 0.98828,16.238281 0.5625,32.632812 -4.51563,48.101562 -1.14844,-1.91406 -13.34766,-5.92578 -10.46875,-1.64844 12.07031,17.95703 19.35156,38.61328 20.13672,60.32031 0.58984,16.17188 -1.76953,33.76172 -8.53125,48.60547 -8.80078,19.39844 -25.12109,35.21485 -44.07422,44.64453 z m 0,0"
         fill-opacity="1"
         fill-rule="nonzero"
         id="path1197" />
    </g>
    <path
       fill="#004aad"
       d="m 253.52305,244.11385 c -0.32283,9.94181 -15.21241,16.30024 -26.64536,16.34347 -11.68901,0.0519 -21.83618,-5.47232 -27.78645,-12.98056 5.91132,-2.20881 11.21589,-5.54148 13.55926,-10.41297 3.92973,-8.16957 -4.73683,-11.67946 -13.77633,-12.44454 -7.48096,-0.6311 -22.94386,-1.17141 -25.64902,6.09476 -2.27658,6.09044 6.51245,12.02959 12.31241,16.24838 -5.8946,7.76325 -16.22545,13.54679 -28.17051,13.49493 -11.43295,-0.0432 -26.32808,-6.40166 -26.64536,-16.34347 -0.19482,-5.67549 -11.56098,-5.69711 -11.37174,0 0.4453,13.84936 17.76173,23.74796 34.37681,25.0231 3.27293,0.2507 6.52915,0.17722 9.77981,-0.22477 4.88711,10.34813 13.64831,24.91937 29.67338,25.41213 16.73755,0.52303 26.99047,-14.42428 30.84228,-25.11389 2.17082,0.11672 4.33607,0.0908 6.50131,-0.0734 16.61509,-1.2665 33.92039,-11.15644 34.37681,-25.0231 0.16143,-5.67548 -11.20473,-5.67548 -11.3773,0 z m -60.45443,41.32335 c -9.67961,-0.938 -15.58534,-12.44456 -18.66901,-19.08396 3.49557,-1.26217 6.74623,-2.8399 9.74641,-4.72452 3.00018,-1.88463 5.65525,-4.02859 7.97635,-6.42328 2.64951,2.74481 5.74431,5.14381 9.27329,7.20567 3.53452,2.05752 7.36407,3.69575 11.49975,4.90606 -2.4547,6.49675 -9.25659,19.14879 -19.82679,18.12003 z m 0,0"
       fill-opacity="1"
       fill-rule="nonzero"
       id="path1201"
       style="stroke-width:1.25571" />
  </g>
</svg>
